<svg width="26" height="29" viewBox="0 0 26 29" fill="none" xmlns="http://www.w3.org/2000/svg">
<path d="M0.333333 26C0.333333 27.4728 1.52724 28.6667 3 28.6667C4.47276 28.6667 5.66667 27.4728 5.66667 26C5.66667 24.5272 4.47276 23.3333 3 23.3333C1.52724 23.3333 0.333333 24.5272 0.333333 26ZM3 3V2.5H2.5V3H3ZM20.3333 3C20.3333 4.47276 21.5272 5.66667 23 5.66667C24.4728 5.66667 25.6667 4.47276 25.6667 3C25.6667 1.52724 24.4728 0.333333 23 0.333333C21.5272 0.333333 20.3333 1.52724 20.3333 3ZM3.5 26V3H2.5V26H3.5ZM3 3.5H23V2.5H3V3.5Z" fill="#B132FE"/>
</svg>
