<svg width="21" height="21" viewBox="0 0 21 21" fill="none" xmlns="http://www.w3.org/2000/svg">
<path d="M0.333333 18C0.333333 19.4728 1.52724 20.6667 3 20.6667C4.47276 20.6667 5.66667 19.4728 5.66667 18C5.66667 16.5272 4.47276 15.3333 3 15.3333C1.52724 15.3333 0.333333 16.5272 0.333333 18ZM3 3V2.5H2.5V3H3ZM15.3333 3C15.3333 4.47276 16.5272 5.66667 18 5.66667C19.4728 5.66667 20.6667 4.47276 20.6667 3C20.6667 1.52724 19.4728 0.333333 18 0.333333C16.5272 0.333333 15.3333 1.52724 15.3333 3ZM3.5 18V3H2.5V18H3.5ZM3 3.5H18V2.5H3V3.5Z" fill="#B132FE"/>
</svg>
