<svg width="41" height="6" viewBox="0 0 41 6" fill="none" xmlns="http://www.w3.org/2000/svg">
<path d="M2.99995 0.0972885C1.39682 0.0972884 0.0972367 1.39688 0.0972366 3C0.0972366 4.60312 1.39682 5.90271 2.99995 5.90271C4.60307 5.90271 5.90266 4.60312 5.90266 3C5.90266 1.39688 4.60307 0.0972886 2.99995 0.0972885ZM38 0.09729C36.3969 0.09729 35.0973 1.39688 35.0973 3C35.0973 4.60312 36.3969 5.90271 38 5.90271C39.6031 5.90271 40.9027 4.60312 40.9027 3C40.9027 1.39688 39.6031 0.0972901 38 0.09729ZM2.99995 3.54426L38 3.54426L38 2.45574L2.99995 2.45574L2.99995 3.54426Z" fill="#B132FE"/>
</svg>
