<svg width="332" height="57" viewBox="0 0 332 57" fill="none" xmlns="http://www.w3.org/2000/svg">
<g filter="url(#filter0_d_2970_54449)">
<path d="M4.5 18C4.5 13.5817 8.08172 10 12.5 10H14.5V39H12.5C8.08172 39 4.5 35.4183 4.5 31V18Z" fill="url(#paint0_linear_2970_54449)"/>
<rect x="14.5" y="0.5" width="77" height="48" rx="8" fill="url(#paint1_linear_2970_54449)"/>
<path d="M41.9029 15.138C42.2842 15.138 42.6142 15.2333 42.8929 15.424C43.1716 15.6147 43.3109 15.9227 43.3109 16.348V21.584H49.8889V16.348C49.8889 15.9227 50.0282 15.6147 50.3069 15.424C50.5856 15.2333 50.9156 15.138 51.2969 15.138C51.6782 15.138 52.0082 15.2333 52.2869 15.424C52.5656 15.6147 52.7049 15.9227 52.7049 16.348V29.834C52.7049 30.2593 52.5656 30.5673 52.2869 30.758C52.0082 30.9487 51.6782 31.044 51.2969 31.044C50.9156 31.044 50.5856 30.9487 50.3069 30.758C50.0282 30.5673 49.8889 30.2593 49.8889 29.834V23.916H43.3109V29.834C43.3109 30.2593 43.1716 30.5673 42.8929 30.758C42.6142 30.9487 42.2842 31.044 41.9029 31.044C41.5216 31.044 41.1916 30.9487 40.9129 30.758C40.6342 30.5673 40.4949 30.2593 40.4949 29.834V16.348C40.4949 15.9227 40.6342 15.6147 40.9129 15.424C41.1916 15.2333 41.5216 15.138 41.9029 15.138ZM60.9724 21.254C60.0484 21.254 59.3518 21.496 58.8824 21.98C58.4278 22.464 58.2004 23.08 58.2004 23.828V23.982H63.6564V23.762C63.6564 23.0433 63.4511 22.4493 63.0404 21.98C62.6298 21.496 61.9404 21.254 60.9724 21.254ZM61.0164 18.966C61.8084 18.966 62.5271 19.0833 63.1724 19.318C63.8178 19.5527 64.3751 19.89 64.8444 20.33C65.3138 20.77 65.6731 21.3127 65.9224 21.958C66.1864 22.6033 66.3184 23.344 66.3184 24.18V24.224C66.3184 24.9133 66.1791 25.39 65.9004 25.654C65.6364 25.918 65.1524 26.05 64.4484 26.05H58.2004V26.094C58.2004 26.886 58.4424 27.5313 58.9264 28.03C59.4251 28.5287 60.1658 28.778 61.1484 28.778C61.7644 28.778 62.2998 28.734 62.7544 28.646C63.2238 28.5433 63.7004 28.382 64.1844 28.162C64.4778 28.03 64.7638 28.0153 65.0424 28.118C65.3211 28.206 65.5264 28.404 65.6584 28.712C65.7904 29.02 65.8198 29.3207 65.7464 29.614C65.6731 29.8927 65.4898 30.1053 65.1964 30.252C64.6391 30.5307 64.0304 30.7433 63.3704 30.89C62.7104 31.022 61.9331 31.088 61.0384 31.088C59.2784 31.088 57.9144 30.6113 56.9464 29.658C55.9784 28.69 55.4944 27.2453 55.4944 25.324V24.752C55.4944 22.8453 55.9858 21.408 56.9684 20.44C57.9511 19.4573 59.3004 18.966 61.0164 18.966Z" fill="#FF6699"/>
</g>
<g filter="url(#filter1_d_2970_54449)">
<path d="M108.5 18C108.5 13.5817 112.082 10 116.5 10H118.5V39H116.5C112.082 39 108.5 35.4183 108.5 31V18Z" fill="url(#paint2_linear_2970_54449)"/>
<rect x="118.5" y="0.5" width="97" height="48" rx="8" fill="url(#paint3_linear_2970_54449)"/>
<path d="M145.598 14.588C145.964 14.588 146.287 14.6833 146.566 14.874C146.844 15.0647 146.984 15.3653 146.984 15.776V29.856C146.984 30.2667 146.844 30.5673 146.566 30.758C146.287 30.9487 145.964 31.044 145.598 31.044C145.231 31.044 144.908 30.9487 144.63 30.758C144.351 30.5673 144.212 30.2667 144.212 29.856V15.776C144.212 15.3653 144.351 15.0647 144.63 14.874C144.908 14.6833 145.231 14.588 145.598 14.588ZM151.744 19.098C152.11 19.098 152.433 19.1933 152.712 19.384C152.99 19.5747 153.13 19.868 153.13 20.264V29.878C153.13 30.274 152.99 30.5673 152.712 30.758C152.433 30.9487 152.11 31.044 151.744 31.044C151.392 31.044 151.069 30.9487 150.776 30.758C150.497 30.5673 150.358 30.274 150.358 29.878V20.264C150.358 19.868 150.497 19.5747 150.776 19.384C151.069 19.1933 151.392 19.098 151.744 19.098ZM151.744 14.544C152.228 14.544 152.638 14.7053 152.976 15.028C153.313 15.3507 153.482 15.7467 153.482 16.216C153.482 16.6853 153.313 17.0813 152.976 17.404C152.638 17.7267 152.228 17.888 151.744 17.888C151.26 17.888 150.849 17.7267 150.512 17.404C150.174 17.0813 150.006 16.6853 150.006 16.216C150.006 15.7467 150.174 15.3507 150.512 15.028C150.849 14.7053 151.26 14.544 151.744 14.544ZM157.887 14.588C158.253 14.588 158.576 14.6833 158.855 14.874C159.133 15.0647 159.273 15.358 159.273 15.754V24.158L164.003 19.494C164.281 19.2153 164.604 19.0907 164.971 19.12C165.352 19.1347 165.667 19.274 165.917 19.538C166.166 19.8313 166.291 20.1467 166.291 20.484C166.305 20.8213 166.166 21.1147 165.873 21.364L162.617 24.312L166.445 28.822C166.709 29.13 166.811 29.46 166.753 29.812C166.694 30.1493 166.525 30.4353 166.247 30.67C165.953 30.9193 165.616 31.044 165.235 31.044C164.868 31.044 164.56 30.89 164.311 30.582L160.637 26.028L159.273 27.26V29.878C159.273 30.274 159.133 30.5673 158.855 30.758C158.576 30.9487 158.253 31.044 157.887 31.044C157.535 31.044 157.212 30.9487 156.919 30.758C156.64 30.5673 156.501 30.274 156.501 29.878V15.754C156.501 15.358 156.64 15.0647 156.919 14.874C157.212 14.6833 157.535 14.588 157.887 14.588ZM173.844 21.254C172.92 21.254 172.224 21.496 171.754 21.98C171.3 22.464 171.072 23.08 171.072 23.828V23.982H176.528V23.762C176.528 23.0433 176.323 22.4493 175.912 21.98C175.502 21.496 174.812 21.254 173.844 21.254ZM173.888 18.966C174.68 18.966 175.399 19.0833 176.044 19.318C176.69 19.5527 177.247 19.89 177.716 20.33C178.186 20.77 178.545 21.3127 178.794 21.958C179.058 22.6033 179.19 23.344 179.19 24.18V24.224C179.19 24.9133 179.051 25.39 178.772 25.654C178.508 25.918 178.024 26.05 177.32 26.05H171.072V26.094C171.072 26.886 171.314 27.5313 171.798 28.03C172.297 28.5287 173.038 28.778 174.02 28.778C174.636 28.778 175.172 28.734 175.626 28.646C176.096 28.5433 176.572 28.382 177.056 28.162C177.35 28.03 177.636 28.0153 177.914 28.118C178.193 28.206 178.398 28.404 178.53 28.712C178.662 29.02 178.692 29.3207 178.618 29.614C178.545 29.8927 178.362 30.1053 178.068 30.252C177.511 30.5307 176.902 30.7433 176.242 30.89C175.582 31.022 174.805 31.088 173.91 31.088C172.15 31.088 170.786 30.6113 169.818 29.658C168.85 28.69 168.366 27.2453 168.366 25.324V24.752C168.366 22.8453 168.858 21.408 169.84 20.44C170.823 19.4573 172.172 18.966 173.888 18.966ZM185.923 18.966C187.375 18.966 188.519 19.1933 189.355 19.648C189.722 19.8533 189.949 20.0953 190.037 20.374C190.125 20.6527 190.089 20.9607 189.927 21.298C189.795 21.5767 189.605 21.7673 189.355 21.87C189.106 21.958 188.82 21.9287 188.497 21.782C188.16 21.6207 187.786 21.496 187.375 21.408C186.979 21.32 186.598 21.276 186.231 21.276C185.395 21.276 184.816 21.3787 184.493 21.584C184.171 21.7893 184.009 22.0313 184.009 22.31V22.354C184.009 22.53 184.031 22.684 184.075 22.816C184.119 22.9333 184.215 23.0433 184.361 23.146C184.523 23.234 184.75 23.322 185.043 23.41C185.337 23.4833 185.74 23.5713 186.253 23.674C187.133 23.85 187.859 24.048 188.431 24.268C189.003 24.4733 189.458 24.7227 189.795 25.016C190.133 25.3093 190.367 25.6613 190.499 26.072C190.631 26.468 190.697 26.9447 190.697 27.502V27.59C190.697 28.0887 190.58 28.5507 190.345 28.976C190.125 29.4013 189.803 29.7753 189.377 30.098C188.967 30.406 188.461 30.648 187.859 30.824C187.273 31 186.613 31.088 185.879 31.088C185.014 31.088 184.215 31 183.481 30.824C182.748 30.648 182.103 30.406 181.545 30.098C181.237 29.9367 181.054 29.702 180.995 29.394C180.937 29.0713 180.981 28.7633 181.127 28.47C181.289 28.162 181.509 27.9567 181.787 27.854C182.066 27.7513 182.367 27.7807 182.689 27.942C183.159 28.1913 183.665 28.3893 184.207 28.536C184.765 28.6827 185.315 28.756 185.857 28.756C186.62 28.756 187.148 28.646 187.441 28.426C187.735 28.206 187.881 27.9273 187.881 27.59V27.546C187.881 27.37 187.859 27.216 187.815 27.084C187.771 26.952 187.661 26.8347 187.485 26.732C187.309 26.6293 187.053 26.534 186.715 26.446C186.378 26.358 185.923 26.2553 185.351 26.138C184.574 25.9913 183.921 25.8153 183.393 25.61C182.88 25.4047 182.462 25.1553 182.139 24.862C181.817 24.554 181.582 24.202 181.435 23.806C181.303 23.3953 181.237 22.926 181.237 22.398V22.31C181.237 21.87 181.333 21.452 181.523 21.056C181.714 20.6453 182 20.286 182.381 19.978C182.777 19.67 183.269 19.428 183.855 19.252C184.442 19.0613 185.131 18.966 185.923 18.966Z" fill="#FF6699"/>
</g>
<g filter="url(#filter2_d_2970_54449)">
<path d="M232.5 18C232.5 13.5817 236.082 10 240.5 10H242.5V39H240.5C236.082 39 232.5 35.4183 232.5 31V18Z" fill="url(#paint4_linear_2970_54449)"/>
<rect x="242.5" y="0.5" width="85" height="48" rx="8" fill="url(#paint5_linear_2970_54449)"/>
<path d="M269.869 14.588C270.207 14.588 270.507 14.6833 270.771 14.874C271.05 15.05 271.189 15.3287 271.189 15.71V20.616H271.233C271.409 20.3373 271.629 20.0953 271.893 19.89C272.157 19.67 272.443 19.494 272.751 19.362C273.074 19.23 273.411 19.1347 273.763 19.076C274.115 19.0027 274.46 18.966 274.797 18.966C276.088 18.966 277.115 19.3473 277.877 20.11C278.64 20.858 279.021 21.9727 279.021 23.454V29.878C279.021 30.274 278.882 30.5673 278.603 30.758C278.325 30.9487 278.002 31.044 277.635 31.044C277.283 31.044 276.961 30.9487 276.667 30.758C276.389 30.5673 276.249 30.274 276.249 29.878V24.048C276.249 23.52 276.191 23.0873 276.073 22.75C275.956 22.398 275.795 22.1267 275.589 21.936C275.384 21.7307 275.135 21.5913 274.841 21.518C274.563 21.43 274.262 21.386 273.939 21.386C273.661 21.386 273.367 21.43 273.059 21.518C272.751 21.606 272.465 21.76 272.201 21.98C271.952 22.2 271.739 22.4933 271.563 22.86C271.402 23.2267 271.321 23.6813 271.321 24.224V29.878C271.321 30.274 271.182 30.5673 270.903 30.758C270.625 30.9487 270.302 31.044 269.935 31.044C269.583 31.044 269.261 30.9487 268.967 30.758C268.689 30.5673 268.549 30.274 268.549 29.878V15.71C268.549 15.3287 268.681 15.05 268.945 14.874C269.224 14.6833 269.532 14.588 269.869 14.588ZM287.053 21.254C286.129 21.254 285.433 21.496 284.963 21.98C284.509 22.464 284.281 23.08 284.281 23.828V23.982H289.737V23.762C289.737 23.0433 289.532 22.4493 289.121 21.98C288.711 21.496 288.021 21.254 287.053 21.254ZM287.097 18.966C287.889 18.966 288.608 19.0833 289.253 19.318C289.899 19.5527 290.456 19.89 290.925 20.33C291.395 20.77 291.754 21.3127 292.003 21.958C292.267 22.6033 292.399 23.344 292.399 24.18V24.224C292.399 24.9133 292.26 25.39 291.981 25.654C291.717 25.918 291.233 26.05 290.529 26.05H284.281V26.094C284.281 26.886 284.523 27.5313 285.007 28.03C285.506 28.5287 286.247 28.778 287.229 28.778C287.845 28.778 288.381 28.734 288.835 28.646C289.305 28.5433 289.781 28.382 290.265 28.162C290.559 28.03 290.845 28.0153 291.123 28.118C291.402 28.206 291.607 28.404 291.739 28.712C291.871 29.02 291.901 29.3207 291.827 29.614C291.754 29.8927 291.571 30.1053 291.277 30.252C290.72 30.5307 290.111 30.7433 289.451 30.89C288.791 31.022 288.014 31.088 287.119 31.088C285.359 31.088 283.995 30.6113 283.027 29.658C282.059 28.69 281.575 27.2453 281.575 25.324V24.752C281.575 22.8453 282.067 21.408 283.049 20.44C284.032 19.4573 285.381 18.966 287.097 18.966ZM300.892 18.966C301.405 18.966 301.801 19.0467 302.08 19.208C302.344 19.3547 302.52 19.5453 302.608 19.78C302.696 20.0147 302.711 20.286 302.652 20.594C302.579 21.0047 302.41 21.3273 302.146 21.562C301.897 21.782 301.603 21.8553 301.266 21.782C301.075 21.7527 300.892 21.716 300.716 21.672C300.54 21.628 300.357 21.606 300.166 21.606C299.829 21.606 299.513 21.672 299.22 21.804C298.941 21.936 298.692 22.1193 298.472 22.354C298.267 22.574 298.098 22.8453 297.966 23.168C297.849 23.476 297.79 23.8133 297.79 24.18V29.878C297.79 30.274 297.651 30.5673 297.372 30.758C297.093 30.9487 296.771 31.044 296.404 31.044C296.052 31.044 295.729 30.9487 295.436 30.758C295.157 30.5673 295.018 30.274 295.018 29.878V20.22C295.018 19.8387 295.15 19.56 295.414 19.384C295.693 19.1933 296.001 19.098 296.338 19.098C296.69 19.098 296.998 19.1933 297.262 19.384C297.541 19.56 297.68 19.8387 297.68 20.22V20.99H297.724C298.032 20.374 298.465 19.8827 299.022 19.516C299.579 19.1493 300.203 18.966 300.892 18.966Z" fill="#FF6699"/>
</g>
<defs>
<filter id="filter0_d_2970_54449" x="0.5" y="0.5" width="95" height="56" filterUnits="userSpaceOnUse" color-interpolation-filters="sRGB">
<feFlood flood-opacity="0" result="BackgroundImageFix"/>
<feColorMatrix in="SourceAlpha" type="matrix" values="0 0 0 0 0 0 0 0 0 0 0 0 0 0 0 0 0 0 127 0" result="hardAlpha"/>
<feOffset dy="4"/>
<feGaussianBlur stdDeviation="2"/>
<feComposite in2="hardAlpha" operator="out"/>
<feColorMatrix type="matrix" values="0 0 0 0 0.984314 0 0 0 0 0.0941176 0 0 0 0 0.392157 0 0 0 0.2 0"/>
<feBlend mode="normal" in2="BackgroundImageFix" result="effect1_dropShadow_2970_54449"/>
<feBlend mode="normal" in="SourceGraphic" in2="effect1_dropShadow_2970_54449" result="shape"/>
</filter>
<filter id="filter1_d_2970_54449" x="104.5" y="0.5" width="115" height="56" filterUnits="userSpaceOnUse" color-interpolation-filters="sRGB">
<feFlood flood-opacity="0" result="BackgroundImageFix"/>
<feColorMatrix in="SourceAlpha" type="matrix" values="0 0 0 0 0 0 0 0 0 0 0 0 0 0 0 0 0 0 127 0" result="hardAlpha"/>
<feOffset dy="4"/>
<feGaussianBlur stdDeviation="2"/>
<feComposite in2="hardAlpha" operator="out"/>
<feColorMatrix type="matrix" values="0 0 0 0 0.984314 0 0 0 0 0.0941176 0 0 0 0 0.392157 0 0 0 0.2 0"/>
<feBlend mode="normal" in2="BackgroundImageFix" result="effect1_dropShadow_2970_54449"/>
<feBlend mode="normal" in="SourceGraphic" in2="effect1_dropShadow_2970_54449" result="shape"/>
</filter>
<filter id="filter2_d_2970_54449" x="228.5" y="0.5" width="103" height="56" filterUnits="userSpaceOnUse" color-interpolation-filters="sRGB">
<feFlood flood-opacity="0" result="BackgroundImageFix"/>
<feColorMatrix in="SourceAlpha" type="matrix" values="0 0 0 0 0 0 0 0 0 0 0 0 0 0 0 0 0 0 127 0" result="hardAlpha"/>
<feOffset dy="4"/>
<feGaussianBlur stdDeviation="2"/>
<feComposite in2="hardAlpha" operator="out"/>
<feColorMatrix type="matrix" values="0 0 0 0 0.984314 0 0 0 0 0.0941176 0 0 0 0 0.392157 0 0 0 0.2 0"/>
<feBlend mode="normal" in2="BackgroundImageFix" result="effect1_dropShadow_2970_54449"/>
<feBlend mode="normal" in="SourceGraphic" in2="effect1_dropShadow_2970_54449" result="shape"/>
</filter>
<linearGradient id="paint0_linear_2970_54449" x1="9.5" y1="10" x2="9.5" y2="39" gradientUnits="userSpaceOnUse">
<stop stop-color="white"/>
<stop offset="1" stop-color="#FFE3ED"/>
</linearGradient>
<linearGradient id="paint1_linear_2970_54449" x1="53" y1="0.5" x2="53" y2="48.5" gradientUnits="userSpaceOnUse">
<stop stop-color="white"/>
<stop offset="1" stop-color="#FFE3ED"/>
</linearGradient>
<linearGradient id="paint2_linear_2970_54449" x1="113.5" y1="10" x2="113.5" y2="39" gradientUnits="userSpaceOnUse">
<stop stop-color="white"/>
<stop offset="1" stop-color="#FFE3ED"/>
</linearGradient>
<linearGradient id="paint3_linear_2970_54449" x1="167" y1="0.5" x2="167" y2="48.5" gradientUnits="userSpaceOnUse">
<stop stop-color="white"/>
<stop offset="1" stop-color="#FFE3ED"/>
</linearGradient>
<linearGradient id="paint4_linear_2970_54449" x1="237.5" y1="10" x2="237.5" y2="39" gradientUnits="userSpaceOnUse">
<stop stop-color="white"/>
<stop offset="1" stop-color="#FFE3ED"/>
</linearGradient>
<linearGradient id="paint5_linear_2970_54449" x1="285" y1="0.5" x2="285" y2="48.5" gradientUnits="userSpaceOnUse">
<stop stop-color="white"/>
<stop offset="1" stop-color="#FFE3ED"/>
</linearGradient>
</defs>
</svg>
