<svg width="262" height="49" viewBox="0 0 262 49" fill="none" xmlns="http://www.w3.org/2000/svg">
<path d="M0.5 18C0.5 13.5817 4.08172 10 8.5 10H10.5V39H8.5C4.08172 39 0.5 35.4183 0.5 31V18Z" fill="url(#paint0_linear_2690_72863)"/>
<rect x="10.5" y="0.5" width="251" height="48" rx="8" fill="url(#paint1_linear_2690_72863)"/>
<path d="M38.7665 17.712C38.4145 17.712 38.1579 17.5947 37.9965 17.36C37.8352 17.1253 37.7545 16.8393 37.7545 16.502C37.7545 16.1647 37.8352 15.8787 37.9965 15.644C38.1579 15.3947 38.4145 15.27 38.7665 15.27H49.7885C50.4925 15.27 50.9765 15.402 51.2405 15.666C51.5192 15.93 51.6585 16.4067 51.6585 17.096V18.768C51.6585 20.3667 51.6072 21.7967 51.5045 23.058C51.4165 24.3193 51.2699 25.478 51.0645 26.534C50.9912 26.93 50.7859 27.2013 50.4485 27.348C50.1112 27.4947 49.7372 27.5313 49.3265 27.458C48.9892 27.3847 48.7105 27.238 48.4905 27.018C48.2705 26.798 48.1972 26.49 48.2705 26.094C48.4759 24.9647 48.6225 23.8207 48.7105 22.662C48.7985 21.4887 48.8425 20.3593 48.8425 19.274V18.218C48.8425 17.8807 48.6739 17.712 48.3365 17.712H38.7665ZM36.5885 31.198C36.2512 31.198 36.0019 31.0807 35.8405 30.846C35.6792 30.6113 35.5985 30.3327 35.5985 30.01C35.5985 29.6727 35.6792 29.3867 35.8405 29.152C36.0019 28.9173 36.2512 28.8 36.5885 28.8H53.2205C53.5579 28.8 53.8072 28.9173 53.9685 29.152C54.1299 29.3867 54.2105 29.6727 54.2105 30.01C54.2105 30.3327 54.1299 30.6113 53.9685 30.846C53.8072 31.0807 53.5579 31.198 53.2205 31.198H36.5885ZM71.176 19.67C71.5133 19.67 71.7626 19.7873 71.924 20.022C72.0853 20.2567 72.166 20.5353 72.166 20.858C72.166 21.1807 72.0853 21.4593 71.924 21.694C71.7626 21.9287 71.5133 22.046 71.176 22.046H59.912C59.208 22.046 58.7166 21.914 58.438 21.65C58.174 21.386 58.042 20.9093 58.042 20.22V15.468C58.042 15.0573 58.1813 14.7567 58.46 14.566C58.7533 14.3753 59.0906 14.28 59.472 14.28C59.8386 14.28 60.1613 14.3753 60.44 14.566C60.7333 14.7567 60.88 15.0573 60.88 15.468V19.164C60.88 19.5013 61.0486 19.67 61.386 19.67H71.176ZM56.612 26.314C56.2746 26.314 56.0253 26.1967 55.864 25.962C55.7026 25.7273 55.622 25.4487 55.622 25.126C55.622 24.8033 55.7026 24.5247 55.864 24.29C56.0253 24.0553 56.2746 23.938 56.612 23.938H73.244C73.5813 23.938 73.8306 24.0553 73.992 24.29C74.1533 24.5247 74.234 24.8033 74.234 25.126C74.234 25.4487 74.1533 25.7273 73.992 25.962C73.8306 26.1967 73.5813 26.314 73.244 26.314H56.612ZM71.22 31.726C71.5573 31.726 71.8066 31.8433 71.968 32.078C72.1293 32.3127 72.21 32.5913 72.21 32.914C72.21 33.2367 72.1293 33.5153 71.968 33.75C71.8066 33.9847 71.5573 34.102 71.22 34.102H59.868C59.164 34.102 58.6726 33.97 58.394 33.706C58.13 33.442 57.998 32.9653 57.998 32.276V28.866C57.998 28.4553 58.1373 28.1547 58.416 27.964C58.7093 27.7733 59.0466 27.678 59.428 27.678C59.7946 27.678 60.1173 27.7733 60.396 27.964C60.6893 28.1547 60.836 28.4553 60.836 28.866V31.22C60.836 31.5573 61.0046 31.726 61.342 31.726H71.22ZM89.8134 17.712C89.4614 17.712 89.2047 17.5947 89.0434 17.36C88.8821 17.1253 88.8014 16.8393 88.8014 16.502C88.8014 16.1647 88.8821 15.8787 89.0434 15.644C89.2047 15.3947 89.4614 15.27 89.8134 15.27H100.835C101.539 15.27 102.023 15.402 102.287 15.666C102.566 15.93 102.705 16.4067 102.705 17.096V18.768C102.705 20.3667 102.654 21.7967 102.551 23.058C102.463 24.3193 102.317 25.478 102.111 26.534C102.038 26.93 101.833 27.2013 101.495 27.348C101.158 27.4947 100.784 27.5313 100.373 27.458C100.036 27.3847 99.7574 27.238 99.5374 27.018C99.3174 26.798 99.2441 26.49 99.3174 26.094C99.5227 24.9647 99.6694 23.8207 99.7574 22.662C99.8454 21.4887 99.8894 20.3593 99.8894 19.274V18.218C99.8894 17.8807 99.7207 17.712 99.3834 17.712H89.8134ZM87.6354 31.198C87.2981 31.198 87.0487 31.0807 86.8874 30.846C86.7261 30.6113 86.6454 30.3327 86.6454 30.01C86.6454 29.6727 86.7261 29.3867 86.8874 29.152C87.0487 28.9173 87.2981 28.8 87.6354 28.8H104.267C104.605 28.8 104.854 28.9173 105.015 29.152C105.177 29.3867 105.257 29.6727 105.257 30.01C105.257 30.3327 105.177 30.6113 105.015 30.846C104.854 31.0807 104.605 31.198 104.267 31.198H87.6354ZM109.595 28.052C108.891 28.052 108.4 27.92 108.121 27.656C107.857 27.392 107.725 26.9153 107.725 26.226V16.26C107.725 15.8493 107.864 15.5487 108.143 15.358C108.436 15.1673 108.766 15.072 109.133 15.072C109.514 15.072 109.844 15.1673 110.123 15.358C110.416 15.5487 110.563 15.8493 110.563 16.26V25.17C110.563 25.5073 110.732 25.676 111.069 25.676C112.125 25.676 113.225 25.6613 114.369 25.632C115.513 25.6027 116.591 25.5293 117.603 25.412C117.94 25.3827 118.204 25.4707 118.395 25.676C118.586 25.8667 118.696 26.1233 118.725 26.446C118.754 26.7687 118.703 27.062 118.571 27.326C118.439 27.59 118.212 27.7367 117.889 27.766C117.009 27.8687 115.909 27.942 114.589 27.986C113.269 28.03 111.604 28.052 109.595 28.052ZM115.579 18.636C115.579 18.3133 115.66 18.0347 115.821 17.8C115.982 17.5653 116.232 17.448 116.569 17.448H120.881V14.962C120.881 14.5513 121.02 14.2507 121.299 14.06C121.592 13.8693 121.915 13.774 122.267 13.774C122.619 13.774 122.934 13.8693 123.213 14.06C123.506 14.2507 123.653 14.5513 123.653 14.962V31.814C123.653 32.2247 123.506 32.5253 123.213 32.716C122.934 32.9067 122.619 33.002 122.267 33.002C121.915 33.002 121.592 32.9067 121.299 32.716C121.02 32.5253 120.881 32.2247 120.881 31.814V23.96H116.569C116.232 23.96 115.982 23.8427 115.821 23.608C115.66 23.3733 115.579 23.0947 115.579 22.772C115.579 22.4493 115.66 22.1707 115.821 21.936C115.982 21.7013 116.232 21.584 116.569 21.584H120.881V19.824H116.569C116.232 19.824 115.982 19.7067 115.821 19.472C115.66 19.2373 115.579 18.9587 115.579 18.636ZM131.048 22.222C130.344 22.222 129.853 22.09 129.574 21.826C129.31 21.562 129.178 21.0853 129.178 20.396V18.988C129.178 18.2987 129.31 17.822 129.574 17.558C129.853 17.294 130.344 17.162 131.048 17.162H139.738C139.958 17.162 140.068 17.052 140.068 16.832V16.59C140.068 16.37 139.958 16.26 139.738 16.26H130.036C129.728 16.26 129.501 16.1573 129.354 15.952C129.208 15.732 129.134 15.4827 129.134 15.204C129.134 14.9253 129.208 14.6833 129.354 14.478C129.501 14.258 129.728 14.148 130.036 14.148H140.904C141.608 14.148 142.092 14.28 142.356 14.544C142.635 14.808 142.774 15.2847 142.774 15.974V17.36C142.774 18.0493 142.635 18.526 142.356 18.79C142.092 19.054 141.608 19.186 140.904 19.186H132.214C131.994 19.186 131.884 19.296 131.884 19.516V19.78C131.884 20 131.994 20.11 132.214 20.11H142.312C142.62 20.11 142.848 20.22 142.994 20.44C143.141 20.6453 143.214 20.8873 143.214 21.166C143.214 21.4447 143.141 21.694 142.994 21.914C142.848 22.1193 142.62 22.222 142.312 22.222H131.048ZM127.638 25.368C127.316 25.368 127.074 25.2653 126.912 25.06C126.766 24.84 126.692 24.576 126.692 24.268C126.692 23.96 126.766 23.7033 126.912 23.498C127.074 23.278 127.316 23.168 127.638 23.168H144.358C144.681 23.168 144.916 23.278 145.062 23.498C145.224 23.7033 145.304 23.96 145.304 24.268C145.304 24.576 145.224 24.84 145.062 25.06C144.916 25.2653 144.681 25.368 144.358 25.368H127.638ZM130.916 34.388C130.212 34.388 129.721 34.256 129.442 33.992C129.178 33.728 129.046 33.2513 129.046 32.562V31.154C129.046 30.4647 129.178 29.988 129.442 29.724C129.721 29.46 130.212 29.328 130.916 29.328H139.87C140.09 29.328 140.2 29.218 140.2 28.998V28.756C140.2 28.536 140.09 28.426 139.87 28.426H129.904C129.596 28.426 129.369 28.3233 129.222 28.118C129.076 27.898 129.002 27.6487 129.002 27.37C129.002 27.0913 129.076 26.8493 129.222 26.644C129.369 26.424 129.596 26.314 129.904 26.314H141.036C141.74 26.314 142.224 26.446 142.488 26.71C142.767 26.974 142.906 27.4507 142.906 28.14V29.526C142.906 30.2153 142.767 30.692 142.488 30.956C142.224 31.22 141.74 31.352 141.036 31.352H132.082C131.862 31.352 131.752 31.462 131.752 31.682V31.946C131.752 32.166 131.862 32.276 132.082 32.276H142.444C142.752 32.276 142.98 32.3787 143.126 32.584C143.273 32.804 143.346 33.0533 143.346 33.332C143.346 33.6107 143.273 33.8527 143.126 34.058C142.98 34.278 142.752 34.388 142.444 34.388H130.916ZM160.884 16.502C160.561 16.502 160.319 16.392 160.158 16.172C160.011 15.952 159.938 15.6807 159.938 15.358C159.938 15.05 160.011 14.786 160.158 14.566C160.319 14.346 160.561 14.236 160.884 14.236H173.16C173.482 14.236 173.717 14.346 173.864 14.566C174.025 14.786 174.106 15.05 174.106 15.358C174.106 15.6807 174.025 15.952 173.864 16.172C173.717 16.392 173.482 16.502 173.16 16.502H168.452V16.656C168.452 16.964 168.584 17.228 168.848 17.448C169.112 17.6533 169.574 17.8733 170.234 18.108C170.967 18.3573 171.634 18.5847 172.236 18.79C172.837 18.9807 173.424 19.1567 173.996 19.318C174.304 19.406 174.509 19.5967 174.612 19.89C174.714 20.1833 174.707 20.484 174.59 20.792C174.472 21.1 174.282 21.32 174.018 21.452C173.754 21.584 173.446 21.5987 173.094 21.496C172.61 21.364 172.067 21.2027 171.466 21.012C170.879 20.8213 170.292 20.6233 169.706 20.418C169.236 20.2567 168.84 20.11 168.518 19.978C168.21 19.8313 167.953 19.6993 167.748 19.582C167.542 19.45 167.381 19.3253 167.264 19.208C167.161 19.076 167.088 18.944 167.044 18.812H167.022C166.978 18.9587 166.897 19.098 166.78 19.23C166.677 19.362 166.523 19.494 166.318 19.626C166.112 19.758 165.848 19.8973 165.526 20.044C165.203 20.176 164.807 20.3227 164.338 20.484C163.751 20.6893 163.157 20.8873 162.556 21.078C161.969 21.2687 161.434 21.43 160.95 21.562C160.598 21.6647 160.29 21.65 160.026 21.518C159.762 21.386 159.571 21.1587 159.454 20.836C159.336 20.5133 159.322 20.2053 159.41 19.912C159.512 19.604 159.725 19.406 160.048 19.318C160.62 19.1567 161.206 18.9807 161.808 18.79C162.409 18.5847 163.076 18.3573 163.81 18.108C164.47 17.8733 164.932 17.6533 165.196 17.448C165.46 17.228 165.592 16.964 165.592 16.656V16.502H160.884ZM158.662 24.818C158.339 24.818 158.097 24.708 157.936 24.488C157.789 24.268 157.716 23.9967 157.716 23.674C157.716 23.366 157.789 23.102 157.936 22.882C158.097 22.662 158.339 22.552 158.662 22.552H165.636V21.496C165.636 21.0853 165.775 20.792 166.054 20.616C166.347 20.4253 166.67 20.33 167.022 20.33C167.374 20.33 167.689 20.4253 167.968 20.616C168.261 20.792 168.408 21.0853 168.408 21.496V22.552H175.382C175.704 22.552 175.939 22.662 176.086 22.882C176.247 23.102 176.328 23.366 176.328 23.674C176.328 23.9967 176.247 24.268 176.086 24.488C175.939 24.708 175.704 24.818 175.382 24.818H158.662ZM167.022 34.916C165.32 34.916 163.986 34.7033 163.018 34.278C162.064 33.8673 161.588 33.222 161.588 32.342C161.588 31.462 162.064 30.8167 163.018 30.406C163.986 29.9807 165.32 29.768 167.022 29.768C168.723 29.768 170.05 29.9807 171.004 30.406C171.972 30.8167 172.456 31.462 172.456 32.342C172.456 33.222 171.972 33.8673 171.004 34.278C170.05 34.7033 168.723 34.916 167.022 34.916ZM167.022 31.748C165.98 31.748 165.262 31.7993 164.866 31.902C164.47 32.0193 164.272 32.166 164.272 32.342C164.272 32.518 164.47 32.6573 164.866 32.76C165.262 32.8773 165.98 32.936 167.022 32.936C168.063 32.936 168.782 32.8773 169.178 32.76C169.574 32.6573 169.772 32.518 169.772 32.342C169.772 32.166 169.574 32.0193 169.178 31.902C168.782 31.7993 168.063 31.748 167.022 31.748ZM160.51 29.086C160.216 29.086 159.996 28.9833 159.85 28.778C159.718 28.558 159.652 28.3087 159.652 28.03C159.652 27.7513 159.718 27.5093 159.85 27.304C159.996 27.084 160.216 26.974 160.51 26.974H165.636V26.358C165.636 25.9767 165.768 25.7053 166.032 25.544C166.31 25.368 166.64 25.28 167.022 25.28C167.403 25.28 167.726 25.368 167.99 25.544C168.268 25.7053 168.408 25.9767 168.408 26.358V26.974H173.424C173.717 26.974 173.93 27.084 174.062 27.304C174.208 27.5093 174.282 27.7513 174.282 28.03C174.282 28.3087 174.208 28.558 174.062 28.778C173.93 28.9833 173.717 29.086 173.424 29.086H160.51ZM177.959 21.584C177.959 19.3987 178.399 17.7413 179.279 16.612C180.159 15.4827 181.479 14.918 183.239 14.918C184.999 14.918 186.319 15.4827 187.199 16.612C188.079 17.7413 188.519 19.3987 188.519 21.584C188.519 23.7693 188.079 25.4267 187.199 26.556C186.319 27.6853 184.999 28.25 183.239 28.25C181.479 28.25 180.159 27.6853 179.279 26.556C178.399 25.4267 177.959 23.7693 177.959 21.584ZM185.813 21.584C185.813 20.1907 185.622 19.142 185.241 18.438C184.86 17.7193 184.192 17.36 183.239 17.36C182.286 17.36 181.618 17.7193 181.237 18.438C180.856 19.142 180.665 20.1907 180.665 21.584C180.665 22.9773 180.856 24.0333 181.237 24.752C181.618 25.456 182.286 25.808 183.239 25.808C184.192 25.808 184.86 25.456 185.241 24.752C185.622 24.0333 185.813 22.9773 185.813 21.584ZM195.713 20.264C196.065 20.264 196.322 20.3813 196.483 20.616C196.644 20.8507 196.725 21.1367 196.725 21.474C196.725 21.8113 196.644 22.1047 196.483 22.354C196.322 22.5887 196.065 22.706 195.713 22.706H193.645V31.814C193.645 32.2247 193.498 32.5253 193.205 32.716C192.926 32.9067 192.604 33.002 192.237 33.002C191.87 33.002 191.54 32.9067 191.247 32.716C190.968 32.5253 190.829 32.2247 190.829 31.814V14.962C190.829 14.5513 190.968 14.2507 191.247 14.06C191.54 13.8693 191.87 13.774 192.237 13.774C192.604 13.774 192.926 13.8693 193.205 14.06C193.498 14.2507 193.645 14.5513 193.645 14.962V20.264H195.713ZM203.725 19.296C205.235 19.296 206.416 19.6333 207.267 20.308C208.132 20.968 208.565 21.8773 208.565 23.036C208.565 24.1947 208.132 25.1113 207.267 25.786C206.416 26.446 205.235 26.776 203.725 26.776C202.214 26.776 201.026 26.446 200.161 25.786C199.31 25.1113 198.885 24.1947 198.885 23.036C198.885 21.8773 199.31 20.968 200.161 20.308C201.026 19.6333 202.214 19.296 203.725 19.296ZM198.643 18.372C198.305 18.372 198.056 18.2547 197.895 18.02C197.733 17.7853 197.653 17.5067 197.653 17.184C197.653 16.8613 197.733 16.5827 197.895 16.348C198.056 16.1133 198.305 15.996 198.643 15.996H202.317V14.918C202.317 14.5073 202.456 14.2067 202.735 14.016C203.028 13.8253 203.358 13.73 203.725 13.73C204.091 13.73 204.414 13.8253 204.693 14.016C204.986 14.2067 205.133 14.5073 205.133 14.918V15.996H208.587C208.924 15.996 209.173 16.1133 209.335 16.348C209.496 16.5827 209.577 16.8613 209.577 17.184C209.577 17.5067 209.496 17.7853 209.335 18.02C209.173 18.2547 208.924 18.372 208.587 18.372H198.643ZM203.725 24.62C204.517 24.62 205.096 24.4733 205.463 24.18C205.844 23.872 206.035 23.4907 206.035 23.036C206.035 22.5813 205.844 22.2073 205.463 21.914C205.096 21.606 204.517 21.452 203.725 21.452C202.933 21.452 202.346 21.606 201.965 21.914C201.598 22.2073 201.415 22.5813 201.415 23.036C201.415 23.4907 201.598 23.872 201.965 24.18C202.346 24.4733 202.933 24.62 203.725 24.62ZM213.669 19.516H215.759C216.096 19.516 216.345 19.6333 216.507 19.868C216.668 20.1027 216.749 20.3887 216.749 20.726C216.749 21.0633 216.668 21.3493 216.507 21.584C216.345 21.8187 216.096 21.936 215.759 21.936H213.669V27.81C213.669 28.2207 213.522 28.5213 213.229 28.712C212.95 28.9027 212.635 28.998 212.283 28.998C211.916 28.998 211.586 28.9027 211.293 28.712C211.014 28.5213 210.875 28.2207 210.875 27.81V14.962C210.875 14.5513 211.014 14.2507 211.293 14.06C211.586 13.8693 211.916 13.774 212.283 13.774C212.635 13.774 212.95 13.8693 213.229 14.06C213.522 14.2507 213.669 14.5513 213.669 14.962V19.516ZM202.515 34.014C201.811 34.014 201.319 33.882 201.041 33.618C200.777 33.354 200.645 32.8773 200.645 32.188V28.866C200.645 28.4553 200.784 28.1547 201.063 27.964C201.356 27.7733 201.693 27.678 202.075 27.678C202.441 27.678 202.764 27.7733 203.043 27.964C203.336 28.1547 203.483 28.4553 203.483 28.866V31.11C203.483 31.4473 203.651 31.616 203.989 31.616H213.163C213.5 31.616 213.749 31.7333 213.911 31.968C214.072 32.2027 214.153 32.4887 214.153 32.826C214.153 33.1487 214.072 33.4273 213.911 33.662C213.749 33.8967 213.5 34.014 213.163 34.014H202.515ZM221.812 17.646C221.475 17.646 221.306 17.8147 221.306 18.152V25.06C221.306 25.3973 221.475 25.566 221.812 25.566C223.059 25.566 224.247 25.5367 225.376 25.478C226.52 25.4047 227.627 25.2947 228.698 25.148C229.035 25.104 229.299 25.1847 229.49 25.39C229.695 25.5953 229.813 25.8593 229.842 26.182C229.871 26.5193 229.827 26.82 229.71 27.084C229.593 27.3333 229.373 27.48 229.05 27.524C228.595 27.5827 228.089 27.6413 227.532 27.7C226.989 27.744 226.366 27.788 225.662 27.832C224.958 27.876 224.166 27.9127 223.286 27.942C222.421 27.9567 221.445 27.964 220.36 27.964C219.656 27.964 219.165 27.832 218.886 27.568C218.622 27.304 218.49 26.8273 218.49 26.138V17.074C218.49 16.3847 218.622 15.908 218.886 15.644C219.165 15.38 219.656 15.248 220.36 15.248H227.312C227.649 15.248 227.899 15.3653 228.06 15.6C228.221 15.8347 228.302 16.1207 228.302 16.458C228.302 16.7807 228.221 17.0593 228.06 17.294C227.899 17.5287 227.649 17.646 227.312 17.646H221.812ZM235.76 20.264C236.112 20.264 236.369 20.3813 236.53 20.616C236.691 20.8507 236.772 21.1367 236.772 21.474C236.772 21.8113 236.691 22.1047 236.53 22.354C236.369 22.5887 236.112 22.706 235.76 22.706H233.692V31.814C233.692 32.2247 233.545 32.5253 233.252 32.716C232.973 32.9067 232.651 33.002 232.284 33.002C231.917 33.002 231.587 32.9067 231.294 32.716C231.015 32.5253 230.876 32.2247 230.876 31.814V14.962C230.876 14.5513 231.015 14.2507 231.294 14.06C231.587 13.8693 231.917 13.774 232.284 13.774C232.651 13.774 232.973 13.8693 233.252 14.06C233.545 14.2507 233.692 14.5513 233.692 14.962V20.264H235.76Z" fill="#FF6699"/>
<defs>
<linearGradient id="paint0_linear_2690_72863" x1="5.5" y1="10" x2="5.5" y2="39" gradientUnits="userSpaceOnUse">
<stop stop-color="white"/>
<stop offset="1" stop-color="#FFE3ED"/>
</linearGradient>
<linearGradient id="paint1_linear_2690_72863" x1="136" y1="0.5" x2="136" y2="48.5" gradientUnits="userSpaceOnUse">
<stop stop-color="white"/>
<stop offset="1" stop-color="#FFE3ED"/>
</linearGradient>
</defs>
</svg>
