<svg width="242" height="39" viewBox="0 0 242 39" fill="none" xmlns="http://www.w3.org/2000/svg">
<path d="M16.4617 27.4792V36.5667C16.4617 36.8071 16.6568 36.9995 16.8946 36.9995H26.0004C29.3546 36.9995 32.0727 34.2828 32.0727 30.9304V27.4792C32.0727 24.1268 29.3546 21.4102 26.0004 21.4102H22.5313C19.1771 21.4102 16.459 24.1268 16.459 27.4792H16.4617Z" fill="#FFE817"/>
<path d="M16.4614 5.37805V14.4656C16.4614 17.818 19.1795 20.5346 22.5337 20.5346H26.0028C29.357 20.5346 32.0751 17.818 32.0751 14.4656V11.0143C32.0751 7.66195 29.357 4.94531 26.0028 4.94531H16.8971C16.6565 4.94531 16.4641 5.14031 16.4641 5.37805H16.4614Z" fill="#00F0FF"/>
<path d="M0.000488281 21.8456V36.5667C0.000488281 36.8071 0.195591 36.9995 0.433458 36.9995H15.6115V27.4792C15.6115 24.1268 12.8934 21.4102 9.53921 21.4102H0.433458C0.192919 21.4102 0.000488281 21.6052 0.000488281 21.8429V21.8456Z" fill="#61FF00"/>
<path d="M13.9106 6.70767V4.76568C13.9106 3.79068 13.1195 3 12.1467 3H3.46585C2.49033 3 1.69922 3.79068 1.69922 4.76568V6.70767C1.69922 7.43424 4.43335 8.02458 7.80625 8.02458C11.1792 8.02458 13.9133 7.43424 13.9133 6.70767H13.9106Z" fill="#FF43B4"/>
<path d="M0 5.37805V20.0992C0 20.3396 0.195103 20.5319 0.43297 20.5319H9.53872C12.8929 20.5319 15.611 17.8153 15.611 14.4629V5.37805C15.611 5.13764 15.4159 4.94531 15.1781 4.94531H0.43297C0.19243 4.94531 0 5.14031 0 5.37805Z" fill="#FF43B4"/>
<path d="M55.7775 19.692C56.8002 19.8827 57.6408 20.394 58.2995 21.226C58.9582 22.058 59.2875 23.0113 59.2875 24.086C59.2875 25.0567 59.0448 25.9147 58.5595 26.66C58.0915 27.388 57.4068 27.96 56.5055 28.376C55.6042 28.792 54.5382 29 53.3075 29H45.4815V10.852H52.9695C54.2002 10.852 55.2575 11.0513 56.1415 11.45C57.0428 11.8487 57.7188 12.4033 58.1695 13.114C58.6375 13.8247 58.8715 14.6307 58.8715 15.532C58.8715 16.5893 58.5855 17.4733 58.0135 18.184C57.4588 18.8947 56.7135 19.3973 55.7775 19.692ZM49.1215 18.34H52.4495C53.3162 18.34 53.9835 18.1493 54.4515 17.768C54.9195 17.3693 55.1535 16.806 55.1535 16.078C55.1535 15.35 54.9195 14.7867 54.4515 14.388C53.9835 13.9893 53.3162 13.79 52.4495 13.79H49.1215V18.34ZM52.7875 26.036C53.6715 26.036 54.3562 25.828 54.8415 25.412C55.3442 24.996 55.5955 24.4067 55.5955 23.644C55.5955 22.864 55.3355 22.2573 54.8155 21.824C54.2955 21.3733 53.5935 21.148 52.7095 21.148H49.1215V26.036H52.7875ZM65.7208 26.114H71.7008V29H62.0808V10.852H65.7208V26.114ZM82.3307 29.182C80.632 29.182 79.072 28.7833 77.6507 27.986C76.2294 27.1887 75.1027 26.088 74.2707 24.684C73.4387 23.2627 73.0227 21.6593 73.0227 19.874C73.0227 18.106 73.4387 16.52 74.2707 15.116C75.1027 13.6947 76.2294 12.5853 77.6507 11.788C79.072 10.9907 80.632 10.592 82.3307 10.592C84.0467 10.592 85.6067 10.9907 87.0107 11.788C88.432 12.5853 89.55 13.6947 90.3647 15.116C91.1967 16.52 91.6127 18.106 91.6127 19.874C91.6127 21.6593 91.1967 23.2627 90.3647 24.684C89.55 26.088 88.432 27.1887 87.0107 27.986C85.5894 28.7833 84.0294 29.182 82.3307 29.182ZM82.3307 25.932C83.4227 25.932 84.3847 25.6893 85.2167 25.204C86.0487 24.7013 86.6987 23.9907 87.1667 23.072C87.6347 22.1533 87.8687 21.0873 87.8687 19.874C87.8687 18.6607 87.6347 17.6033 87.1667 16.702C86.6987 15.7833 86.0487 15.0813 85.2167 14.596C84.3847 14.1107 83.4227 13.868 82.3307 13.868C81.2387 13.868 80.268 14.1107 79.4187 14.596C78.5867 15.0813 77.9367 15.7833 77.4687 16.702C77.0007 17.6033 76.7667 18.6607 76.7667 19.874C76.7667 21.0873 77.0007 22.1533 77.4687 23.072C77.9367 23.9907 78.5867 24.7013 79.4187 25.204C80.268 25.6893 81.2387 25.932 82.3307 25.932ZM93.329 19.9C93.329 18.1147 93.7277 16.52 94.525 15.116C95.3397 13.6947 96.4404 12.594 97.827 11.814C99.231 11.0167 100.8 10.618 102.533 10.618C104.561 10.618 106.338 11.138 107.863 12.178C109.388 13.218 110.454 14.6567 111.061 16.494H106.875C106.459 15.6273 105.87 14.9773 105.107 14.544C104.362 14.1107 103.495 13.894 102.507 13.894C101.45 13.894 100.505 14.1453 99.673 14.648C98.8584 15.1333 98.217 15.8267 97.749 16.728C97.2984 17.6293 97.073 18.6867 97.073 19.9C97.073 21.096 97.2984 22.1533 97.749 23.072C98.217 23.9733 98.8584 24.6753 99.673 25.178C100.505 25.6633 101.45 25.906 102.507 25.906C103.495 25.906 104.362 25.6893 105.107 25.256C105.87 24.8053 106.459 24.1467 106.875 23.28H111.061C110.454 25.1347 109.388 26.582 107.863 27.622C106.355 28.6447 104.578 29.156 102.533 29.156C100.8 29.156 99.231 28.766 97.827 27.986C96.4404 27.1887 95.3397 26.088 94.525 24.684C93.7277 23.28 93.329 21.6853 93.329 19.9ZM124.306 29L117.702 20.914V29H114.062V10.852H117.702V18.99L124.306 10.852H128.7L121.212 19.848L128.908 29H124.306ZM140.922 13.79V18.34H147.032V21.226H140.922V26.036H147.812V29H137.282V10.826H147.812V13.79H140.922ZM166.535 29H162.895L154.653 16.546V29H151.013V10.826H154.653L162.895 23.306V10.826H166.535V29ZM182.66 16.312C182.244 15.5493 181.672 14.9687 180.944 14.57C180.216 14.1713 179.367 13.972 178.396 13.972C177.321 13.972 176.368 14.2147 175.536 14.7C174.704 15.1853 174.054 15.8787 173.586 16.78C173.118 17.6813 172.884 18.7213 172.884 19.9C172.884 21.1133 173.118 22.1707 173.586 23.072C174.071 23.9733 174.739 24.6667 175.588 25.152C176.437 25.6373 177.425 25.88 178.552 25.88C179.939 25.88 181.074 25.516 181.958 24.788C182.842 24.0427 183.423 23.0113 183.7 21.694H177.46V18.912H187.288V22.084C187.045 23.3493 186.525 24.5193 185.728 25.594C184.931 26.6687 183.899 27.5353 182.634 28.194C181.386 28.8353 179.982 29.156 178.422 29.156C176.671 29.156 175.085 28.766 173.664 27.986C172.26 27.1887 171.151 26.088 170.336 24.684C169.539 23.28 169.14 21.6853 169.14 19.9C169.14 18.1147 169.539 16.52 170.336 15.116C171.151 13.6947 172.26 12.594 173.664 11.814C175.085 11.0167 176.663 10.618 178.396 10.618C180.441 10.618 182.218 11.1207 183.726 12.126C185.234 13.114 186.274 14.5093 186.846 16.312H182.66ZM193.513 26.114H199.493V29H189.873V10.852H193.513V26.114ZM205.339 10.852V29H201.699V10.852H205.339ZM215.094 29.182C213.829 29.182 212.685 28.9653 211.662 28.532C210.657 28.0987 209.859 27.4747 209.27 26.66C208.681 25.8453 208.377 24.8833 208.36 23.774H212.26C212.312 24.5193 212.572 25.1087 213.04 25.542C213.525 25.9753 214.184 26.192 215.016 26.192C215.865 26.192 216.533 25.9927 217.018 25.594C217.503 25.178 217.746 24.6407 217.746 23.982C217.746 23.4447 217.581 23.0027 217.252 22.656C216.923 22.3093 216.507 22.0407 216.004 21.85C215.519 21.642 214.843 21.4167 213.976 21.174C212.797 20.8273 211.835 20.4893 211.09 20.16C210.362 19.8133 209.729 19.302 209.192 18.626C208.672 17.9327 208.412 17.014 208.412 15.87C208.412 14.7953 208.681 13.8593 209.218 13.062C209.755 12.2647 210.509 11.658 211.48 11.242C212.451 10.8087 213.56 10.592 214.808 10.592C216.68 10.592 218.197 11.0513 219.358 11.97C220.537 12.8713 221.187 14.1367 221.308 15.766H217.304C217.269 15.142 217.001 14.6307 216.498 14.232C216.013 13.816 215.363 13.608 214.548 13.608C213.837 13.608 213.265 13.79 212.832 14.154C212.416 14.518 212.208 15.0467 212.208 15.74C212.208 16.2253 212.364 16.6327 212.676 16.962C213.005 17.274 213.404 17.534 213.872 17.742C214.357 17.9327 215.033 18.158 215.9 18.418C217.079 18.7647 218.041 19.1113 218.786 19.458C219.531 19.8047 220.173 20.3247 220.71 21.018C221.247 21.7113 221.516 22.6213 221.516 23.748C221.516 24.7187 221.265 25.62 220.762 26.452C220.259 27.284 219.523 27.9513 218.552 28.454C217.581 28.9393 216.429 29.182 215.094 29.182ZM239.618 10.852V29H235.978V21.278H228.204V29H224.564V10.852H228.204V18.314H235.978V10.852H239.618Z" fill="black"/>
</svg>
