<svg width="34" height="34" viewBox="0 0 34 34" fill="none" xmlns="http://www.w3.org/2000/svg">
<path d="M17 0C26.3891 0 34 7.6109 34 17C34 26.3891 26.3891 34 17 34C7.6109 34 0 26.3891 0 17C0 7.6109 7.6109 0 17 0ZM17 6.8C16.5491 6.8 16.1167 6.97911 15.7979 7.29792C15.4791 7.61673 15.3 8.04913 15.3 8.5V17C15.3001 17.4508 15.4793 17.8832 15.7981 18.2019L20.8981 23.3019C21.2187 23.6116 21.6481 23.7829 22.0939 23.779C22.5396 23.7752 22.966 23.5964 23.2812 23.2812C23.5964 22.966 23.7752 22.5396 23.779 22.0939C23.7829 21.6481 23.6116 21.2187 23.3019 20.8981L18.7 16.2962V8.5C18.7 8.04913 18.5209 7.61673 18.2021 7.29792C17.8833 6.97911 17.4509 6.8 17 6.8Z" fill="#4E4E4E"/>
</svg>
