<svg width="32" height="32" viewBox="0 0 32 32" fill="none" xmlns="http://www.w3.org/2000/svg">
<path d="M20.6215 6.81004C19.173 5.65782 17.8207 4.58201 16.9227 3.39559C16.3239 2.60439 15.1866 2.32932 14.7499 3.22032C13.451 5.8706 12.7295 9.76551 12.5 11.969C12.4244 12.6954 12.03 12.664 11.8055 11.969C11.4499 10.8681 11.2351 9.97576 11.1658 8.57539C11.1186 7.62232 10.1931 7.04119 9.49868 7.69569C7.60403 9.48148 5.55469 13.2111 5.55469 18.2201C5.55469 24.3574 10.53 29.3327 16.6672 29.3327C22.8045 29.3327 27.7798 24.3574 27.7798 18.2201C27.7798 12.5043 23.9474 9.45573 20.6215 6.81004Z" fill="#B132FE"/>
<path d="M18.6447 15.9955C17.9205 15.4553 17.2443 14.951 16.7954 14.3948C16.496 14.0238 15.9273 13.8949 15.709 14.3126C15.0595 15.5551 14.6987 17.3811 14.584 18.4141C14.5462 18.7546 14.002 18.666 14.002 18.666C14.002 18.666 13.5368 18.4016 13.5022 17.7451C13.4786 17.2983 13.0158 17.0258 12.6686 17.3327C11.7213 18.1699 11.1113 18.9964 11.1113 21.3447C11.1113 24.2219 13.599 26.5544 16.6676 26.5544C19.7363 26.5544 22.2239 24.2219 22.2239 21.3447C22.2239 18.665 20.3077 17.2358 18.6447 15.9955Z" fill="#E0ADFF"/>
</svg>
