<svg width="34" height="38" viewBox="0 0 34 38" fill="none" xmlns="http://www.w3.org/2000/svg">
<path fill-rule="evenodd" clip-rule="evenodd" d="M18.8158 0.579629C18.702 0.424349 18.5586 0.294011 18.3942 0.196397C18.2298 0.0987826 18.0477 0.0358947 17.8589 0.0114879C17.6701 -0.0129189 17.4784 0.00165579 17.2952 0.0543421C17.112 0.107028 16.9412 0.196746 16.7928 0.318137C13.1726 3.27616 10.7847 7.51796 10.1081 12.193C8.86852 11.2758 7.78124 10.1626 6.8875 8.89547C6.76629 8.72301 6.60921 8.57987 6.42744 8.47627C6.24567 8.37267 6.0437 8.31115 5.8359 8.2961C5.62811 8.28104 5.41961 8.31282 5.22526 8.38917C5.03091 8.46552 4.85549 8.58456 4.7115 8.73781C2.21689 11.3942 0.617805 14.79 0.145889 18.4333C-0.326026 22.0766 0.353731 25.7782 2.0867 29.002C3.81966 32.2258 6.51584 34.8043 9.78469 36.364C13.0535 37.9237 16.7253 38.3837 20.2681 37.6772C23.8109 36.9708 27.0408 35.1346 29.4899 32.4347C31.939 29.7348 33.4801 26.3113 33.89 22.6602C34.3 19.0092 33.5574 15.32 31.7699 12.1273C29.9824 8.93449 27.2428 6.40386 23.9479 4.90195C21.9225 3.89937 20.1626 2.41719 18.8158 0.579629ZM24.0801 23.5833C24.0794 24.6262 23.8565 25.6566 23.4266 26.6033C22.9967 27.5501 22.3702 28.3906 21.5903 29.0669C20.8103 29.7433 19.8955 30.2393 18.909 30.5209C17.9224 30.8024 16.8876 30.8628 15.8759 30.6977C14.8643 30.5327 13.8998 30.1462 13.0491 29.5649C12.1984 28.9837 11.4817 28.2214 10.9484 27.3309C10.4152 26.4403 10.0781 25.4426 9.96039 24.4065C9.84269 23.3705 9.94721 22.3208 10.2667 21.3298C11.4529 22.2239 12.8167 22.8872 14.2957 23.2526C14.6982 20.6208 15.9829 18.2118 17.9318 16.4345C19.6337 16.6652 21.1954 17.5173 22.3263 18.8323C23.4573 20.1472 24.0805 21.8356 24.0801 23.5833Z" fill="#4E4E4E"/>
</svg>
