<svg width="32" height="32" viewBox="0 0 32 32" fill="none" xmlns="http://www.w3.org/2000/svg">
<path fill-rule="evenodd" clip-rule="evenodd" d="M16.0007 29.3333C22.9963 29.3333 28.6673 23.6623 28.6673 16.6667C28.6673 9.67106 22.9963 4 16.0007 4C9.00504 4 3.33398 9.67106 3.33398 16.6667C3.33398 23.6623 9.00504 29.3333 16.0007 29.3333ZM17.4081 9.62963C17.4081 8.85234 16.7779 8.22222 16.0007 8.22222C15.2234 8.22222 14.5932 8.85234 14.5932 9.62963V17.2496L18.524 21.1804C19.0736 21.73 19.9647 21.73 20.5144 21.1804C21.064 20.6307 21.064 19.7396 20.5144 19.19L17.4081 16.0837V9.62963Z" fill="#B132FE"/>
</svg>
