<svg width="72" height="72" viewBox="0 0 72 72" fill="none" xmlns="http://www.w3.org/2000/svg">
<circle cx="36" cy="36" r="36" fill="#D9D9D9"/>
<path d="M44.7849 29.1049C44.7849 30.8188 46.1753 32.2085 47.8921 32.2085C49.609 32.2085 51 30.8188 51 29.1049C51 27.3904 49.609 26 47.8921 26C46.176 26 44.7849 27.3897 44.7849 29.1049Z" fill="white"/>
<path d="M22.7716 46H49.6635C50.3987 46 50.6583 45.34 50.2406 44.7344L40.4338 30.3491C40.0147 29.7436 39.2906 29.7153 38.8239 30.2829L35.0526 34.8734C34.5846 35.4417 33.7783 35.4893 33.2599 34.9665L31.6893 33.4044C31.1709 32.8816 30.4005 32.9892 29.9773 33.5906L22.2049 44.74C21.781 45.3427 22.0364 46 22.7716 46Z" fill="white"/>
</svg>
