<svg width="180" height="206" viewBox="0 0 180 206" fill="none" xmlns="http://www.w3.org/2000/svg">
<rect width="180" height="206" rx="16" fill="#777777"/>
<path d="M56.0138 95.4545V110H54.2525V97.3011H54.1673L50.6161 99.6591V97.8693L54.2525 95.4545H56.0138ZM64.8562 110.199C63.8808 110.199 63.0191 110.026 62.271 109.68C61.5276 109.33 60.9476 108.849 60.5309 108.239C60.1142 107.623 59.9083 106.922 59.913 106.136C59.9083 105.521 60.029 104.953 60.2752 104.432C60.5214 103.906 60.8576 103.468 61.2837 103.118C61.7146 102.763 62.1952 102.538 62.7255 102.443V102.358C62.0295 102.178 61.4755 101.787 61.0636 101.186C60.6516 100.58 60.448 99.8911 60.4528 99.1193C60.448 98.3807 60.6351 97.7202 61.0138 97.1378C61.3926 96.5554 61.9135 96.0961 62.5763 95.7599C63.244 95.4238 64.0039 95.2557 64.8562 95.2557C65.699 95.2557 66.4518 95.4238 67.1147 95.7599C67.7776 96.0961 68.2984 96.5554 68.6772 97.1378C69.0607 97.7202 69.2549 98.3807 69.2596 99.1193C69.2549 99.8911 69.0442 100.58 68.6275 101.186C68.2156 101.787 67.6687 102.178 66.9869 102.358V102.443C67.5124 102.538 67.9859 102.763 68.4073 103.118C68.8287 103.468 69.1649 103.906 69.4158 104.432C69.6668 104.953 69.7946 105.521 69.7994 106.136C69.7946 106.922 69.5816 107.623 69.1602 108.239C68.7435 108.849 68.1635 109.33 67.4201 109.68C66.6815 110.026 65.8268 110.199 64.8562 110.199ZM64.8562 108.636C65.5143 108.636 66.0825 108.53 66.5607 108.317C67.0389 108.104 67.4083 107.803 67.6687 107.415C67.9291 107.027 68.0617 106.572 68.0664 106.051C68.0617 105.502 67.9196 105.017 67.6403 104.595C67.3609 104.174 66.9798 103.842 66.4968 103.601C66.0186 103.359 65.4717 103.239 64.8562 103.239C64.2359 103.239 63.6819 103.359 63.1942 103.601C62.7113 103.842 62.3301 104.174 62.0508 104.595C61.7762 105.017 61.6412 105.502 61.646 106.051C61.6412 106.572 61.7667 107.027 62.0224 107.415C62.2828 107.803 62.6545 108.104 63.1374 108.317C63.6204 108.53 64.1933 108.636 64.8562 108.636ZM64.8562 101.733C65.377 101.733 65.8387 101.629 66.2411 101.42C66.6483 101.212 66.9679 100.921 67.1999 100.547C67.4319 100.173 67.5503 99.7348 67.555 99.233C67.5503 98.7405 67.4343 98.312 67.207 97.9474C66.9798 97.5781 66.6649 97.294 66.2624 97.0952C65.86 96.8916 65.3912 96.7898 64.8562 96.7898C64.3117 96.7898 63.8358 96.8916 63.4286 97.0952C63.0214 97.294 62.7066 97.5781 62.484 97.9474C62.2615 98.312 62.1526 98.7405 62.1573 99.233C62.1526 99.7348 62.2638 100.173 62.4911 100.547C62.7231 100.921 63.0427 101.212 63.4499 101.42C63.8571 101.629 64.3259 101.733 64.8562 101.733ZM77.2656 110.199C76.1955 110.199 75.2841 109.908 74.5312 109.325C73.7784 108.738 73.2031 107.888 72.8054 106.776C72.4077 105.658 72.2088 104.309 72.2088 102.727C72.2088 101.155 72.4077 99.813 72.8054 98.7003C73.2079 97.5829 73.7855 96.7306 74.5384 96.1435C75.2959 95.5516 76.205 95.2557 77.2656 95.2557C78.3262 95.2557 79.233 95.5516 79.9858 96.1435C80.7434 96.7306 81.321 97.5829 81.7188 98.7003C82.1212 99.813 82.3224 101.155 82.3224 102.727C82.3224 104.309 82.1236 105.658 81.7259 106.776C81.3281 107.888 80.7528 108.738 80 109.325C79.2472 109.908 78.3357 110.199 77.2656 110.199ZM77.2656 108.636C78.3262 108.636 79.1501 108.125 79.7372 107.102C80.3243 106.08 80.6179 104.621 80.6179 102.727C80.6179 101.468 80.483 100.395 80.2131 99.5099C79.9479 98.6245 79.5644 97.9498 79.0625 97.4858C78.5653 97.0218 77.9664 96.7898 77.2656 96.7898C76.2145 96.7898 75.393 97.3082 74.8011 98.3452C74.2093 99.3774 73.9134 100.838 73.9134 102.727C73.9134 103.987 74.0459 105.057 74.3111 105.938C74.5762 106.818 74.9574 107.488 75.4545 107.947C75.9564 108.407 76.5601 108.636 77.2656 108.636ZM87.8338 106.818L87.9474 103.693L85.3054 105.369L84.6236 104.176L87.4077 102.727L84.6236 101.278L85.3054 100.085L87.9474 101.761L87.8338 98.6364H89.1974L89.0838 101.761L91.7259 100.085L92.4077 101.278L89.6236 102.727L92.4077 104.176L91.7259 105.369L89.0838 103.693L89.1974 106.818H87.8338ZM95.0213 110V108.722L99.8224 103.466C100.386 102.85 100.85 102.315 101.214 101.861C101.579 101.402 101.849 100.971 102.024 100.568C102.204 100.161 102.294 99.7348 102.294 99.2898C102.294 98.7784 102.171 98.3357 101.925 97.9616C101.683 97.5876 101.352 97.2988 100.93 97.0952C100.509 96.8916 100.036 96.7898 99.5099 96.7898C98.9512 96.7898 98.4635 96.9058 98.0469 97.1378C97.6349 97.3651 97.3153 97.6847 97.0881 98.0966C96.8655 98.5085 96.7543 98.9915 96.7543 99.5455H95.0781C95.0781 98.6932 95.2746 97.9451 95.6676 97.3011C96.0606 96.6572 96.5956 96.1553 97.2727 95.7955C97.9545 95.4356 98.7192 95.2557 99.5668 95.2557C100.419 95.2557 101.174 95.4356 101.832 95.7955C102.491 96.1553 103.007 96.6406 103.381 97.2514C103.755 97.8622 103.942 98.5417 103.942 99.2898C103.942 99.8248 103.845 100.348 103.651 100.859C103.461 101.366 103.13 101.932 102.656 102.557C102.188 103.177 101.536 103.935 100.703 104.83L97.4361 108.324V108.438H104.197V110H95.0213ZM111.875 110.199C110.805 110.199 109.893 109.908 109.141 109.325C108.388 108.738 107.813 107.888 107.415 106.776C107.017 105.658 106.818 104.309 106.818 102.727C106.818 101.155 107.017 99.813 107.415 98.7003C107.817 97.5829 108.395 96.7306 109.148 96.1435C109.905 95.5516 110.814 95.2557 111.875 95.2557C112.936 95.2557 113.842 95.5516 114.595 96.1435C115.353 96.7306 115.93 97.5829 116.328 98.7003C116.731 99.813 116.932 101.155 116.932 102.727C116.932 104.309 116.733 105.658 116.335 106.776C115.938 107.888 115.362 108.738 114.609 109.325C113.857 109.908 112.945 110.199 111.875 110.199ZM111.875 108.636C112.936 108.636 113.759 108.125 114.347 107.102C114.934 106.08 115.227 104.621 115.227 102.727C115.227 101.468 115.092 100.395 114.822 99.5099C114.557 98.6245 114.174 97.9498 113.672 97.4858C113.175 97.0218 112.576 96.7898 111.875 96.7898C110.824 96.7898 110.002 97.3082 109.411 98.3452C108.819 99.3774 108.523 100.838 108.523 102.727C108.523 103.987 108.655 105.057 108.92 105.938C109.186 106.818 109.567 107.488 110.064 107.947C110.566 108.407 111.17 108.636 111.875 108.636ZM124.46 110.199C123.864 110.189 123.267 110.076 122.67 109.858C122.074 109.64 121.529 109.273 121.037 108.757C120.545 108.236 120.149 107.533 119.851 106.648C119.553 105.758 119.403 104.64 119.403 103.295C119.403 102.008 119.524 100.866 119.766 99.8722C120.007 98.8731 120.357 98.0327 120.817 97.3509C121.276 96.6643 121.83 96.1435 122.479 95.7884C123.132 95.4332 123.868 95.2557 124.688 95.2557C125.502 95.2557 126.226 95.419 126.861 95.7457C127.5 96.0677 128.021 96.5175 128.423 97.0952C128.826 97.6728 129.086 98.3381 129.205 99.0909H127.472C127.311 98.4375 126.998 97.8954 126.534 97.4645C126.07 97.0336 125.455 96.8182 124.688 96.8182C123.561 96.8182 122.673 97.3082 122.024 98.2884C121.38 99.2685 121.056 100.644 121.051 102.415H121.165C121.43 102.012 121.745 101.669 122.109 101.385C122.479 101.096 122.886 100.874 123.331 100.717C123.776 100.561 124.247 100.483 124.744 100.483C125.578 100.483 126.34 100.691 127.031 101.108C127.723 101.52 128.277 102.09 128.693 102.82C129.11 103.544 129.318 104.375 129.318 105.312C129.318 106.212 129.117 107.036 128.714 107.784C128.312 108.527 127.746 109.119 127.017 109.56C126.293 109.995 125.44 110.208 124.46 110.199ZM124.46 108.636C125.057 108.636 125.592 108.487 126.065 108.189C126.544 107.891 126.92 107.491 127.195 106.989C127.474 106.487 127.614 105.928 127.614 105.312C127.614 104.711 127.479 104.164 127.209 103.672C126.944 103.175 126.577 102.779 126.108 102.486C125.644 102.192 125.114 102.045 124.517 102.045C124.067 102.045 123.648 102.135 123.26 102.315C122.872 102.491 122.531 102.732 122.237 103.04C121.948 103.348 121.721 103.7 121.555 104.098C121.39 104.491 121.307 104.905 121.307 105.341C121.307 105.919 121.442 106.458 121.712 106.96C121.986 107.462 122.36 107.867 122.834 108.175C123.312 108.482 123.854 108.636 124.46 108.636Z" fill="black"/>
</svg>
