<svg width="231" height="207" viewBox="0 0 231 207" fill="none" xmlns="http://www.w3.org/2000/svg">
<rect x="16.5" width="214" height="207" rx="8" fill="#93E54C"/>
<path d="M41.2241 29.6393V37.4559C43.7069 39.3757 50.4931 42.0635 57.7759 37.4559V30.4621M38.7414 29.001L49.5 34.1647L61.5 28.4051L49.5 21L37.5 28.4051L38.7414 29.001ZM38.7414 29.001V34.1647M38.7414 34.9875V36.6331" stroke="white" stroke-width="1.4" stroke-linejoin="round"/>
<path d="M41.999 54.0615V67.3037H40.3584V54.0615H41.999ZM38.0439 55.4678C38.0439 59.4082 36.5205 62.7627 31.877 64.96L31.0273 63.6562C34.4917 62.0083 36.103 59.7671 36.3887 56.7568H31.7012V55.4678H38.0439ZM47.082 54.5596V55.9951H52.7949V54.5596H54.4062V59.9355H50.7441V61.1514H55.9736V62.4697H43.9033V61.1514H49.1035V59.9355H45.4707V54.5596H47.082ZM47.082 58.6318H52.7949V57.2549H47.082V58.6318ZM54.6113 65.7217V67.04H45.3975V63.3193H47.0234V65.7217H54.6113ZM72.5117 60.6826V61.9863H67.3994V64.418H65.7881V61.9863H60.4121V60.6826H72.5117ZM70.959 54.6621V59.4521H61.9502V54.6621H70.959ZM63.5322 55.9365V58.1777H69.3477V55.9365H63.5322ZM71.1787 65.7217V67.04H61.877V63.2021H63.5029V65.7217H71.1787ZM84.7871 54.0615V67.3037H83.2344V54.0615H84.7871ZM82.0918 54.3105V66.6592H80.5537V59.9941H78.6494V58.6758H80.5537V54.3105H82.0918ZM77.4775 57.6797C77.4775 59.9209 78.2832 62.1621 80.1729 63.2461L79.2061 64.4473C77.9829 63.7148 77.1699 62.4551 76.7158 60.9463C76.2471 62.5796 75.4048 63.9712 74.1523 64.7549L73.1562 63.5391C75.0752 62.3818 75.9102 59.9795 75.9102 57.6797V56.8008H73.6104V55.4824H79.6162V56.8008H77.4775V57.6797Z" fill="white"/>
<path d="M0.5 35C0.5 30.5817 4.08172 27 8.5 27H16.5V180H8.5C4.08172 180 0.5 176.418 0.5 172V35Z" fill="#93E54C"/>
</svg>
