<svg width="206" height="207" viewBox="0 0 206 207" fill="none" xmlns="http://www.w3.org/2000/svg">
<rect x="0.5" width="205" height="207" rx="8" fill="#FF6699"/>
<path d="M22.2241 29.6393V37.4559C24.7069 39.3757 31.4931 42.0635 38.7759 37.4559V30.4621M19.7414 29.001L30.5 34.1647L42.5 28.4051L30.5 21L18.5 28.4051L19.7414 29.001ZM19.7414 29.001V34.1647M19.7414 34.9875V36.6331" stroke="white" stroke-width="1.4" stroke-linejoin="round"/>
<path d="M26.3066 54.0615V67.3037H24.7393V60.6094H23.2744V66.6299H21.751V54.3105H23.2744V59.2764H24.7393V54.0615H26.3066ZM17.1514 55.585V62.5723C18.2939 62.5503 19.5464 62.4551 20.9307 62.1768L21.0918 63.5977C19.3047 63.9199 17.7959 64.0078 16.3896 64.0078H15.5107V55.585H17.1514ZM39.3291 55.3359V56.625H31.4775V55.3359H34.5977V54.0029H36.2236V55.3359H39.3291ZM35.4033 57.1377C37.3223 57.1377 38.626 58.1045 38.6406 59.5547C38.626 61.0049 37.3223 61.9717 35.4033 61.9717C33.4844 61.9717 32.1514 61.0049 32.1514 59.5547C32.1514 58.1045 33.4844 57.1377 35.4033 57.1377ZM35.4033 58.3682C34.3926 58.3682 33.7334 58.8076 33.7334 59.5547C33.7334 60.3018 34.3926 60.7266 35.4033 60.7119C36.4141 60.7266 37.0879 60.3018 37.0879 59.5547C37.0879 58.8076 36.4141 58.3682 35.4033 58.3682ZM41.9072 54.0615V57.5771H43.7529V58.9102H41.9072V62.3525H40.2812V54.0615H41.9072ZM41.9072 62.9678V67.3037H40.2812V64.2715H33.0889V62.9678H41.9072ZM47.4883 62.001V63.2607H53.3184V62.001H54.9443V67.1426H45.877V62.001H47.4883ZM47.4883 65.8535H53.3184V64.5059H47.4883V65.8535ZM56.4971 59.9209V61.2539H44.4268V59.9209H56.4971ZM51.2969 54.7061C51.2969 56.127 53.1133 57.6211 55.8525 57.9434L55.2812 59.2324C53.062 58.9321 51.3115 57.9507 50.4619 56.6104C49.605 57.958 47.8472 58.9321 45.6426 59.2324L45.042 57.9434C47.8105 57.6064 49.6123 56.1709 49.627 54.7061V54.208H51.2969V54.7061ZM71.4385 54.0762V57.9287H73.2256V59.2764H71.4385V63.0264H69.8125V54.0762H71.4385ZM60.833 61.4443C61.8291 61.4443 62.979 61.437 64.1729 61.4004V60.5947C62.7007 60.4116 61.7705 59.7012 61.7705 58.6611C61.7705 57.4453 63.0449 56.6836 64.9639 56.6982C66.8975 56.6836 68.1572 57.4453 68.1572 58.6611C68.1572 59.6938 67.249 60.397 65.7988 60.5801V61.3418C66.9268 61.2905 68.062 61.2026 69.124 61.0635L69.2559 62.1914C66.4287 62.6895 63.3379 62.7188 61.0088 62.7188L60.833 61.4443ZM71.4385 63.5977V67.3037H69.8125V64.8721H62.5029V63.5977H71.4385ZM68.7725 55.1162V56.3174H61.1699V55.1162H64.1729V53.959H65.7988V55.1162H68.7725ZM64.9639 57.7969C63.9385 57.7822 63.3232 58.0898 63.3379 58.6611C63.3232 59.2031 63.9385 59.5547 64.9639 59.54C65.9893 59.5547 66.6045 59.2031 66.6045 58.6611C66.6045 58.0898 65.9893 57.7822 64.9639 57.7969ZM84.9443 54.0762V63.6416H83.3037V54.0762H84.9443ZM85.3105 65.7217V67.04H76.1846V62.6748H77.8252V65.7217H85.3105ZM77.7227 54.9404C79.7295 54.9404 81.2822 56.332 81.2822 58.251C81.2822 60.2139 79.7295 61.5762 77.7227 61.5762C75.7012 61.5762 74.1484 60.2139 74.1484 58.251C74.1484 56.332 75.7012 54.9404 77.7227 54.9404ZM77.7227 56.3613C76.5947 56.3613 75.7305 57.1084 75.7451 58.251C75.7305 59.4229 76.5947 60.1553 77.7227 60.1553C78.8213 60.1553 79.6855 59.4229 79.6855 58.251C79.6855 57.1084 78.8213 56.3613 77.7227 56.3613ZM97.249 54.0615V59.335H99.2852V60.6826H97.249V67.3037H95.6377V54.0615H97.249ZM94.6123 56.0977V57.4014H86.8047V56.0977H89.9395V54.252H91.5654V56.0977H94.6123ZM90.7598 58.2656C92.6641 58.2656 94.085 59.5547 94.085 61.3857C94.085 63.2168 92.6641 64.4912 90.7598 64.4912C88.8262 64.4912 87.4053 63.2168 87.4199 61.3857C87.4053 59.5547 88.8262 58.2656 90.7598 58.2656ZM90.7598 59.5986C89.7197 59.5986 88.9727 60.3018 88.9727 61.3857C88.9727 62.4697 89.7197 63.1582 90.7598 63.1436C91.7705 63.1582 92.5176 62.4697 92.5322 61.3857C92.5176 60.3018 91.7705 59.5986 90.7598 59.5986ZM110.901 54.0615V67.3037H109.261V54.0615H110.901ZM106.946 55.4678C106.946 59.4082 105.423 62.7627 100.779 64.96L99.9297 63.6562C103.394 62.0083 105.005 59.7671 105.291 56.7568H100.604V55.4678H106.946Z" fill="white"/>
</svg>
