<svg width="206" height="207" viewBox="0 0 206 207" fill="none" xmlns="http://www.w3.org/2000/svg">
<rect x="0.5" width="205" height="207" rx="8" fill="#B132FE"/>
<path d="M32.9 37.2C32.9 38.88 32.9 39.72 33.2276 40.362C33.5152 40.9261 33.9739 41.3848 34.538 41.6724C35.18 42 36.02 42 37.7 42C39.38 42 40.22 42 40.862 41.6724C41.4261 41.3848 41.8848 40.9261 42.1724 40.362C42.5 39.72 42.5 38.88 42.5 37.2C42.5 35.52 42.5 34.68 42.1724 34.038C41.8848 33.4739 41.4261 33.0152 40.862 32.7276C40.22 32.4 39.38 32.4 37.7 32.4M32.9 37.2C32.9 35.52 32.9 34.68 33.2276 34.038C33.5152 33.4739 33.9739 33.0152 34.538 32.7276C35.18 32.4 36.02 32.4 37.7 32.4M32.9 37.2C32.9 38.88 32.9 39.72 32.5724 40.362C32.2848 40.9261 31.8261 41.3848 31.262 41.6724C30.62 42 29.78 42 28.1 42C26.42 42 25.58 42 24.938 41.6724C24.3734 41.385 23.9143 40.9263 23.6264 40.362C23.3 39.72 23.3 38.88 23.3 37.2C23.3 35.52 23.3 34.68 23.6264 34.038C23.9143 33.4737 24.3734 33.015 24.938 32.7276C25.58 32.4 26.42 32.4 28.1 32.4C29.78 32.4 30.62 32.4 31.262 32.7276C31.8261 33.0152 32.2848 33.4739 32.5724 34.038C32.9 34.68 32.9 35.52 32.9 37.2ZM37.7 32.4C39.38 32.4 40.22 32.4 40.862 32.0724C41.4261 31.7848 41.8848 31.3261 42.1724 30.762C42.5 30.12 42.5 29.28 42.5 27.6C42.5 25.92 42.5 25.08 42.1724 24.438C41.885 23.8734 41.4263 23.4143 40.862 23.1264C40.22 22.8 39.38 22.8 37.7 22.8C36.02 22.8 35.18 22.8 34.538 23.1264C33.9737 23.4143 33.515 23.8734 33.2276 24.438C32.9 25.08 32.9 25.92 32.9 27.6C32.9 29.28 32.9 30.12 33.2276 30.762C33.5152 31.3261 33.9739 31.7848 34.538 32.0724C35.18 32.4 36.02 32.4 37.7 32.4ZM28.1 22.8C28.1 24.48 28.1 25.32 27.7736 25.962C27.4859 26.5268 27.0268 26.9859 26.462 27.2736C25.82 27.6 24.98 27.6 23.3 27.6C21.62 27.6 20.78 27.6 20.138 27.2736C19.5732 26.9859 19.1141 26.5268 18.8264 25.962C18.5 25.32 18.5 24.48 18.5 22.8C18.5 21.12 18.5 20.28 18.8264 19.638C19.1141 19.0732 19.5732 18.6141 20.138 18.3264C20.78 18 21.62 18 23.3 18C24.98 18 25.82 18 26.462 18.3264C27.0268 18.6141 27.4859 19.0732 27.7736 19.638C28.1 20.28 28.1 21.12 28.1 22.8Z" stroke="white" stroke-width="1.4" stroke-linecap="round" stroke-linejoin="round"/>
<path d="M26.3652 54.0615V67.3037H24.8125V54.0615H26.3652ZM23.5527 54.3838V66.6738H22.0146V60.5801H19.6562C18.8799 62.1035 17.6348 63.4219 15.7598 64.5059L14.8369 63.3486C17.5835 61.73 18.8359 59.6572 19.085 56.9912H15.5107V55.6729H20.6963C20.6963 56.9546 20.5425 58.1558 20.1836 59.2764H22.0146V54.3838H23.5527ZM38.9336 54.0762V61.5762H37.293V54.0762H38.9336ZM38.9336 62.2207V67.1426H30.1445V62.2207H38.9336ZM31.7559 63.5098V65.8242H37.3369V63.5098H31.7559ZM31.7119 54.7061C33.748 54.7061 35.2715 55.9951 35.2715 57.8701C35.2715 59.6865 33.748 61.0049 31.7119 61.0049C29.6611 61.0049 28.1377 59.6865 28.1377 57.8701C28.1377 55.9951 29.6611 54.7061 31.7119 54.7061ZM31.7119 56.083C30.5547 56.083 29.7197 56.7715 29.7344 57.8701C29.7197 58.9395 30.5547 59.6279 31.7119 59.6279C32.8545 59.6279 33.6748 58.9395 33.6748 57.8701C33.6748 56.7715 32.8545 56.083 31.7119 56.083Z" fill="white"/>
</svg>
