<svg width="180" height="206" viewBox="0 0 180 206" fill="none" xmlns="http://www.w3.org/2000/svg">
<rect width="180" height="206" rx="8" fill="#B132FE"/>
<path d="M29.3438 25.4688V26.8438H16.4688V25.4688H22.0312V24.5703C19.5859 24.4297 18.2031 23.6875 18.2031 22.4219C18.2031 21.0234 19.9141 20.2812 22.8906 20.2812C25.8672 20.2812 27.5859 21.0234 27.5938 22.4219C27.5859 23.6875 26.2031 24.4297 23.7656 24.5703V25.4688H29.3438ZM17.1094 19.7969V18.4844H22.0312V17.1719H23.7656V18.4844H28.6406V19.7969H17.1094ZM18.0625 31.1094V27.5781H19.7969V29.7344H27.8906V31.1094H18.0625ZM19.9844 22.4219C19.9688 23.0469 20.9297 23.3438 22.8906 23.3438C24.8516 23.3438 25.8203 23.0469 25.8125 22.4219C25.8203 21.8047 24.8516 21.5 22.8906 21.5C20.9297 21.5 19.9688 21.8047 19.9844 22.4219ZM35.3594 21.2812C35.3516 23.4609 36.6641 25.9453 38.8906 26.9844L37.9219 28.3594C36.3281 27.6094 35.1484 26.0938 34.5156 24.3281C33.875 26.2656 32.6406 27.9219 31.0156 28.7031L30 27.3438C32.25 26.2734 33.6172 23.6328 33.625 21.2812V20.0938H30.5469V18.6562H38.3125V20.0938H35.3594V21.2812ZM39.625 31.3906V17.2656H41.3594V22.7656H43.5312V24.2188H41.3594V31.3906H39.625ZM54.2812 26.0938C57.3516 26.1016 59.2891 27.0703 59.2969 28.75C59.2891 30.3906 57.3516 31.375 54.2812 31.375C51.2422 31.375 49.2812 30.3906 49.2812 28.75C49.2812 27.0703 51.2422 26.1016 54.2812 26.0938ZM47.9531 25.0781V23.6719H52.9219V21.1094H54.6406V23.6719H60.7656V25.0781H47.9531ZM49.4219 19.3125V17.9375H59.2031V19.1094C59.2109 20.2266 59.2109 21.4141 58.8125 22.8594L57.0938 22.7031C57.4453 21.3359 57.4688 20.3359 57.4688 19.3125H49.4219ZM51.0312 28.75C51.0156 29.5781 52.2422 30.0312 54.2812 30.0312C56.3281 30.0312 57.5625 29.5781 57.5781 28.75C57.5625 27.8906 56.3281 27.4062 54.2812 27.4062C52.2422 27.4062 51.0156 27.8906 51.0312 28.75ZM74.6406 25.4844V26.8594H69.0156V31.3906H67.2969V26.8594H61.7344V25.4844H74.6406ZM63.2969 24.0156V17.8281H65.0156V19.5625H71.3281V17.8281H73.0781V24.0156H63.2969ZM65.0156 22.6094H71.3281V20.9375H65.0156V22.6094ZM86.7188 17.2344V20.4219H88.7031V21.8281H86.7188V24.9375H84.9844V17.2344H86.7188ZM75.5938 19.7344V18.4062H78.9219V17.1562H80.6562V18.4062H83.9688V19.7344H75.5938ZM76.3125 22.4844C76.3125 21.0781 77.6953 20.1797 79.7812 20.1719C81.875 20.1797 83.2266 21.0781 83.2344 22.4844C83.2266 23.9297 81.875 24.7969 79.7812 24.7969C77.6953 24.7969 76.3125 23.9297 76.3125 22.4844ZM77.4844 26.8281V25.5625H86.7188V28.9688H79.2188V29.9688H87.1562V31.2656H77.5V27.7656H84.9844V26.8281H77.4844ZM78 22.4844C77.9922 23.1797 78.6875 23.5391 79.7812 23.5469C80.875 23.5391 81.5781 23.1797 81.5781 22.4844C81.5781 21.8125 80.875 21.4141 79.7812 21.4219C78.6875 21.4141 77.9922 21.8125 78 22.4844ZM95.1562 18.7031V23.9688H91.5V26.7188C92.9297 26.7031 94.2969 26.6484 95.875 26.3906L96 27.7969C94.0938 28.1172 92.5469 28.1641 90.7969 28.1719H89.8281V22.5625H93.4844V20.1094H89.8125V18.7031H95.1562ZM96.7188 30.6719V17.5312H98.3125V22.6875H99.9062V17.2656H101.562V31.3906H99.9062V24.0938H98.3125V30.6719H96.7188ZM106.141 18.6875L105.969 26.6719H104.203L104.016 18.6875H106.141ZM103.875 28.9062C103.867 28.25 104.422 27.7109 105.094 27.7031C105.742 27.7109 106.297 28.25 106.297 28.9062C106.297 29.5781 105.742 30.125 105.094 30.125C104.422 30.125 103.867 29.5781 103.875 28.9062Z" fill="white"/>
</svg>
