<svg width="327" height="207" viewBox="0 0 327 207" fill="none" xmlns="http://www.w3.org/2000/svg">
<rect x="0.5" width="326" height="207" rx="8" fill="#B132FE"/>
<path d="M32.9 37.2C32.9 38.88 32.9 39.72 33.2276 40.362C33.5152 40.9261 33.9739 41.3848 34.538 41.6724C35.18 42 36.02 42 37.7 42C39.38 42 40.22 42 40.862 41.6724C41.4261 41.3848 41.8848 40.9261 42.1724 40.362C42.5 39.72 42.5 38.88 42.5 37.2C42.5 35.52 42.5 34.68 42.1724 34.038C41.8848 33.4739 41.4261 33.0152 40.862 32.7276C40.22 32.4 39.38 32.4 37.7 32.4M32.9 37.2C32.9 35.52 32.9 34.68 33.2276 34.038C33.5152 33.4739 33.9739 33.0152 34.538 32.7276C35.18 32.4 36.02 32.4 37.7 32.4M32.9 37.2C32.9 38.88 32.9 39.72 32.5724 40.362C32.2848 40.9261 31.8261 41.3848 31.262 41.6724C30.62 42 29.78 42 28.1 42C26.42 42 25.58 42 24.938 41.6724C24.3734 41.385 23.9143 40.9263 23.6264 40.362C23.3 39.72 23.3 38.88 23.3 37.2C23.3 35.52 23.3 34.68 23.6264 34.038C23.9143 33.4737 24.3734 33.015 24.938 32.7276C25.58 32.4 26.42 32.4 28.1 32.4C29.78 32.4 30.62 32.4 31.262 32.7276C31.8261 33.0152 32.2848 33.4739 32.5724 34.038C32.9 34.68 32.9 35.52 32.9 37.2ZM37.7 32.4C39.38 32.4 40.22 32.4 40.862 32.0724C41.4261 31.7848 41.8848 31.3261 42.1724 30.762C42.5 30.12 42.5 29.28 42.5 27.6C42.5 25.92 42.5 25.08 42.1724 24.438C41.885 23.8734 41.4263 23.4143 40.862 23.1264C40.22 22.8 39.38 22.8 37.7 22.8C36.02 22.8 35.18 22.8 34.538 23.1264C33.9737 23.4143 33.515 23.8734 33.2276 24.438C32.9 25.08 32.9 25.92 32.9 27.6C32.9 29.28 32.9 30.12 33.2276 30.762C33.5152 31.3261 33.9739 31.7848 34.538 32.0724C35.18 32.4 36.02 32.4 37.7 32.4ZM28.1 22.8C28.1 24.48 28.1 25.32 27.7736 25.962C27.4859 26.5268 27.0268 26.9859 26.462 27.2736C25.82 27.6 24.98 27.6 23.3 27.6C21.62 27.6 20.78 27.6 20.138 27.2736C19.5732 26.9859 19.1141 26.5268 18.8264 25.962C18.5 25.32 18.5 24.48 18.5 22.8C18.5 21.12 18.5 20.28 18.8264 19.638C19.1141 19.0732 19.5732 18.6141 20.138 18.3264C20.78 18 21.62 18 23.3 18C24.98 18 25.82 18 26.462 18.3264C27.0268 18.6141 27.4859 19.0732 27.7736 19.638C28.1 20.28 28.1 21.12 28.1 22.8Z" stroke="white" stroke-width="1.4" stroke-linecap="round" stroke-linejoin="round"/>
<path d="M26.3652 54.0615V67.3037H24.8125V54.0615H26.3652ZM14.8369 63.3486C17.5762 61.73 18.8359 59.6572 19.085 56.9912H15.5107V55.6729H20.6963C20.6963 56.9546 20.5352 58.1558 20.1763 59.2764H22.0146V54.3838H23.5527V66.6738H22.0146V60.5801H19.6416C18.8726 62.0962 17.6274 63.4219 15.7598 64.5059L14.8369 63.3486ZM38.9336 54.0762V61.5762H37.293V54.0762H38.9336ZM28.1377 57.8701C28.1377 56.0024 29.6611 54.7134 31.7119 54.7061C33.7554 54.7134 35.2788 56.0024 35.2715 57.8701C35.2788 59.6938 33.7554 61.0049 31.7119 61.0049C29.6611 61.0049 28.1377 59.6938 28.1377 57.8701ZM29.7344 57.8701C29.7271 58.9395 30.5547 59.6353 31.7119 59.6279C32.8472 59.6353 33.6748 58.9395 33.6748 57.8701C33.6748 56.7715 32.8472 56.083 31.7119 56.083C30.5547 56.083 29.7271 56.7715 29.7344 57.8701ZM30.1445 67.1426V62.2207H38.9336V67.1426H30.1445ZM31.7559 65.8242H37.3369V63.5098H31.7559V65.8242ZM48.5576 56.5225C48.5649 57.9507 49.3999 59.3936 51.1357 60.0527L50.2715 61.2979C49.0923 60.8511 48.272 60.0015 47.7959 58.9761C47.3125 60.1553 46.4482 61.166 45.1885 61.6934L44.3096 60.4482C46.1333 59.6426 46.9829 57.9873 46.9902 56.5225V54.8818H48.5576V56.5225ZM46.7412 64.8428C46.7339 63.3193 48.4917 62.4111 51.2822 62.4111C54.0508 62.4111 55.8159 63.3193 55.8232 64.8428C55.8159 66.3735 54.0508 67.2891 51.2822 67.2891C48.4917 67.2891 46.7339 66.3735 46.7412 64.8428ZM48.3672 64.8428C48.3599 65.6265 49.4438 66.0513 51.2822 66.0439C53.0913 66.0513 54.1753 65.6265 54.1826 64.8428C54.1753 64.0664 53.0913 63.6416 51.2822 63.6416C49.4438 63.6416 48.3599 64.0664 48.3672 64.8428ZM51.3555 61.7812V54.3252H52.8789V57.416H54.1973V54.0762H55.75V62.1914H54.1973V58.749H52.8789V61.7812H51.3555ZM62.2393 55.9658C62.2319 57.7676 63.2866 59.4155 65.3594 60.0674L64.4805 61.3418C63.0376 60.8291 62.0269 59.8623 61.4629 58.6099C60.877 60.0527 59.771 61.188 58.167 61.752L57.3027 60.4336C59.4927 59.7158 60.5913 57.9507 60.5986 56.0391V54.7793H62.2393V55.9658ZM59.5 64.7549C59.4854 63.1436 61.2065 62.1987 63.9971 62.2061C66.8022 62.1987 68.5161 63.1436 68.5234 64.7549C68.5161 66.3662 66.8022 67.2891 63.9971 67.2891C61.2065 67.2891 59.4854 66.3662 59.5 64.7549ZM61.1113 64.7549C61.104 65.5605 62.1587 66.0073 63.9971 66.0146C65.8501 66.0073 66.8975 65.5605 66.8975 64.7549C66.8975 63.9199 65.8501 63.4731 63.9971 63.4658C62.1587 63.4731 61.104 63.9199 61.1113 64.7549ZM64.2168 57.958V56.625H66.8535V54.0615H68.4795V61.8545H66.8535V57.958H64.2168Z" fill="white"/>
</svg>
