<svg width="327" height="207" viewBox="0 0 327 207" fill="none" xmlns="http://www.w3.org/2000/svg">
<rect x="23.1782" width="303.322" height="207" rx="8" fill="#93E54C"/>
<path d="M47.9024 29.6393V37.4559C50.3851 39.3757 57.1713 42.0635 64.4541 37.4559V30.4621M45.4196 29.001L56.1782 34.1647L68.1782 28.4051L56.1782 21L44.1782 28.4051L45.4196 29.001ZM45.4196 29.001V34.1647M45.4196 34.9875V36.6331" stroke="white" stroke-width="1.4" stroke-linejoin="round"/>
<path d="M45.4839 55.3359V56.625H37.6323V55.3359H40.7524V54.0029H42.3784V55.3359H45.4839ZM38.3062 59.5547C38.3062 58.1045 39.6465 57.1377 41.5581 57.1377C43.4697 57.1377 44.7881 58.1045 44.7954 59.5547C44.7881 61.0049 43.4697 61.9717 41.5581 61.9717C39.6465 61.9717 38.3062 61.0049 38.3062 59.5547ZM39.2437 64.2715V62.9678H48.062V67.3037H46.436V64.2715H39.2437ZM39.8882 59.5547C39.8809 60.3018 40.5547 60.7192 41.5581 60.7119C42.5615 60.7192 43.2427 60.3018 43.2427 59.5547C43.2427 58.8076 42.5615 58.3682 41.5581 58.3682C40.5547 58.3682 39.8809 58.8076 39.8882 59.5547ZM46.436 62.3525V54.0615H48.062V57.5771H49.9077V58.9102H48.062V62.3525H46.436ZM53.6431 62.001V63.2607H59.4731V62.001H61.0991V67.1426H52.0317V62.001H53.6431ZM50.5815 61.2539V59.9209H62.6519V61.2539H50.5815ZM51.1968 57.9434C53.9653 57.5991 55.7744 56.1782 55.7817 54.7061V54.208H57.4517V54.7061C57.4517 56.1343 59.2681 57.6211 62.0073 57.9434L61.436 59.2324C59.2168 58.9321 57.4663 57.9434 56.6167 56.603C55.7598 57.9507 54.002 58.9321 51.7974 59.2324L51.1968 57.9434ZM53.6431 65.8535H59.4731V64.5059H53.6431V65.8535ZM68.2915 57.8262C68.2842 59.8696 69.5146 62.1987 71.6021 63.1729L70.6938 64.4619C69.1997 63.7588 68.0938 62.3379 67.5005 60.6826C66.8999 62.499 65.7427 64.0518 64.2192 64.7842L63.2671 63.5098C65.3765 62.5063 66.6582 60.0308 66.6655 57.8262V56.7129H63.7798V55.3652H71.0601V56.7129H68.2915V57.8262ZM72.2905 67.3037V54.0615H73.9165V59.2178H75.9526V60.5801H73.9165V67.3037H72.2905ZM92.1685 64.3594V65.6924H80.0688V64.3594H85.2837V61.4736H81.4019V55.0869H90.7769V61.4736H86.895V64.3594H92.1685ZM82.9985 60.1992H89.1655V56.3906H82.9985V60.1992ZM104.078 54.0615V67.3037H102.466V54.0615H104.078ZM93.7944 63.9785V55.3506H95.4058V62.5869C97.2588 62.5576 99.2363 62.3965 101.28 61.9863L101.485 63.3486C99.1558 63.832 96.9951 63.9858 94.937 63.9785H93.7944ZM117.1 54.0615V67.3184H115.489V60.1699H112.999V58.8516H115.489V54.0615H117.1ZM106.597 64.2715V55.2041H112.793V56.5371H108.238V58.9102H112.266V60.1992H108.238V62.9238C110.252 62.9165 111.761 62.8433 113.467 62.5723L113.628 63.8906C111.702 64.1836 110.003 64.2568 107.637 64.2715H106.597ZM129.991 54.0762V62.1475H128.35V54.0762H129.991ZM119.634 56.2002V54.8672H125.743V58.749H121.26V60.1699C123.523 60.1626 125.142 60.0894 127.032 59.8037L127.237 61.1074C125.149 61.4517 123.355 61.5103 120.792 61.5029H119.664V57.5332H124.131V56.2002H119.634ZM121.011 64.8428C121.004 63.2754 122.718 62.3818 125.538 62.3818C128.343 62.3818 130.064 63.2754 130.064 64.8428C130.064 66.3809 128.343 67.2891 125.538 67.2891C122.718 67.2891 121.004 66.3809 121.011 64.8428ZM122.623 64.8428C122.623 65.6045 123.663 66.0073 125.538 66.0146C127.398 66.0073 128.431 65.6045 128.438 64.8428C128.431 64.0737 127.398 63.6562 125.538 63.6562C123.663 63.6562 122.623 64.0737 122.623 64.8428Z" fill="white"/>
<path d="M0.5 35C0.5 30.5817 4.08172 27 8.5 27H23.1783V180H8.49999C4.08172 180 0.5 176.418 0.5 172V35Z" fill="#93E54C"/>
</svg>
