<svg width="48" height="48" viewBox="0 0 48 48" fill="none" xmlns="http://www.w3.org/2000/svg">
<g clip-path="url(#clip0_2694_86743)">
<rect width="48" height="48" rx="24" fill="black"/>
<path d="M21.7324 25.7461C18.8531 25.7461 16.3414 27.3198 15.0105 29.654C13.9163 31.5731 15.7909 33.4785 18 33.4785H25.4648C27.6739 33.4785 29.5485 31.5731 28.4543 29.654C27.1234 27.3198 24.6117 25.7461 21.7324 25.7461Z" fill="#D9D9D9"/>
<circle cx="21.7335" cy="21.4366" r="3.43662" fill="#D9D9D9"/>
<path fill-rule="evenodd" clip-rule="evenodd" d="M31.3454 14.6195C31.3454 14.2768 31.0676 13.999 30.7249 13.999C30.3822 13.999 30.1044 14.2768 30.1044 14.6195V17.1028H27.6205C27.2778 17.1028 27 17.3806 27 17.7233C27 18.066 27.2778 18.3438 27.6205 18.3438H30.1044V20.8245C30.1044 21.1672 30.3822 21.445 30.7249 21.445C31.0676 21.445 31.3454 21.1672 31.3454 20.8245V18.3438H33.8255C34.1682 18.3438 34.446 18.066 34.446 17.7233C34.446 17.3806 34.1682 17.1028 33.8255 17.1028H31.3454V14.6195Z" fill="#D9D9D9"/>
</g>
<defs>
<clipPath id="clip0_2694_86743">
<rect width="48" height="48" rx="24" fill="white"/>
</clipPath>
</defs>
</svg>
