<svg width="133" height="44" viewBox="0 0 133 44" fill="none" xmlns="http://www.w3.org/2000/svg">
<rect width="133" height="44" rx="22" fill="black"/>
<path fill-rule="evenodd" clip-rule="evenodd" d="M28.2931 22.7064C28.1057 22.5188 28.0004 22.2645 28.0004 21.9994C28.0004 21.7342 28.1057 21.4799 28.2931 21.2924L33.9501 15.6354C34.0424 15.5399 34.1527 15.4637 34.2747 15.4113C34.3967 15.3589 34.528 15.3313 34.6607 15.3301C34.7935 15.329 34.9252 15.3543 35.0481 15.4045C35.171 15.4548 35.2826 15.5291 35.3765 15.623C35.4704 15.7169 35.5447 15.8285 35.595 15.9514C35.6452 16.0743 35.6705 16.206 35.6694 16.3388C35.6682 16.4715 35.6407 16.6028 35.5882 16.7248C35.5358 16.8468 35.4597 16.9571 35.3641 17.0494L30.4141 21.9994L35.3641 26.9494C35.5463 27.138 35.6471 27.3906 35.6448 27.6528C35.6425 27.915 35.5374 28.1658 35.352 28.3512C35.1666 28.5366 34.9157 28.6418 34.6535 28.644C34.3913 28.6463 34.1387 28.5455 33.9501 28.3634L28.2931 22.7064Z" fill="#FBFBFB"/>
<path d="M65.568 14.888C65.7493 14.888 65.8827 14.952 65.968 15.08C66.0533 15.208 66.096 15.3627 66.096 15.544C66.096 15.7253 66.0533 15.88 65.968 16.008C65.8827 16.136 65.7493 16.2 65.568 16.2H58.352C58.2347 16.2 58.1493 16.2267 58.096 16.28C58.0427 16.3227 58.016 16.408 58.016 16.536V17.992C58.016 18.12 58.0427 18.2107 58.096 18.264C58.1493 18.3067 58.2347 18.328 58.352 18.328H65.728C65.9093 18.328 66.0427 18.392 66.128 18.52C66.2133 18.6373 66.256 18.7867 66.256 18.968C66.256 19.1493 66.2133 19.3093 66.128 19.448C66.0427 19.576 65.9093 19.64 65.728 19.64H57.632C57.1627 19.64 56.8427 19.5547 56.672 19.384C56.5013 19.2133 56.416 18.8987 56.416 18.44V16.088C56.416 15.6293 56.5013 15.3147 56.672 15.144C56.8427 14.9733 57.1627 14.888 57.632 14.888H65.568ZM62.064 21.048H67.456C67.6373 21.048 67.7707 21.112 67.856 21.24C67.952 21.3573 68 21.5067 68 21.688C68 21.8693 67.952 22.024 67.856 22.152C67.7707 22.28 67.6373 22.344 67.456 22.344H55.104C54.9227 22.344 54.784 22.28 54.688 22.152C54.6027 22.024 54.56 21.8693 54.56 21.688C54.56 21.5067 54.6027 21.3573 54.688 21.24C54.784 21.112 54.9227 21.048 55.104 21.048H60.496V18.952H62.064V21.048ZM64.944 23.4C65.4133 23.4 65.7333 23.4853 65.904 23.656C66.0853 23.8267 66.176 24.1413 66.176 24.6V25.784C66.176 26.2427 66.0853 26.5573 65.904 26.728C65.7333 26.8987 65.4133 26.984 64.944 26.984H58.176C58.0053 26.984 57.92 27.064 57.92 27.224V27.88C57.92 28.04 58.0053 28.12 58.176 28.12H66C66.1813 28.12 66.3147 28.184 66.4 28.312C66.4853 28.44 66.528 28.584 66.528 28.744C66.528 28.9147 66.4853 29.0587 66.4 29.176C66.3147 29.304 66.1813 29.368 66 29.368H57.6C57.1307 29.368 56.8053 29.2827 56.624 29.112C56.4533 28.9413 56.368 28.6267 56.368 28.168V26.984C56.368 26.5253 56.4533 26.2107 56.624 26.04C56.8053 25.8693 57.1307 25.784 57.6 25.784H64.368C64.5387 25.784 64.624 25.704 64.624 25.544V24.904C64.624 24.7333 64.5387 24.648 64.368 24.648H56.848C56.6667 24.648 56.5333 24.5893 56.448 24.472C56.3733 24.344 56.336 24.1947 56.336 24.024C56.336 23.864 56.3733 23.72 56.448 23.592C56.5333 23.464 56.6667 23.4 56.848 23.4H64.944ZM73.0905 15.384C74.3278 15.384 75.2612 15.7893 75.8905 16.6C76.5198 17.4107 76.8345 18.5947 76.8345 20.152C76.8345 21.7093 76.5198 22.8933 75.8905 23.704C75.2612 24.5147 74.3278 24.92 73.0905 24.92C71.8532 24.92 70.9198 24.5147 70.2905 23.704C69.6718 22.8933 69.3625 21.7093 69.3625 20.152C69.3625 18.5947 69.6718 17.4107 70.2905 16.6C70.9198 15.7893 71.8532 15.384 73.0905 15.384ZM73.0905 16.792C72.3118 16.792 71.7518 17.08 71.4105 17.656C71.0798 18.2213 70.9145 19.0533 70.9145 20.152C70.9145 21.2507 71.0798 22.088 71.4105 22.664C71.7518 23.2293 72.3118 23.512 73.0905 23.512C73.8798 23.512 74.4398 23.2293 74.7705 22.664C75.1118 22.088 75.2825 21.2507 75.2825 20.152C75.2825 19.0533 75.1118 18.2213 74.7705 17.656C74.4398 17.08 73.8798 16.792 73.0905 16.792ZM79.6985 14.552C79.9118 14.552 80.0985 14.6053 80.2585 14.712C80.4185 14.8187 80.4985 14.9893 80.4985 15.224V19.384H82.2585C82.4718 19.384 82.6212 19.4533 82.7065 19.592C82.8025 19.72 82.8505 19.88 82.8505 20.072C82.8505 20.264 82.8025 20.4293 82.7065 20.568C82.6212 20.7067 82.4718 20.776 82.2585 20.776H80.4985V27.704C80.4985 27.9387 80.4185 28.1093 80.2585 28.216C80.0985 28.3227 79.9118 28.376 79.6985 28.376C79.4852 28.376 79.2985 28.3227 79.1385 28.216C78.9785 28.1093 78.8985 27.9387 78.8985 27.704V15.224C78.8985 14.9893 78.9785 14.8187 79.1385 14.712C79.2985 14.6053 79.4852 14.552 79.6985 14.552ZM89.621 15.656C90.0903 15.656 90.4103 15.7413 90.581 15.912C90.7623 16.0827 90.853 16.3973 90.853 16.856V18.632C90.853 19.08 90.8263 19.4853 90.773 19.848C90.7197 20.2 90.6183 20.536 90.469 20.856C90.3197 21.176 90.1117 21.4907 89.845 21.8C89.589 22.0987 89.2477 22.4187 88.821 22.76C88.405 23.0907 87.8983 23.4533 87.301 23.848C86.7037 24.2427 85.9997 24.6907 85.189 25.192C85.0077 25.2987 84.8263 25.32 84.645 25.256C84.4637 25.1813 84.3197 25.0693 84.213 24.92C84.1063 24.7707 84.053 24.5947 84.053 24.392C84.0637 24.1893 84.1597 24.0293 84.341 23.912C85.0877 23.4533 85.7277 23.0533 86.261 22.712C86.7943 22.36 87.2423 22.0453 87.605 21.768C87.9783 21.48 88.2717 21.2187 88.485 20.984C88.6983 20.7387 88.8637 20.4987 88.981 20.264C89.0983 20.0187 89.173 19.7627 89.205 19.496C89.237 19.2187 89.253 18.9093 89.253 18.568V17.368C89.253 17.2507 89.2263 17.1707 89.173 17.128C89.1303 17.0747 89.045 17.048 88.917 17.048H84.789C84.5863 17.048 84.437 16.9787 84.341 16.84C84.2557 16.7013 84.213 16.5413 84.213 16.36C84.213 16.168 84.2557 16.0027 84.341 15.864C84.437 15.7253 84.5863 15.656 84.789 15.656H89.621ZM94.261 14.552C94.4743 14.552 94.661 14.6053 94.821 14.712C94.981 14.8187 95.061 14.9893 95.061 15.224V19.384H96.821C97.0343 19.384 97.1837 19.4533 97.269 19.592C97.365 19.72 97.413 19.88 97.413 20.072C97.413 20.264 97.365 20.4293 97.269 20.568C97.1837 20.7067 97.0343 20.776 96.821 20.776H95.061V27.704C95.061 27.9387 94.981 28.1093 94.821 28.216C94.661 28.3227 94.4743 28.376 94.261 28.376C94.0477 28.376 93.861 28.3227 93.701 28.216C93.541 28.1093 93.461 27.9387 93.461 27.704V15.224C93.461 14.9893 93.541 14.8187 93.701 14.712C93.861 14.6053 94.0477 14.552 94.261 14.552ZM104.536 15.64C105.005 15.64 105.325 15.7253 105.496 15.896C105.677 16.0667 105.767 16.3813 105.767 16.84V18.648C105.767 19.096 105.741 19.5013 105.688 19.864C105.634 20.216 105.533 20.552 105.384 20.872C105.234 21.192 105.026 21.5067 104.76 21.816C104.493 22.1147 104.146 22.4347 103.72 22.776C103.304 23.1067 102.797 23.4693 102.2 23.864C101.602 24.2587 100.893 24.7067 100.072 25.208C99.8902 25.3147 99.7088 25.336 99.5275 25.272C99.3462 25.1973 99.2022 25.0853 99.0955 24.936C98.9888 24.7867 98.9355 24.6107 98.9355 24.408C98.9462 24.2053 99.0422 24.0453 99.2235 23.928C99.9808 23.4693 100.626 23.0693 101.16 22.728C101.704 22.376 102.157 22.0613 102.52 21.784C102.882 21.496 103.17 21.2347 103.384 21C103.608 20.7547 103.778 20.5147 103.896 20.28C104.013 20.0347 104.088 19.7787 104.12 19.512C104.152 19.2347 104.168 18.9253 104.168 18.584V17.352C104.168 17.2347 104.141 17.1547 104.088 17.112C104.045 17.0587 103.96 17.032 103.832 17.032H99.6715C99.4688 17.032 99.3195 16.9627 99.2235 16.824C99.1382 16.6853 99.0955 16.5253 99.0955 16.344C99.0955 16.152 99.1382 15.9867 99.2235 15.848C99.3195 15.7093 99.4688 15.64 99.6715 15.64H104.536ZM109.496 14.552C109.709 14.552 109.896 14.6053 110.056 14.712C110.226 14.8187 110.312 14.9893 110.312 15.224V27.704C110.312 27.9387 110.226 28.1093 110.056 28.216C109.896 28.3227 109.709 28.376 109.496 28.376C109.293 28.376 109.106 28.3227 108.936 28.216C108.776 28.1093 108.696 27.9387 108.696 27.704V15.224C108.696 14.9893 108.776 14.8187 108.936 14.712C109.106 14.6053 109.293 14.552 109.496 14.552Z" fill="white"/>
</svg>
