<svg width="91" height="40" viewBox="0 0 91 40" fill="none" xmlns="http://www.w3.org/2000/svg">
<rect width="91" height="40" rx="8" fill="#EFD6FF"/>
<path d="M13.568 13.56C14.7947 13.56 15.7013 13.7893 16.288 14.248C16.8747 14.7067 17.168 15.4213 17.168 16.392V16.616C17.168 17.1387 17.0293 17.6187 16.752 18.056C16.4853 18.4827 16.0107 18.7813 15.328 18.952C16.0533 19.0587 16.6293 19.32 17.056 19.736C17.4827 20.152 17.696 20.7707 17.696 21.592V21.88C17.696 22.8507 17.4027 23.6027 16.816 24.136C16.24 24.6693 15.328 24.936 14.08 24.936H10.608C10.1387 24.936 9.81333 24.8507 9.632 24.68C9.46133 24.5093 9.376 24.2 9.376 23.752V14.744C9.376 14.296 9.46133 13.9867 9.632 13.816C9.81333 13.6453 10.1387 13.56 10.608 13.56H13.568ZM13.104 18.344C14 18.344 14.6293 18.2213 14.992 17.976C15.3653 17.72 15.552 17.2773 15.552 16.648V16.472C15.552 15.896 15.3547 15.4907 14.96 15.256C14.576 15.0213 13.9253 14.904 13.008 14.904H10.976V18.344H13.104ZM13.392 23.592C13.84 23.592 14.2293 23.5653 14.56 23.512C14.9013 23.4587 15.184 23.3627 15.408 23.224C15.632 23.0747 15.7973 22.8827 15.904 22.648C16.0107 22.4133 16.064 22.1093 16.064 21.736V21.496C16.064 21.1867 16.016 20.92 15.92 20.696C15.824 20.4613 15.6587 20.2693 15.424 20.12C15.2 19.96 14.9013 19.8427 14.528 19.768C14.1547 19.6933 13.6907 19.656 13.136 19.656H10.976V23.592H13.392ZM22.8703 16.344C23.3716 16.344 23.8249 16.408 24.2303 16.536C24.6463 16.664 24.9983 16.8507 25.2863 17.096C25.5849 17.3307 25.8143 17.624 25.9743 17.976C26.1343 18.3173 26.2143 18.7067 26.2143 19.144V24.408C26.2143 24.6213 26.1396 24.776 25.9903 24.872C25.8409 24.968 25.6756 25.016 25.4943 25.016C25.3129 25.016 25.1476 24.968 24.9983 24.872C24.8489 24.776 24.7743 24.6213 24.7743 24.408V23.8H24.7583C24.6729 23.9813 24.5503 24.1467 24.3903 24.296C24.2303 24.4453 24.0436 24.5733 23.8303 24.68C23.6169 24.7973 23.3663 24.8933 23.0783 24.968C22.7903 25.032 22.4863 25.064 22.1663 25.064C21.2383 25.064 20.5183 24.8453 20.0063 24.408C19.4943 23.9707 19.2383 23.3573 19.2383 22.568V22.36C19.2383 22.008 19.2916 21.6827 19.3983 21.384C19.5156 21.0853 19.6969 20.824 19.9423 20.6C20.1983 20.376 20.5289 20.2053 20.9343 20.088C21.3396 19.96 21.8356 19.896 22.4223 19.896H24.6463V19.496C24.6463 18.8773 24.5023 18.4293 24.2143 18.152C23.9263 17.864 23.4676 17.72 22.8383 17.72C22.0809 17.72 21.3663 17.9333 20.6943 18.36C20.5236 18.4667 20.3583 18.4933 20.1983 18.44C20.0383 18.3867 19.9049 18.28 19.7983 18.12C19.7023 17.96 19.6649 17.7947 19.6863 17.624C19.7076 17.4533 19.8036 17.3093 19.9743 17.192C20.3369 16.9467 20.7689 16.744 21.2703 16.584C21.7716 16.424 22.3049 16.344 22.8703 16.344ZM22.4703 21.128C21.8409 21.128 21.3983 21.2507 21.1423 21.496C20.8969 21.7413 20.7743 22.056 20.7743 22.44V22.504C20.7743 22.8987 20.9023 23.2027 21.1583 23.416C21.4143 23.6293 21.7929 23.736 22.2943 23.736C22.9129 23.736 23.4196 23.6293 23.8143 23.416C24.0916 23.256 24.2996 23.0587 24.4383 22.824C24.5876 22.5893 24.6623 22.296 24.6623 21.944V21.128H22.4703ZM31.5666 16.344C32.1106 16.344 32.5906 16.3973 33.0066 16.504C33.4333 16.6 33.796 16.7333 34.0946 16.904C34.308 17.0213 34.436 17.1653 34.4786 17.336C34.5213 17.496 34.5 17.6667 34.4146 17.848C34.3293 18.008 34.212 18.1147 34.0626 18.168C33.9133 18.2213 33.748 18.2053 33.5666 18.12C33.3106 17.9813 33.0173 17.8747 32.6866 17.8C32.3666 17.7147 32.036 17.672 31.6946 17.672C31.0333 17.672 30.564 17.7733 30.2866 17.976C30.0093 18.168 29.8706 18.4027 29.8706 18.68V18.712C29.8706 18.872 29.892 19.0107 29.9346 19.128C29.988 19.2453 30.084 19.3467 30.2226 19.432C30.3613 19.5173 30.5533 19.5973 30.7986 19.672C31.044 19.7467 31.364 19.8213 31.7586 19.896C32.3666 20.0133 32.8733 20.1467 33.2786 20.296C33.684 20.4453 34.004 20.6213 34.2386 20.824C34.484 21.0267 34.6546 21.2667 34.7506 21.544C34.8466 21.8213 34.8946 22.152 34.8946 22.536V22.632C34.8946 22.9733 34.8146 23.2933 34.6546 23.592C34.5053 23.8907 34.2866 24.152 33.9986 24.376C33.7106 24.5893 33.3586 24.76 32.9426 24.888C32.5266 25.0053 32.0573 25.064 31.5346 25.064C30.916 25.064 30.34 24.9947 29.8066 24.856C29.2733 24.7067 28.82 24.52 28.4466 24.296C28.2653 24.2 28.1586 24.0667 28.1266 23.896C28.1053 23.7147 28.1373 23.5387 28.2226 23.368C28.308 23.1867 28.436 23.0693 28.6066 23.016C28.7773 22.952 28.9533 22.9733 29.1346 23.08C29.4546 23.2613 29.8226 23.416 30.2386 23.544C30.6546 23.6613 31.0866 23.72 31.5346 23.72C32.164 23.72 32.6173 23.6187 32.8946 23.416C33.172 23.2027 33.3106 22.936 33.3106 22.616V22.584C33.3106 22.4133 33.2893 22.264 33.2466 22.136C33.204 22.008 33.108 21.896 32.9586 21.8C32.82 21.704 32.612 21.6187 32.3346 21.544C32.0573 21.4587 31.684 21.3733 31.2146 21.288C30.692 21.192 30.244 21.0747 29.8706 20.936C29.508 20.7867 29.2093 20.616 28.9746 20.424C28.74 20.2213 28.5693 19.9867 28.4626 19.72C28.356 19.4427 28.3026 19.1227 28.3026 18.76V18.68C28.3026 18.3707 28.3666 18.0773 28.4946 17.8C28.6333 17.512 28.836 17.2613 29.1026 17.048C29.38 16.8347 29.7213 16.664 30.1266 16.536C30.532 16.408 31.012 16.344 31.5666 16.344ZM37.6905 13.288C37.9892 13.288 38.2398 13.3893 38.4425 13.592C38.6452 13.784 38.7465 14.0187 38.7465 14.296C38.7465 14.584 38.6452 14.8293 38.4425 15.032C38.2398 15.224 37.9892 15.32 37.6905 15.32C37.3918 15.32 37.1412 15.224 36.9385 15.032C36.7358 14.8293 36.6345 14.584 36.6345 14.296C36.6345 14.0187 36.7358 13.784 36.9385 13.592C37.1412 13.3893 37.3918 13.288 37.6905 13.288ZM37.6905 16.456C37.9038 16.456 38.0852 16.5093 38.2345 16.616C38.3945 16.7227 38.4745 16.888 38.4745 17.112V24.36C38.4745 24.584 38.3945 24.7493 38.2345 24.856C38.0852 24.9627 37.9038 25.016 37.6905 25.016C37.4878 25.016 37.3065 24.9627 37.1465 24.856C36.9865 24.7493 36.9065 24.584 36.9065 24.36V17.112C36.9065 16.888 36.9865 16.7227 37.1465 16.616C37.3065 16.5093 37.4878 16.456 37.6905 16.456ZM44.4685 16.344C45.0765 16.344 45.5938 16.4133 46.0205 16.552C46.4578 16.68 46.8312 16.8453 47.1405 17.048C47.3112 17.1653 47.4072 17.3147 47.4285 17.496C47.4605 17.6773 47.4178 17.8533 47.3005 18.024C47.1938 18.1733 47.0605 18.2747 46.9005 18.328C46.7512 18.3707 46.5912 18.3387 46.4205 18.232C46.1432 18.072 45.8445 17.9493 45.5245 17.864C45.2045 17.7787 44.8525 17.736 44.4685 17.736C43.7645 17.736 43.2152 17.9547 42.8205 18.392C42.4365 18.8293 42.2445 19.5227 42.2445 20.472V20.952C42.2445 21.8693 42.4418 22.552 42.8365 23C43.2418 23.448 43.7965 23.672 44.5005 23.672C45.3218 23.672 46.0205 23.4907 46.5965 23.128C46.7778 23.0213 46.9538 22.9893 47.1245 23.032C47.2952 23.0747 47.4232 23.1813 47.5085 23.352C47.6152 23.5227 47.6578 23.6987 47.6365 23.88C47.6152 24.0613 47.5138 24.2107 47.3325 24.328C47.0018 24.5413 46.5965 24.7173 46.1165 24.856C45.6365 24.9947 45.0925 25.064 44.4845 25.064C43.2898 25.064 42.3512 24.728 41.6685 24.056C40.9965 23.3733 40.6605 22.344 40.6605 20.968V20.44C40.6605 19.064 40.9965 18.04 41.6685 17.368C42.3405 16.6853 43.2738 16.344 44.4685 16.344Z" fill="black"/>
<path fill-rule="evenodd" clip-rule="evenodd" d="M71.7064 23.7073C71.5188 23.8948 71.2645 24.0001 70.9994 24.0001C70.7342 24.0001 70.4799 23.8948 70.2924 23.7073L64.6354 18.0503C64.5399 17.9581 64.4637 17.8478 64.4113 17.7257C64.3589 17.6037 64.3313 17.4725 64.3301 17.3397C64.329 17.207 64.3543 17.0753 64.4045 16.9524C64.4548 16.8295 64.5291 16.7178 64.623 16.6239C64.7169 16.5301 64.8285 16.4558 64.9514 16.4055C65.0743 16.3552 65.206 16.3299 65.3388 16.3311C65.4715 16.3322 65.6028 16.3598 65.7248 16.4122C65.8468 16.4647 65.9571 16.5408 66.0494 16.6363L70.9994 21.5863L75.9494 16.6363C76.138 16.4542 76.3906 16.3534 76.6528 16.3557C76.915 16.3579 77.1658 16.4631 77.3512 16.6485C77.5366 16.8339 77.6418 17.0847 77.644 17.3469C77.6463 17.6091 77.5455 17.8617 77.3634 18.0503L71.7064 23.7073Z" fill="black"/>
</svg>
