<svg width="76" height="76" viewBox="0 0 76 76" fill="none" xmlns="http://www.w3.org/2000/svg">
<rect x="9" width="57" height="25" rx="4" fill="#7B7B7B"/>
<rect y="11" width="76" height="65" rx="4" fill="#AAAAAA"/>
<path d="M47 24C47 21.7909 48.7909 20 51 20H62C64.2091 20 66 21.7909 66 24C66 26.2091 64.2091 28 62 28H51C48.7909 28 47 26.2091 47 24Z" fill="#FBEAEA"/>
<path d="M30.0007 60.3333C29.2673 60.3333 28.6398 60.0724 28.118 59.5507C27.5962 59.0289 27.3349 58.4009 27.334 57.6667V44.3333C27.334 43.6 27.5953 42.9724 28.118 42.4507C28.6407 41.9289 29.2682 41.6676 30.0007 41.6667H31.334V39C31.334 37.1556 31.9842 35.5836 33.2847 34.284C34.5851 32.9844 36.1571 32.3342 38.0007 32.3333C39.8442 32.3324 41.4167 32.9827 42.718 34.284C44.0193 35.5853 44.6691 37.1573 44.6673 39V41.6667H46.0007C46.734 41.6667 47.362 41.928 47.8847 42.4507C48.4073 42.9733 48.6682 43.6009 48.6673 44.3333V57.6667C48.6673 58.4 48.4064 59.028 47.8847 59.5507C47.3629 60.0733 46.7349 60.3342 46.0007 60.3333H30.0007ZM38.0007 53.6667C38.734 53.6667 39.362 53.4058 39.8847 52.884C40.4073 52.3622 40.6682 51.7342 40.6673 51C40.6664 50.2658 40.4055 49.6382 39.8847 49.1173C39.3638 48.5964 38.7358 48.3351 38.0007 48.3333C37.2655 48.3316 36.638 48.5929 36.118 49.1173C35.598 49.6418 35.3367 50.2693 35.334 51C35.3313 51.7307 35.5927 52.3587 36.118 52.884C36.6433 53.4093 37.2709 53.6702 38.0007 53.6667ZM34.0007 41.6667H42.0007V39C42.0007 37.8889 41.6118 36.9444 40.834 36.1667C40.0562 35.3889 39.1118 35 38.0007 35C36.8895 35 35.9451 35.3889 35.1673 36.1667C34.3895 36.9444 34.0007 37.8889 34.0007 39V41.6667Z" fill="#FBFBFB"/>
</svg>
