<svg width="42" height="43" viewBox="0 0 42 43" fill="none" xmlns="http://www.w3.org/2000/svg">
<rect y="0.5" width="42" height="42" rx="12" fill="white"/>
<path d="M32 21.1369C32.0007 21.4147 31.9294 21.6879 31.7932 21.93C31.657 22.1722 31.4605 22.3749 31.2227 22.5186L16.4873 31.5329C16.2388 31.685 15.9543 31.7681 15.663 31.7735C15.3718 31.7789 15.0844 31.7064 14.8305 31.5636C14.579 31.423 14.3695 31.2179 14.2235 30.9695C14.0776 30.7211 14.0004 30.4383 14 30.1502V12.1236C14.0004 11.8355 14.0776 11.5527 14.2235 11.3042C14.3695 11.0558 14.579 10.8508 14.8305 10.7102C15.0844 10.5673 15.3718 10.4949 15.663 10.5003C15.9543 10.5057 16.2388 10.5887 16.4873 10.7409L31.2227 19.7552C31.4605 19.8988 31.657 20.1016 31.7932 20.3437C31.9294 20.5858 32.0007 20.8591 32 21.1369Z" fill="#90F0F4"/>
</svg>
