<svg width="42" height="43" viewBox="0 0 42 43" fill="none" xmlns="http://www.w3.org/2000/svg">
<rect x="42" y="42.5" width="42" height="42" rx="12" transform="rotate(-180 42 42.5)" fill="white"/>
<path d="M10 21.8631C9.99933 21.5853 10.0706 21.3121 10.2068 21.07C10.343 20.8278 10.5395 20.6251 10.7773 20.4814L25.5127 11.4671C25.7612 11.315 26.0457 11.2319 26.337 11.2265C26.6282 11.2211 26.9157 11.2936 27.1695 11.4364C27.421 11.577 27.6305 11.7821 27.7765 12.0305C27.9224 12.2789 27.9996 12.5617 28 12.8498L28 30.8764C27.9996 31.1645 27.9224 31.4473 27.7765 31.6958C27.6305 31.9442 27.421 32.1492 27.1695 32.2898C26.9156 32.4327 26.6282 32.5051 26.337 32.4997C26.0457 32.4943 25.7612 32.4113 25.5127 32.2591L10.7773 23.2448C10.5395 23.1012 10.343 22.8984 10.2068 22.6563C10.0706 22.4142 9.99933 22.1409 10 21.8631Z" fill="#90F0F4"/>
</svg>
