<svg width="49" height="29" viewBox="0 0 49 29" fill="none" xmlns="http://www.w3.org/2000/svg">
<rect width="49" height="29" rx="14.5" fill="#D9D9D9"/>
<path d="M19.476 9.088C19.644 9.088 19.7653 9.14867 19.84 9.27C19.924 9.39133 19.966 9.53133 19.966 9.69C19.966 9.84867 19.924 9.98867 19.84 10.11C19.7653 10.2313 19.644 10.292 19.476 10.292H17.222V11.692C17.222 12 17.236 12.2753 17.264 12.518C17.3013 12.7607 17.362 12.9893 17.446 13.204C17.53 13.4093 17.6373 13.61 17.768 13.806C17.908 14.002 18.0807 14.2027 18.286 14.408C18.5847 14.7067 18.874 14.9913 19.154 15.262C19.434 15.5233 19.6813 15.7473 19.896 15.934C20.036 16.0647 20.092 16.214 20.064 16.382C20.0453 16.55 19.98 16.69 19.868 16.802C19.756 16.9233 19.6207 16.998 19.462 17.026C19.3033 17.054 19.154 17.0073 19.014 16.886C18.8273 16.718 18.608 16.5173 18.356 16.284C18.1133 16.0413 17.8473 15.78 17.558 15.5C17.362 15.2947 17.1987 15.122 17.068 14.982C16.9373 14.8327 16.8347 14.702 16.76 14.59C16.6853 14.478 16.6293 14.38 16.592 14.296C16.5547 14.212 16.5313 14.1327 16.522 14.058H16.508C16.4893 14.142 16.4613 14.226 16.424 14.31C16.396 14.394 16.34 14.492 16.256 14.604C16.1813 14.716 16.0787 14.8467 15.948 14.996C15.8267 15.1453 15.6633 15.3227 15.458 15.528C15.178 15.808 14.9027 16.0787 14.632 16.34C14.3613 16.6013 14.086 16.8533 13.806 17.096C13.6567 17.2267 13.498 17.2687 13.33 17.222C13.162 17.1753 13.0267 17.0913 12.924 16.97C12.812 16.8393 12.7513 16.6947 12.742 16.536C12.742 16.368 12.812 16.2233 12.952 16.102C13.568 15.5607 14.1607 14.996 14.73 14.408C14.9353 14.2027 15.1033 14.002 15.234 13.806C15.374 13.61 15.486 13.4093 15.57 13.204C15.654 12.9893 15.71 12.7607 15.738 12.518C15.7753 12.2753 15.794 12 15.794 11.692V10.292H13.47C13.2927 10.292 13.162 10.2313 13.078 10.11C13.0033 9.98867 12.966 9.84867 12.966 9.69C12.966 9.53133 13.0033 9.39133 13.078 9.27C13.162 9.14867 13.2927 9.088 13.47 9.088H19.476ZM22.43 8.108C22.6167 8.108 22.78 8.15467 22.92 8.248C23.06 8.34133 23.13 8.49067 23.13 8.696V19.616C23.13 19.8213 23.06 19.9707 22.92 20.064C22.78 20.1573 22.6167 20.204 22.43 20.204C22.2527 20.204 22.094 20.1573 21.954 20.064C21.814 19.9707 21.744 19.8213 21.744 19.616V13.4H19.616C19.4387 13.4 19.308 13.3393 19.224 13.218C19.1493 13.0967 19.112 12.9567 19.112 12.798C19.112 12.63 19.1493 12.49 19.224 12.378C19.308 12.2567 19.4387 12.196 19.616 12.196H21.744V8.696C21.744 8.49067 21.814 8.34133 21.954 8.248C22.094 8.15467 22.2527 8.108 22.43 8.108ZM32.0502 8.836C32.2182 8.836 32.3395 8.89667 32.4142 9.018C32.4982 9.13933 32.5402 9.27933 32.5402 9.438C32.5402 9.59667 32.4982 9.73667 32.4142 9.858C32.3395 9.97 32.2182 10.026 32.0502 10.026H29.7822V10.656C29.7822 11.1133 29.8522 11.496 29.9922 11.804C30.1322 12.112 30.3702 12.4013 30.7062 12.672C31.0329 12.9427 31.3409 13.1853 31.6302 13.4C31.9195 13.6147 32.1762 13.8013 32.4002 13.96C32.5589 14.072 32.6429 14.2073 32.6522 14.366C32.6615 14.5247 32.6149 14.674 32.5122 14.814C32.4189 14.926 32.2929 15.0147 32.1342 15.08C31.9849 15.136 31.8215 15.1033 31.6442 14.982C31.4762 14.8607 31.2569 14.702 30.9862 14.506C30.7155 14.3007 30.4309 14.0767 30.1322 13.834C29.7775 13.5447 29.5255 13.316 29.3762 13.148C29.2362 12.9707 29.1475 12.812 29.1102 12.672H29.0962C29.0589 12.8307 28.9609 13.0033 28.8022 13.19C28.6529 13.3767 28.4009 13.61 28.0462 13.89C27.7382 14.1327 27.4349 14.366 27.1362 14.59C26.8469 14.8047 26.5622 15.01 26.2822 15.206C26.1235 15.318 25.9602 15.346 25.7922 15.29C25.6335 15.234 25.5122 15.1453 25.4282 15.024C25.3255 14.8933 25.2789 14.744 25.2882 14.576C25.2975 14.408 25.3815 14.2633 25.5402 14.142C25.8762 13.9087 26.1982 13.68 26.5062 13.456C26.8235 13.2227 27.1455 12.9753 27.4722 12.714C27.7989 12.4433 28.0322 12.154 28.1722 11.846C28.3122 11.538 28.3822 11.1553 28.3822 10.698V10.026H26.0162C25.8389 10.026 25.7082 9.97 25.6242 9.858C25.5495 9.73667 25.5122 9.59667 25.5122 9.438C25.5122 9.27933 25.5495 9.13933 25.6242 9.018C25.7082 8.89667 25.8389 8.836 26.0162 8.836H32.0502ZM34.4862 8.108C34.6729 8.108 34.8362 8.15467 34.9762 8.248C35.1162 8.34133 35.1862 8.49067 35.1862 8.696V11.202H36.7262C36.9129 11.202 37.0435 11.2627 37.1182 11.384C37.2022 11.5053 37.2442 11.6453 37.2442 11.804C37.2442 11.9813 37.2022 12.1307 37.1182 12.252C37.0435 12.364 36.9129 12.42 36.7262 12.42H35.1862V15.206C35.1862 15.402 35.1162 15.5467 34.9762 15.64C34.8362 15.7333 34.6729 15.78 34.4862 15.78C34.2995 15.78 34.1362 15.7333 33.9962 15.64C33.8562 15.5467 33.7862 15.402 33.7862 15.206V8.696C33.7862 8.49067 33.8562 8.34133 33.9962 8.248C34.1362 8.15467 34.2995 8.108 34.4862 8.108ZM31.2522 15.906C32.5309 15.906 33.5155 16.13 34.2062 16.578C34.9062 17.0167 35.2562 17.6747 35.2562 18.552C35.2562 19.4293 34.9062 20.0873 34.2062 20.526C33.5155 20.974 32.5309 21.198 31.2522 21.198C29.9735 21.198 28.9842 20.974 28.2842 20.526C27.5935 20.0873 27.2482 19.4293 27.2482 18.552C27.2482 17.6747 27.5935 17.0167 28.2842 16.578C28.9842 16.13 29.9735 15.906 31.2522 15.906ZM31.2522 17.04C30.3282 17.04 29.6609 17.18 29.2502 17.46C28.8395 17.7307 28.6342 18.0947 28.6342 18.552C28.6342 19.0187 28.8395 19.3873 29.2502 19.658C29.6609 19.9287 30.3282 20.064 31.2522 20.064C32.1762 20.064 32.8435 19.9287 33.2542 19.658C33.6649 19.3873 33.8702 19.0187 33.8702 18.552C33.8702 18.0853 33.6649 17.7167 33.2542 17.446C32.8435 17.1753 32.1762 17.04 31.2522 17.04Z" fill="black"/>
</svg>
