<svg width="48" height="48" viewBox="0 0 48 48" fill="none" xmlns="http://www.w3.org/2000/svg">
<rect width="48" height="48" rx="24" fill="#89ECEE"/>
<path d="M23.3884 29.4907C24.277 29.4907 24.6891 28.8724 24.6891 28.0481V27.6101C24.7149 25.9099 25.3332 25.2015 27.3939 23.7854C29.5965 22.2906 31 20.5651 31 18.079C31 14.2152 27.8577 12 23.9549 12C21.044 12 18.481 13.3782 17.3863 15.8638C17.116 16.4694 17 17.0618 17 17.5509C17 18.2851 17.4248 18.8005 18.2106 18.8005C18.8673 18.8005 19.3053 18.4142 19.4987 17.7828C20.1681 15.3357 21.7782 14.4086 23.8648 14.4086C26.3762 14.4086 28.3342 15.8253 28.3342 18.0663C28.3342 19.9078 27.1879 20.9382 25.5393 22.0977C23.517 23.5018 22.036 25.0086 22.036 27.2755V28.0866C22.036 28.9109 22.4871 29.4907 23.3884 29.4907ZM23.3878 36.5357C24.405 36.5357 25.2167 35.7114 25.2167 34.7069C25.218 34.4663 25.1716 34.2279 25.0801 34.0054C24.9887 33.783 24.854 33.5808 24.6839 33.4107C24.5139 33.2407 24.3117 33.106 24.0892 33.0145C23.8668 32.9231 23.6284 32.8767 23.3878 32.878C22.3833 32.878 21.5458 33.6897 21.5458 34.7069C21.5458 35.7114 22.3833 36.5357 23.3878 36.5357Z" fill="#FBFBFB"/>
</svg>
