<svg width="48" height="48" viewBox="0 0 48 48" fill="none" xmlns="http://www.w3.org/2000/svg">
<g clip-path="url(#clip0_2694_105687)">
<rect width="48" height="48" rx="24" fill="black"/>
<path d="M25.0784 14C25.3724 14 25.6354 14.183 25.7344 14.457L26.4404 16.414C26.693 16.4767 26.911 16.5407 27.0944 16.606C27.2944 16.6773 27.5544 16.7873 27.8744 16.936L29.5184 16.066C29.6525 15.9946 29.8062 15.9687 29.9563 15.9924C30.1064 16.016 30.2447 16.0878 30.3504 16.197L31.7964 17.692C31.9884 17.891 32.0424 18.182 31.9344 18.436L31.1634 20.243C31.2907 20.4777 31.3934 20.679 31.4714 20.847C31.5554 21.029 31.6594 21.2823 31.7834 21.607L33.5804 22.377C33.8504 22.492 34.0174 22.762 33.9994 23.051L33.8674 25.126C33.8583 25.2608 33.8099 25.39 33.7282 25.4975C33.6464 25.6051 33.5349 25.6863 33.4074 25.731L31.7054 26.336C31.6567 26.5707 31.6054 26.7727 31.5514 26.942C31.464 27.2044 31.3645 27.4627 31.2534 27.716L32.1084 29.606C32.1692 29.7387 32.1857 29.8875 32.1554 30.0303C32.1252 30.1731 32.0498 30.3024 31.9404 30.399L30.3144 31.851C30.2075 31.9466 30.0738 32.0071 29.9315 32.0243C29.7891 32.0414 29.6449 32.0145 29.5184 31.947L27.8424 31.059C27.5804 31.1984 27.3099 31.321 27.0324 31.426L26.3004 31.7L25.6504 33.5C25.6017 33.6315 25.5147 33.7454 25.4006 33.8269C25.2865 33.9084 25.1505 33.9537 25.0104 33.957L23.1104 34C22.9664 34.0033 22.8249 33.9622 22.7052 33.8822C22.5855 33.8022 22.4934 33.6873 22.4414 33.553L21.6754 31.526C21.4141 31.4365 21.1553 31.3398 20.8994 31.236C20.6901 31.1454 20.484 31.0477 20.2814 30.943L18.3814 31.755C18.2562 31.8087 18.1181 31.8247 17.984 31.801C17.8499 31.7774 17.7256 31.7152 17.6264 31.622L16.2204 30.303C16.1153 30.2055 16.0437 30.0773 16.0159 29.9366C15.9881 29.796 16.0054 29.6502 16.0654 29.52L16.8824 27.74C16.7741 27.529 16.6734 27.3142 16.5804 27.096C16.472 26.8288 16.372 26.5584 16.2804 26.285L14.4904 25.74C14.3449 25.696 14.218 25.6052 14.1294 25.4817C14.0408 25.3582 13.9954 25.2089 14.0004 25.057L14.0704 23.136C14.0756 23.0107 14.1148 22.8892 14.1839 22.7846C14.2529 22.6799 14.3492 22.596 14.4624 22.542L16.3404 21.64C16.427 21.3213 16.5037 21.072 16.5704 20.892C16.6647 20.6503 16.7695 20.4127 16.8844 20.18L16.0704 18.46C16.0081 18.3295 15.9891 18.1825 16.0161 18.0405C16.0431 17.8984 16.1146 17.7686 16.2204 17.67L17.6244 16.344C17.7227 16.251 17.8458 16.1884 17.9789 16.1639C18.112 16.1394 18.2494 16.154 18.3744 16.206L20.2724 16.99C20.4817 16.8507 20.6724 16.736 20.8444 16.646C21.049 16.538 21.3237 16.4227 21.6684 16.3L22.3284 14.459C22.3777 14.3246 22.467 14.2085 22.5843 14.1265C22.7016 14.0444 22.8412 14.0002 22.9844 14H25.0784ZM24.0244 21.019C22.3574 21.019 21.0064 22.354 21.0064 24.002C21.0064 25.65 22.3574 26.986 24.0244 26.986C25.6914 26.986 27.0414 25.65 27.0414 24.002C27.0414 22.354 25.6914 21.019 24.0244 21.019Z" fill="#D9D9D9"/>
</g>
<defs>
<clipPath id="clip0_2694_105687">
<rect width="48" height="48" rx="24" fill="white"/>
</clipPath>
</defs>
</svg>
