<svg width="48" height="48" viewBox="0 0 48 48" fill="none" xmlns="http://www.w3.org/2000/svg">
<rect width="48" height="48" rx="24" fill="#5A5959"/>
<path d="M24.0002 19.5C23.1102 19.5 22.2401 19.7639 21.5001 20.2584C20.7601 20.7528 20.1833 21.4556 19.8427 22.2779C19.5021 23.1002 19.413 24.005 19.5866 24.8779C19.7603 25.7508 20.1889 26.5526 20.8182 27.182C21.4475 27.8113 22.2494 28.2399 23.1223 28.4135C23.9952 28.5871 24.9 28.498 25.7223 28.1574C26.5445 27.8168 27.2473 27.2401 27.7418 26.5C28.2363 25.76 28.5002 24.89 28.5002 24C28.4989 22.8069 28.0244 21.663 27.1808 20.8194C26.3371 19.9757 25.1933 19.5012 24.0002 19.5ZM24.0002 27C23.4068 27 22.8268 26.824 22.3335 26.4944C21.8401 26.1647 21.4556 25.6962 21.2285 25.148C21.0015 24.5999 20.9421 23.9967 21.0578 23.4147C21.1736 22.8328 21.4593 22.2982 21.8789 21.8787C22.2984 21.4591 22.833 21.1734 23.4149 21.0576C23.9969 20.9419 24.6 21.0013 25.1482 21.2283C25.6964 21.4554 26.1649 21.8399 26.4946 22.3333C26.8242 22.8266 27.0002 23.4066 27.0002 24C27.0002 24.7956 26.6841 25.5587 26.1215 26.1213C25.5589 26.6839 24.7958 27 24.0002 27ZM34.3071 22.0509C34.2862 21.9453 34.2428 21.8454 34.1799 21.7581C34.1169 21.6707 34.0359 21.5979 33.9424 21.5447L31.1458 19.9509L31.1346 16.799C31.1342 16.6905 31.1103 16.5833 31.0645 16.4849C31.0187 16.3865 30.9521 16.2992 30.8692 16.229C29.8548 15.3709 28.6866 14.7134 27.4267 14.2912C27.3275 14.2577 27.2224 14.2452 27.1181 14.2547C27.0138 14.2643 26.9126 14.2955 26.8211 14.3465L24.0002 15.9234L21.1764 14.3437C21.0849 14.2924 20.9836 14.2609 20.8791 14.2513C20.7746 14.2416 20.6693 14.2539 20.5699 14.2875C19.3109 14.7127 18.1441 15.3728 17.1311 16.2328C17.0484 16.3028 16.9818 16.39 16.936 16.4882C16.8902 16.5865 16.8663 16.6935 16.8658 16.8019L16.8517 19.9565L14.0552 21.5503C13.9616 21.6036 13.8806 21.6763 13.8177 21.7637C13.7548 21.8511 13.7114 21.9509 13.6905 22.0565C13.4345 23.3427 13.4345 24.6667 13.6905 25.9528C13.7114 26.0584 13.7548 26.1583 13.8177 26.2456C13.8806 26.333 13.9616 26.4058 14.0552 26.459L16.8517 28.0528L16.863 31.2047C16.8633 31.3132 16.8872 31.4204 16.933 31.5188C16.9788 31.6172 17.0455 31.7045 17.1283 31.7747C18.1427 32.6328 19.3109 33.2904 20.5708 33.7125C20.67 33.7461 20.7752 33.7585 20.8795 33.749C20.9838 33.7394 21.0849 33.7082 21.1764 33.6572L24.0002 32.0765L26.8239 33.6562C26.9357 33.7185 27.0616 33.7508 27.1896 33.75C27.2715 33.75 27.3528 33.7367 27.4305 33.7106C28.6893 33.286 29.8561 32.6265 30.8692 31.7672C30.952 31.6971 31.0185 31.61 31.0643 31.5117C31.1101 31.4135 31.1341 31.3065 31.1346 31.1981L31.1486 28.0434L33.9452 26.4497C34.0387 26.3964 34.1197 26.3236 34.1827 26.2363C34.2456 26.1489 34.289 26.049 34.3099 25.9434C34.5644 24.6583 34.5634 23.3357 34.3071 22.0509ZM32.9008 25.3237L30.2224 26.8472C30.105 26.9139 30.0078 27.0111 29.9411 27.1284C29.8867 27.2222 29.8296 27.3215 29.7714 27.4153C29.697 27.5335 29.6574 27.6703 29.6571 27.81L29.643 30.8334C28.9231 31.3988 28.121 31.8509 27.2646 32.174L24.5627 30.6684C24.4505 30.6064 24.3243 30.5741 24.1961 30.5747H24.1783C24.0649 30.5747 23.9505 30.5747 23.8371 30.5747C23.7029 30.5713 23.5702 30.6037 23.4527 30.6684L20.7489 32.1778C19.8907 31.8571 19.0864 31.4072 18.3639 30.8437L18.3536 27.825C18.3532 27.685 18.3135 27.548 18.2392 27.4294C18.1811 27.3356 18.1239 27.2419 18.0705 27.1425C18.0042 27.0233 17.9071 26.9242 17.7892 26.8556L15.108 25.3284C14.9692 24.4507 14.9692 23.5567 15.108 22.679L17.7817 21.1528C17.8991 21.0861 17.9963 20.9889 18.063 20.8715C18.1174 20.7778 18.1746 20.6784 18.2327 20.5847C18.3071 20.4664 18.3467 20.3297 18.3471 20.19L18.3611 17.1665C19.081 16.6012 19.8831 16.1491 20.7396 15.8259L23.4377 17.3315C23.5551 17.3966 23.6878 17.429 23.8221 17.4253C23.9355 17.4253 24.0499 17.4253 24.1633 17.4253C24.2975 17.4286 24.4301 17.3963 24.5477 17.3315L27.2514 15.8222C28.1097 16.1429 28.914 16.5927 29.6364 17.1562L29.6467 20.175C29.6472 20.3149 29.6868 20.452 29.7611 20.5706C29.8192 20.6644 29.8764 20.7581 29.9299 20.8575C29.9961 20.9767 30.0933 21.0758 30.2111 21.1444L32.8924 22.6715C33.033 23.5499 33.0345 24.4449 32.8971 25.3237H32.9008Z" fill="white"/>
</svg>
