<svg width="48" height="48" viewBox="0 0 48 48" fill="none" xmlns="http://www.w3.org/2000/svg">
<rect width="48" height="48" rx="24" fill="black"/>
<path fill-rule="evenodd" clip-rule="evenodd" d="M19.6237 24.7064C19.4362 24.5188 19.3309 24.2645 19.3309 23.9994C19.3309 23.7342 19.4362 23.4799 19.6237 23.2924L25.2807 17.6354C25.373 17.5399 25.4833 17.4637 25.6053 17.4113C25.7273 17.3589 25.8585 17.3313 25.9913 17.3301C26.1241 17.329 26.2558 17.3543 26.3787 17.4045C26.5016 17.4548 26.6132 17.5291 26.7071 17.623C26.801 17.7169 26.8753 17.8285 26.9255 17.9514C26.9758 18.0743 27.0011 18.206 27 18.3388C26.9988 18.4715 26.9712 18.6028 26.9188 18.7248C26.8664 18.8468 26.7902 18.9571 26.6947 19.0494L21.7447 23.9994L26.6947 28.9494C26.8769 29.138 26.9777 29.3906 26.9754 29.6528C26.9731 29.915 26.8679 30.1658 26.6825 30.3512C26.4971 30.5366 26.2463 30.6418 25.9841 30.644C25.7219 30.6463 25.4693 30.5455 25.2807 30.3634L19.6237 24.7064Z" fill="white"/>
</svg>
