<svg width="302" height="48" viewBox="0 0 302 48" fill="none" xmlns="http://www.w3.org/2000/svg">
<rect width="302" height="48" rx="8" fill="#E9FADB"/>
<path fill-rule="evenodd" clip-rule="evenodd" d="M28 36C34.6274 36 40 30.6274 40 24C40 17.3726 34.6274 12 28 12C21.3726 12 16 17.3726 16 24C16 30.6274 21.3726 36 28 36ZM23.25 24C23.25 21.3766 25.3766 19.25 28 19.25C29.8561 19.25 31.4658 20.3143 32.248 21.8717C32.5578 22.4886 33.3091 22.7376 33.926 22.4277C34.543 22.1179 34.7919 21.3666 34.482 20.7497C33.292 18.3803 30.8375 16.75 28 16.75C23.9959 16.75 20.75 19.9959 20.75 24C20.75 28.0041 23.9959 31.25 28 31.25C30.8375 31.25 33.292 29.6197 34.482 27.2503C34.7919 26.6334 34.543 25.8821 33.926 25.5723C33.3091 25.2624 32.5578 25.5114 32.248 26.1283C31.4658 27.6857 29.8561 28.75 28 28.75C25.3766 28.75 23.25 26.6234 23.25 24Z" fill="#D9D9D9"/>
<path d="M59.616 18.172C59.7373 18.172 59.826 18.214 59.882 18.298C59.938 18.382 59.966 18.4893 59.966 18.62C59.966 18.7413 59.938 18.8487 59.882 18.942C59.826 19.026 59.7373 19.068 59.616 19.068H57.054V20.734C57.054 21.042 57.068 21.322 57.096 21.574C57.1333 21.8167 57.194 22.0453 57.278 22.26C57.362 22.4653 57.474 22.6707 57.614 22.876C57.7633 23.0813 57.95 23.296 58.174 23.52C58.4913 23.8373 58.7993 24.1407 59.098 24.43C59.406 24.7193 59.6813 24.9667 59.924 25.172C60.0267 25.2653 60.0687 25.3773 60.05 25.508C60.0407 25.6293 59.9987 25.732 59.924 25.816C59.8307 25.9 59.7233 25.956 59.602 25.984C59.49 26.0027 59.3827 25.9607 59.28 25.858C59.0653 25.6713 58.8227 25.452 58.552 25.2C58.2813 24.9387 57.9873 24.6493 57.67 24.332C57.446 24.108 57.264 23.9167 57.124 23.758C56.9933 23.5993 56.886 23.4593 56.802 23.338C56.7273 23.2167 56.6713 23.114 56.634 23.03C56.5967 22.9367 56.5687 22.8527 56.55 22.778H56.536C56.5173 22.862 56.4893 22.9507 56.452 23.044C56.4147 23.128 56.354 23.2307 56.27 23.352C56.1953 23.4733 56.088 23.6133 55.948 23.772C55.808 23.9307 55.6307 24.122 55.416 24.346C55.0987 24.6633 54.7953 24.9573 54.506 25.228C54.2167 25.4987 53.918 25.7693 53.61 26.04C53.498 26.1427 53.3813 26.18 53.26 26.152C53.1387 26.124 53.0407 26.068 52.966 25.984C52.882 25.8813 52.8353 25.774 52.826 25.662C52.8167 25.5407 52.8633 25.4333 52.966 25.34C53.302 25.0413 53.6287 24.7427 53.946 24.444C54.2633 24.1453 54.5807 23.8373 54.898 23.52C55.122 23.296 55.304 23.0813 55.444 22.876C55.5933 22.6707 55.71 22.4653 55.794 22.26C55.878 22.0453 55.934 21.8167 55.962 21.574C55.9993 21.322 56.018 21.042 56.018 20.734V19.068H53.4C53.2787 19.068 53.19 19.026 53.134 18.942C53.078 18.8487 53.05 18.7413 53.05 18.62C53.05 18.4893 53.078 18.382 53.134 18.298C53.19 18.214 53.2787 18.172 53.4 18.172H59.616ZM62.5 17.164C62.6307 17.164 62.7473 17.1967 62.85 17.262C62.9527 17.3273 63.004 17.4347 63.004 17.584V28.728C63.004 28.8773 62.9527 28.9847 62.85 29.05C62.7473 29.1153 62.6307 29.148 62.5 29.148C62.3693 29.148 62.2527 29.1153 62.15 29.05C62.0473 28.9847 61.996 28.8773 61.996 28.728V22.232H59.49C59.3687 22.232 59.28 22.19 59.224 22.106C59.168 22.022 59.14 21.9147 59.14 21.784C59.14 21.6627 59.168 21.56 59.224 21.476C59.28 21.3827 59.3687 21.336 59.49 21.336H61.996V17.584C61.996 17.4347 62.0473 17.3273 62.15 17.262C62.2527 17.1967 62.3693 17.164 62.5 17.164ZM72.1902 17.92C72.3115 17.92 72.4002 17.962 72.4562 18.046C72.5122 18.13 72.5402 18.2327 72.5402 18.354C72.5402 18.4847 72.5122 18.592 72.4562 18.676C72.4002 18.76 72.3115 18.802 72.1902 18.802H69.6282V19.712C69.6282 20.188 69.7029 20.5893 69.8522 20.916C70.0015 21.2333 70.2535 21.5367 70.6082 21.826C70.9629 22.106 71.2942 22.3627 71.6022 22.596C71.9195 22.8293 72.1949 23.03 72.4282 23.198C72.5495 23.282 72.6149 23.3847 72.6242 23.506C72.6335 23.618 72.6009 23.7253 72.5262 23.828C72.4609 23.9213 72.3722 23.9867 72.2602 24.024C72.1482 24.0613 72.0269 24.0333 71.8962 23.94C71.7095 23.8187 71.4669 23.6507 71.1682 23.436C70.8695 23.212 70.5569 22.9693 70.2302 22.708C69.8662 22.4093 69.6002 22.162 69.4322 21.966C69.2642 21.7607 69.1615 21.5833 69.1242 21.434H69.1102C69.0729 21.5927 68.9702 21.7793 68.8022 21.994C68.6342 22.1993 68.3635 22.4467 67.9902 22.736C67.6635 22.9973 67.3369 23.2493 67.0102 23.492C66.6929 23.7253 66.3895 23.94 66.1002 24.136C65.9789 24.22 65.8622 24.248 65.7502 24.22C65.6382 24.1827 65.5449 24.1173 65.4702 24.024C65.3955 23.9213 65.3582 23.8093 65.3582 23.688C65.3675 23.5573 65.4375 23.45 65.5682 23.366C66.2495 22.89 66.9309 22.386 67.6122 21.854C67.9669 21.5553 68.2189 21.2473 68.3682 20.93C68.5175 20.6033 68.5922 20.202 68.5922 19.726V18.802H65.9462C65.8249 18.802 65.7362 18.76 65.6802 18.676C65.6242 18.592 65.5962 18.4847 65.5962 18.354C65.5962 18.2327 65.6242 18.13 65.6802 18.046C65.7362 17.962 65.8249 17.92 65.9462 17.92H72.1902ZM74.5422 17.164C74.6729 17.164 74.7895 17.1967 74.8922 17.262C75.0042 17.3273 75.0602 17.4347 75.0602 17.584V20.272H76.8382C76.9689 20.272 77.0622 20.3187 77.1182 20.412C77.1742 20.496 77.2022 20.6033 77.2022 20.734C77.2022 20.8553 77.1742 20.9627 77.1182 21.056C77.0622 21.14 76.9689 21.182 76.8382 21.182H75.0602V24.234C75.0602 24.3833 75.0042 24.4907 74.8922 24.556C74.7895 24.6213 74.6729 24.654 74.5422 24.654C74.4115 24.654 74.2949 24.6213 74.1922 24.556C74.0895 24.4907 74.0382 24.3833 74.0382 24.234V17.584C74.0382 17.4347 74.0895 17.3273 74.1922 17.262C74.2949 17.1967 74.4115 17.164 74.5422 17.164ZM74.0942 25.368C74.4582 25.368 74.7102 25.438 74.8502 25.578C74.9902 25.7087 75.0602 25.9513 75.0602 26.306V29.652C75.0602 29.8013 75.0042 29.9087 74.8922 29.974C74.7895 30.0393 74.6729 30.072 74.5422 30.072C74.4115 30.072 74.2949 30.0393 74.1922 29.974C74.0895 29.9087 74.0382 29.8013 74.0382 29.652V26.502C74.0382 26.334 73.9495 26.25 73.7722 26.25H67.3602C67.2389 26.25 67.1502 26.208 67.0942 26.124C67.0382 26.04 67.0102 25.9373 67.0102 25.816C67.0102 25.6853 67.0382 25.578 67.0942 25.494C67.1502 25.41 67.2389 25.368 67.3602 25.368H74.0942ZM84.4144 17.738C84.7784 17.738 85.0304 17.808 85.1704 17.948C85.3104 18.0787 85.3804 18.3213 85.3804 18.676V19.418C85.3804 19.9967 85.3337 20.5567 85.2404 21.098C85.1564 21.63 85.0397 22.0827 84.8904 22.456L83.9804 22.246C84.111 21.8167 84.209 21.3733 84.2744 20.916C84.3397 20.4587 84.3724 19.9733 84.3724 19.46V18.886C84.3724 18.7833 84.349 18.718 84.3024 18.69C84.265 18.6527 84.1997 18.634 84.1064 18.634H79.5424C79.4117 18.634 79.3184 18.592 79.2624 18.508C79.2064 18.4147 79.1784 18.3073 79.1784 18.186C79.1784 18.0553 79.2064 17.948 79.2624 17.864C79.3184 17.78 79.4117 17.738 79.5424 17.738H84.4144ZM88.1524 17.164C88.283 17.164 88.3997 17.1967 88.5024 17.262C88.605 17.3273 88.6564 17.4347 88.6564 17.584V26.544C88.6564 26.6933 88.605 26.8007 88.5024 26.866C88.3997 26.9313 88.283 26.964 88.1524 26.964C88.0217 26.964 87.905 26.9313 87.8024 26.866C87.6997 26.8007 87.6484 26.6933 87.6484 26.544V25.2H85.0724C84.9604 25.2 84.8764 25.1627 84.8204 25.088C84.7644 25.004 84.7364 24.9013 84.7364 24.78C84.7364 24.6587 84.7644 24.5607 84.8204 24.486C84.8764 24.402 84.9604 24.36 85.0724 24.36H87.6484V17.584C87.6484 17.4347 87.6997 17.3273 87.8024 17.262C87.905 17.1967 88.0217 17.164 88.1524 17.164ZM86.3324 21.84C86.4444 21.8307 86.533 21.8633 86.5984 21.938C86.673 22.0033 86.7197 22.0967 86.7384 22.218C86.7477 22.3487 86.7244 22.4607 86.6684 22.554C86.6217 22.638 86.5424 22.6847 86.4304 22.694C85.8704 22.7593 85.2777 22.8153 84.6524 22.862C84.0364 22.8993 83.4017 22.932 82.7484 22.96V25.522C82.7484 25.6713 82.697 25.7787 82.5944 25.844C82.4917 25.9093 82.375 25.942 82.2444 25.942C82.1137 25.942 81.997 25.9093 81.8944 25.844C81.7917 25.7787 81.7404 25.6713 81.7404 25.522V23.002C80.6764 23.03 79.6124 23.044 78.5484 23.044C78.427 23.044 78.3384 23.002 78.2824 22.918C78.2264 22.8247 78.1984 22.7173 78.1984 22.596C78.1984 22.484 78.2264 22.386 78.2824 22.302C78.3384 22.2087 78.427 22.162 78.5484 22.162C79.799 22.162 81.0777 22.148 82.3844 22.12C83.7004 22.0827 85.0164 21.9893 86.3324 21.84ZM80.8304 26.25C80.961 26.25 81.0777 26.2827 81.1804 26.348C81.2924 26.4133 81.3484 26.5253 81.3484 26.684V28.658C81.3484 28.826 81.437 28.91 81.6144 28.91H88.6704C88.7917 28.91 88.8804 28.952 88.9364 29.036C88.9924 29.12 89.0204 29.2227 89.0204 29.344C89.0204 29.4653 88.9924 29.568 88.9364 29.652C88.8804 29.7453 88.7917 29.792 88.6704 29.792H81.2784C80.9144 29.792 80.6624 29.722 80.5224 29.582C80.3824 29.4513 80.3124 29.2087 80.3124 28.854V26.684C80.3124 26.5253 80.3637 26.4133 80.4664 26.348C80.5784 26.2827 80.6997 26.25 80.8304 26.25ZM101.315 17.92C101.436 17.92 101.525 17.962 101.581 18.046C101.637 18.13 101.665 18.2327 101.665 18.354C101.665 18.4847 101.637 18.592 101.581 18.676C101.525 18.76 101.436 18.802 101.315 18.802H98.7806V19.796C98.7806 20.2813 98.8552 20.6873 99.0046 21.014C99.1539 21.3313 99.4059 21.6347 99.7606 21.924C100.115 22.1947 100.447 22.4467 100.755 22.68C101.072 22.9133 101.338 23.1093 101.553 23.268C101.674 23.3613 101.739 23.4687 101.749 23.59C101.758 23.702 101.725 23.8093 101.651 23.912C101.585 24.0053 101.497 24.0707 101.385 24.108C101.273 24.1453 101.151 24.1173 101.021 24.024C100.853 23.912 100.619 23.744 100.321 23.52C100.022 23.296 99.7092 23.058 99.3826 22.806C99.0186 22.5073 98.7526 22.26 98.5846 22.064C98.4166 21.8587 98.3139 21.6813 98.2766 21.532H98.2626C98.2252 21.6907 98.1226 21.8727 97.9546 22.078C97.7866 22.2833 97.5159 22.5353 97.1426 22.834C96.8159 23.0953 96.4892 23.3473 96.1626 23.59C95.8452 23.8233 95.5512 24.0333 95.2806 24.22C95.1592 24.304 95.0426 24.3273 94.9306 24.29C94.8186 24.2527 94.7252 24.1873 94.6506 24.094C94.5759 23.9913 94.5386 23.8793 94.5386 23.758C94.5479 23.6367 94.6179 23.534 94.7486 23.45C95.0846 23.2073 95.4159 22.9647 95.7426 22.722C96.0692 22.4793 96.4099 22.218 96.7646 21.938C97.1192 21.6487 97.3712 21.3453 97.5206 21.028C97.6699 20.7013 97.7446 20.3 97.7446 19.824V18.802H95.1266C95.0052 18.802 94.9166 18.76 94.8606 18.676C94.8046 18.592 94.7766 18.4847 94.7766 18.354C94.7766 18.2327 94.8046 18.13 94.8606 18.046C94.9166 17.962 95.0052 17.92 95.1266 17.92H101.315ZM104.227 17.164C104.357 17.164 104.474 17.1967 104.577 17.262C104.679 17.3273 104.731 17.4347 104.731 17.584V24.402C104.731 24.5513 104.679 24.6587 104.577 24.724C104.474 24.7893 104.357 24.822 104.227 24.822C104.096 24.822 103.979 24.7893 103.877 24.724C103.774 24.6587 103.723 24.5513 103.723 24.402V21.35H101.329C101.207 21.35 101.119 21.308 101.063 21.224C101.007 21.14 100.979 21.0327 100.979 20.902C100.979 20.7807 101.007 20.678 101.063 20.594C101.119 20.5007 101.207 20.454 101.329 20.454H103.723V17.584C103.723 17.4347 103.774 17.3273 103.877 17.262C103.979 17.1967 104.096 17.164 104.227 17.164ZM100.839 24.99C102.117 24.99 103.102 25.2093 103.793 25.648C104.483 26.0773 104.829 26.712 104.829 27.552C104.829 28.392 104.483 29.0267 103.793 29.456C103.102 29.8947 102.117 30.114 100.839 30.114C99.5599 30.114 98.5752 29.8947 97.8846 29.456C97.2032 29.0267 96.8626 28.392 96.8626 27.552C96.8626 26.712 97.2032 26.0773 97.8846 25.648C98.5752 25.2093 99.5599 24.99 100.839 24.99ZM100.839 25.83C99.8212 25.83 99.0699 25.984 98.5846 26.292C98.1086 26.6 97.8706 27.02 97.8706 27.552C97.8706 28.084 98.1086 28.504 98.5846 28.812C99.0699 29.12 99.8212 29.274 100.839 29.274C101.856 29.274 102.607 29.12 103.093 28.812C103.578 28.504 103.821 28.084 103.821 27.552C103.821 27.02 103.578 26.6 103.093 26.292C102.607 25.984 101.856 25.83 100.839 25.83ZM109.171 17.78C109.301 17.78 109.418 17.8127 109.521 17.878C109.623 17.9433 109.675 18.0507 109.675 18.2V20.146H116.003V18.2C116.003 18.0507 116.054 17.9433 116.157 17.878C116.259 17.8127 116.376 17.78 116.507 17.78C116.637 17.78 116.754 17.8127 116.857 17.878C116.959 17.9433 117.011 18.0507 117.011 18.2V23.226C117.011 23.5807 116.941 23.828 116.801 23.968C116.661 24.0987 116.409 24.164 116.045 24.164H109.633C109.269 24.164 109.017 24.0987 108.877 23.968C108.737 23.828 108.667 23.5807 108.667 23.226V18.2C108.667 18.0507 108.718 17.9433 108.821 17.878C108.923 17.8127 109.04 17.78 109.171 17.78ZM109.675 23.03C109.675 23.198 109.763 23.282 109.941 23.282H115.737C115.914 23.282 116.003 23.198 116.003 23.03V21.028H109.675V23.03ZM113.357 26.964H118.313C118.443 26.964 118.537 27.006 118.593 27.09C118.649 27.174 118.677 27.2813 118.677 27.412C118.677 27.5333 118.649 27.636 118.593 27.72C118.537 27.804 118.443 27.846 118.313 27.846H107.365C107.234 27.846 107.141 27.804 107.085 27.72C107.029 27.636 107.001 27.5333 107.001 27.412C107.001 27.2813 107.029 27.174 107.085 27.09C107.141 27.006 107.234 26.964 107.365 26.964H112.335V23.534H113.357V26.964Z" fill="black"/>
<path d="M279 17L286 24L279 31" stroke="black" stroke-linecap="round" stroke-linejoin="round"/>
</svg>
