<svg width="302" height="48" viewBox="0 0 302 48" fill="none" xmlns="http://www.w3.org/2000/svg">
<rect width="302" height="48" rx="8" fill="#E9FADB"/>
<path fill-rule="evenodd" clip-rule="evenodd" d="M28 36C34.6274 36 40 30.6274 40 24C40 17.3726 34.6274 12 28 12C21.3726 12 16 17.3726 16 24C16 30.6274 21.3726 36 28 36ZM23.25 24C23.25 21.3766 25.3766 19.25 28 19.25C29.8561 19.25 31.4658 20.3143 32.248 21.8717C32.5578 22.4886 33.3091 22.7376 33.926 22.4277C34.543 22.1179 34.7919 21.3666 34.482 20.7497C33.292 18.3803 30.8375 16.75 28 16.75C23.9959 16.75 20.75 19.9959 20.75 24C20.75 28.0041 23.9959 31.25 28 31.25C30.8375 31.25 33.292 29.6197 34.482 27.2503C34.7919 26.6334 34.543 25.8821 33.926 25.5723C33.3091 25.2624 32.5578 25.5114 32.248 26.1283C31.4658 27.6857 29.8561 28.75 28 28.75C25.3766 28.75 23.25 26.6234 23.25 24Z" fill="#C05BFE"/>
<path d="M59.476 18.088C59.644 18.088 59.7653 18.1487 59.84 18.27C59.924 18.3913 59.966 18.5313 59.966 18.69C59.966 18.8487 59.924 18.9887 59.84 19.11C59.7653 19.2313 59.644 19.292 59.476 19.292H57.222V20.692C57.222 21 57.236 21.2753 57.264 21.518C57.3013 21.7607 57.362 21.9893 57.446 22.204C57.53 22.4093 57.6373 22.61 57.768 22.806C57.908 23.002 58.0807 23.2027 58.286 23.408C58.5847 23.7067 58.874 23.9913 59.154 24.262C59.434 24.5233 59.6813 24.7473 59.896 24.934C60.036 25.0647 60.092 25.214 60.064 25.382C60.0453 25.55 59.98 25.69 59.868 25.802C59.756 25.9233 59.6207 25.998 59.462 26.026C59.3033 26.054 59.154 26.0073 59.014 25.886C58.8273 25.718 58.608 25.5173 58.356 25.284C58.1133 25.0413 57.8473 24.78 57.558 24.5C57.362 24.2947 57.1987 24.122 57.068 23.982C56.9373 23.8327 56.8347 23.702 56.76 23.59C56.6853 23.478 56.6293 23.38 56.592 23.296C56.5547 23.212 56.5313 23.1327 56.522 23.058H56.508C56.4893 23.142 56.4613 23.226 56.424 23.31C56.396 23.394 56.34 23.492 56.256 23.604C56.1813 23.716 56.0787 23.8467 55.948 23.996C55.8267 24.1453 55.6633 24.3227 55.458 24.528C55.178 24.808 54.9027 25.0787 54.632 25.34C54.3613 25.6013 54.086 25.8533 53.806 26.096C53.6567 26.2267 53.498 26.2687 53.33 26.222C53.162 26.1753 53.0267 26.0913 52.924 25.97C52.812 25.8393 52.7513 25.6947 52.742 25.536C52.742 25.368 52.812 25.2233 52.952 25.102C53.568 24.5607 54.1607 23.996 54.73 23.408C54.9353 23.2027 55.1033 23.002 55.234 22.806C55.374 22.61 55.486 22.4093 55.57 22.204C55.654 21.9893 55.71 21.7607 55.738 21.518C55.7753 21.2753 55.794 21 55.794 20.692V19.292H53.47C53.2927 19.292 53.162 19.2313 53.078 19.11C53.0033 18.9887 52.966 18.8487 52.966 18.69C52.966 18.5313 53.0033 18.3913 53.078 18.27C53.162 18.1487 53.2927 18.088 53.47 18.088H59.476ZM62.43 17.108C62.6167 17.108 62.78 17.1547 62.92 17.248C63.06 17.3413 63.13 17.4907 63.13 17.696V28.616C63.13 28.8213 63.06 28.9707 62.92 29.064C62.78 29.1573 62.6167 29.204 62.43 29.204C62.2527 29.204 62.094 29.1573 61.954 29.064C61.814 28.9707 61.744 28.8213 61.744 28.616V22.4H59.616C59.4387 22.4 59.308 22.3393 59.224 22.218C59.1493 22.0967 59.112 21.9567 59.112 21.798C59.112 21.63 59.1493 21.49 59.224 21.378C59.308 21.2567 59.4387 21.196 59.616 21.196H61.744V17.696C61.744 17.4907 61.814 17.3413 61.954 17.248C62.094 17.1547 62.2527 17.108 62.43 17.108ZM72.0502 17.836C72.2182 17.836 72.3395 17.8967 72.4142 18.018C72.4982 18.1393 72.5402 18.2793 72.5402 18.438C72.5402 18.5967 72.4982 18.7367 72.4142 18.858C72.3395 18.97 72.2182 19.026 72.0502 19.026H69.7822V19.656C69.7822 20.1133 69.8522 20.496 69.9922 20.804C70.1322 21.112 70.3702 21.4013 70.7062 21.672C71.0329 21.9427 71.3409 22.1853 71.6302 22.4C71.9195 22.6147 72.1762 22.8013 72.4002 22.96C72.5589 23.072 72.6429 23.2073 72.6522 23.366C72.6615 23.5247 72.6149 23.674 72.5122 23.814C72.4189 23.926 72.2929 24.0147 72.1342 24.08C71.9849 24.136 71.8215 24.1033 71.6442 23.982C71.4762 23.8607 71.2569 23.702 70.9862 23.506C70.7155 23.3007 70.4309 23.0767 70.1322 22.834C69.7775 22.5447 69.5255 22.316 69.3762 22.148C69.2362 21.9707 69.1475 21.812 69.1102 21.672H69.0962C69.0589 21.8307 68.9609 22.0033 68.8022 22.19C68.6529 22.3767 68.4009 22.61 68.0462 22.89C67.7382 23.1327 67.4349 23.366 67.1362 23.59C66.8469 23.8047 66.5622 24.01 66.2822 24.206C66.1235 24.318 65.9602 24.346 65.7922 24.29C65.6335 24.234 65.5122 24.1453 65.4282 24.024C65.3255 23.8933 65.2789 23.744 65.2882 23.576C65.2975 23.408 65.3815 23.2633 65.5402 23.142C65.8762 22.9087 66.1982 22.68 66.5062 22.456C66.8235 22.2227 67.1455 21.9753 67.4722 21.714C67.7989 21.4433 68.0322 21.154 68.1722 20.846C68.3122 20.538 68.3822 20.1553 68.3822 19.698V19.026H66.0162C65.8389 19.026 65.7082 18.97 65.6242 18.858C65.5495 18.7367 65.5122 18.5967 65.5122 18.438C65.5122 18.2793 65.5495 18.1393 65.6242 18.018C65.7082 17.8967 65.8389 17.836 66.0162 17.836H72.0502ZM74.4862 17.108C74.6729 17.108 74.8362 17.1547 74.9762 17.248C75.1162 17.3413 75.1862 17.4907 75.1862 17.696V20.132H76.7262C76.9129 20.132 77.0435 20.1927 77.1182 20.314C77.2022 20.4353 77.2442 20.5753 77.2442 20.734C77.2442 20.9113 77.2022 21.0607 77.1182 21.182C77.0435 21.294 76.9129 21.35 76.7262 21.35H75.1862V24.094C75.1862 24.2993 75.1162 24.4487 74.9762 24.542C74.8362 24.6353 74.6729 24.682 74.4862 24.682C74.2995 24.682 74.1362 24.6353 73.9962 24.542C73.8562 24.4487 73.7862 24.2993 73.7862 24.094V17.696C73.7862 17.4907 73.8562 17.3413 73.9962 17.248C74.1362 17.1547 74.2995 17.108 74.4862 17.108ZM74.1082 25.284C74.5189 25.284 74.7989 25.3587 74.9482 25.508C75.1069 25.6573 75.1862 25.9327 75.1862 26.334V29.54C75.1862 29.7453 75.1162 29.8947 74.9762 29.988C74.8362 30.0813 74.6729 30.128 74.4862 30.128C74.2995 30.128 74.1362 30.0813 73.9962 29.988C73.8562 29.8947 73.7862 29.7453 73.7862 29.54V26.768C73.7862 26.5813 73.6882 26.488 73.4922 26.488H67.4022C67.2249 26.488 67.0942 26.4273 67.0102 26.306C66.9355 26.1847 66.8982 26.0447 66.8982 25.886C66.8982 25.7273 66.9355 25.5873 67.0102 25.466C67.0942 25.3447 67.2249 25.284 67.4022 25.284H74.1082ZM84.3864 17.626C84.797 17.626 85.077 17.7007 85.2264 17.85C85.385 17.9993 85.4644 18.2747 85.4644 18.676V19.376C85.4644 20.0013 85.4084 20.594 85.2964 21.154C85.1844 21.7047 85.0584 22.1573 84.9184 22.512L83.6864 22.232C83.817 21.7933 83.915 21.3593 83.9804 20.93C84.0457 20.4913 84.0784 20.02 84.0784 19.516V19.138C84.0784 19.026 84.055 18.9513 84.0084 18.914C83.9617 18.8673 83.887 18.844 83.7844 18.844H79.5564C79.3884 18.844 79.2624 18.7833 79.1784 18.662C79.1037 18.5407 79.0664 18.4007 79.0664 18.242C79.0664 18.074 79.1037 17.9293 79.1784 17.808C79.2624 17.6867 79.3884 17.626 79.5564 17.626H84.3864ZM88.0824 17.108C88.269 17.108 88.4324 17.1547 88.5724 17.248C88.7124 17.3413 88.7824 17.4907 88.7824 17.696V26.404C88.7824 26.6093 88.7124 26.7587 88.5724 26.852C88.4324 26.9453 88.269 26.992 88.0824 26.992C87.905 26.992 87.7464 26.9453 87.6064 26.852C87.4664 26.7587 87.3964 26.6093 87.3964 26.404V25.34H85.1564C84.9977 25.34 84.8764 25.2887 84.7924 25.186C84.7177 25.074 84.6804 24.9387 84.6804 24.78C84.6804 24.6213 84.7177 24.4907 84.7924 24.388C84.8764 24.276 84.9977 24.22 85.1564 24.22H87.3964V17.696C87.3964 17.4907 87.4664 17.3413 87.6064 17.248C87.7464 17.1547 87.905 17.108 88.0824 17.108ZM86.1224 21.756C86.281 21.7373 86.407 21.7793 86.5004 21.882C86.5937 21.9753 86.645 22.106 86.6544 22.274C86.673 22.4327 86.645 22.5727 86.5704 22.694C86.505 22.8153 86.393 22.8853 86.2344 22.904C85.7397 22.9507 85.2124 22.9973 84.6524 23.044C84.1017 23.0813 83.523 23.1093 82.9164 23.128V25.354C82.9164 25.5593 82.8464 25.7087 82.7064 25.802C82.5664 25.8953 82.4077 25.942 82.2304 25.942C82.053 25.942 81.8944 25.8953 81.7544 25.802C81.6144 25.7087 81.5444 25.5593 81.5444 25.354V23.184C81.059 23.2027 80.5737 23.212 80.0884 23.212C79.603 23.212 79.1177 23.212 78.6324 23.212C78.4644 23.212 78.3384 23.156 78.2544 23.044C78.1797 22.9227 78.1424 22.7827 78.1424 22.624C78.1424 22.4653 78.1797 22.33 78.2544 22.218C78.3384 22.0967 78.4644 22.036 78.6324 22.036C79.855 22.036 81.0964 22.022 82.3564 21.994C83.6164 21.966 84.8717 21.8867 86.1224 21.756ZM80.9144 26.25C81.0917 26.25 81.2504 26.2967 81.3904 26.39C81.5397 26.4833 81.6144 26.6327 81.6144 26.838V28.378C81.6144 28.4807 81.633 28.5507 81.6704 28.588C81.717 28.6347 81.7964 28.658 81.9084 28.658H88.6284C88.7964 28.658 88.9177 28.7187 88.9924 28.84C89.0764 28.9613 89.1184 29.1013 89.1184 29.26C89.1184 29.4187 89.0764 29.554 88.9924 29.666C88.9177 29.7873 88.7964 29.848 88.6284 29.848H81.2784C80.8677 29.848 80.583 29.7733 80.4244 29.624C80.275 29.4747 80.2004 29.1993 80.2004 28.798V26.838C80.2004 26.6327 80.2704 26.4833 80.4104 26.39C80.5597 26.2967 80.7277 26.25 80.9144 26.25ZM101.175 17.836C101.343 17.836 101.464 17.8967 101.539 18.018C101.623 18.1393 101.665 18.2793 101.665 18.438C101.665 18.5967 101.623 18.7367 101.539 18.858C101.464 18.97 101.343 19.026 101.175 19.026H98.9346V19.782C98.9346 20.23 99.0046 20.608 99.1446 20.916C99.2846 21.224 99.5226 21.5133 99.8586 21.784C100.185 22.0547 100.489 22.2973 100.769 22.512C101.058 22.7267 101.31 22.9087 101.525 23.058C101.683 23.1793 101.767 23.3193 101.777 23.478C101.786 23.6273 101.739 23.772 101.637 23.912C101.543 24.024 101.417 24.1127 101.259 24.178C101.109 24.234 100.946 24.2013 100.769 24.08C100.61 23.968 100.395 23.814 100.125 23.618C99.8632 23.4127 99.5832 23.1887 99.2846 22.946C98.9299 22.666 98.6779 22.4373 98.5286 22.26C98.3886 22.0827 98.2999 21.924 98.2626 21.784H98.2486C98.2112 21.9427 98.1132 22.1153 97.9546 22.302C97.8052 22.4887 97.5532 22.7267 97.1986 23.016C96.8906 23.2587 96.5919 23.4873 96.3026 23.702C96.0132 23.9167 95.7332 24.1173 95.4626 24.304C95.3039 24.4253 95.1406 24.458 94.9726 24.402C94.8139 24.346 94.6926 24.2573 94.6086 24.136C94.5059 23.996 94.4592 23.8467 94.4686 23.688C94.4779 23.52 94.5619 23.3753 94.7206 23.254C95.0472 23.0207 95.3646 22.792 95.6726 22.568C95.9806 22.344 96.2979 22.0967 96.6246 21.826C96.9512 21.5553 97.1846 21.266 97.3246 20.958C97.4646 20.65 97.5346 20.2673 97.5346 19.81V19.026H95.1966C95.0192 19.026 94.8886 18.97 94.8046 18.858C94.7299 18.7367 94.6926 18.5967 94.6926 18.438C94.6926 18.2793 94.7299 18.1393 94.8046 18.018C94.8886 17.8967 95.0192 17.836 95.1966 17.836H101.175ZM104.171 17.108C104.348 17.108 104.507 17.1547 104.647 17.248C104.787 17.3413 104.857 17.4907 104.857 17.696V24.206C104.857 24.402 104.787 24.5467 104.647 24.64C104.507 24.7333 104.348 24.78 104.171 24.78C103.984 24.78 103.821 24.7333 103.681 24.64C103.541 24.5467 103.471 24.402 103.471 24.206V21.504H101.455C101.277 21.504 101.147 21.4433 101.063 21.322C100.988 21.2007 100.951 21.0607 100.951 20.902C100.951 20.734 100.988 20.594 101.063 20.482C101.147 20.3607 101.277 20.3 101.455 20.3H103.471V17.696C103.471 17.4907 103.541 17.3413 103.681 17.248C103.821 17.1547 103.984 17.108 104.171 17.108ZM100.825 24.906C102.131 24.906 103.139 25.13 103.849 25.578C104.567 26.0167 104.927 26.6747 104.927 27.552C104.927 28.4293 104.567 29.0873 103.849 29.526C103.139 29.974 102.131 30.198 100.825 30.198C99.5179 30.198 98.5052 29.974 97.7866 29.526C97.0772 29.0873 96.7226 28.4293 96.7226 27.552C96.7226 26.6747 97.0772 26.0167 97.7866 25.578C98.5052 25.13 99.5179 24.906 100.825 24.906ZM100.825 26.04C99.8726 26.04 99.1819 26.18 98.7526 26.46C98.3232 26.7307 98.1086 27.0947 98.1086 27.552C98.1086 28.0187 98.3232 28.3873 98.7526 28.658C99.1819 28.9287 99.8726 29.064 100.825 29.064C101.777 29.064 102.467 28.9287 102.897 28.658C103.326 28.3873 103.541 28.0187 103.541 27.552C103.541 27.0853 103.326 26.7167 102.897 26.446C102.467 26.1753 101.777 26.04 100.825 26.04ZM109.241 17.696C109.418 17.696 109.577 17.7473 109.717 17.85C109.866 17.9433 109.941 18.088 109.941 18.284V19.95H115.737V18.284C115.737 18.088 115.807 17.9433 115.947 17.85C116.096 17.7473 116.255 17.696 116.423 17.696C116.609 17.696 116.773 17.7473 116.913 17.85C117.062 17.9433 117.137 18.088 117.137 18.284V23.226C117.137 23.6273 117.057 23.9027 116.899 24.052C116.749 24.2013 116.469 24.276 116.059 24.276H109.619C109.208 24.276 108.928 24.2013 108.779 24.052C108.629 23.9027 108.555 23.6273 108.555 23.226V18.284C108.555 18.088 108.625 17.9433 108.765 17.85C108.905 17.7473 109.063 17.696 109.241 17.696ZM109.941 22.806C109.941 22.9927 110.039 23.086 110.235 23.086H115.443C115.639 23.086 115.737 22.9927 115.737 22.806V21.14H109.941V22.806ZM113.539 26.796H118.229C118.397 26.796 118.518 26.8567 118.593 26.978C118.677 27.09 118.719 27.2253 118.719 27.384C118.719 27.5427 118.677 27.6827 118.593 27.804C118.518 27.9253 118.397 27.986 118.229 27.986H107.449C107.281 27.986 107.155 27.9253 107.071 27.804C106.996 27.6827 106.959 27.5427 106.959 27.384C106.959 27.2253 106.996 27.09 107.071 26.978C107.155 26.8567 107.281 26.796 107.449 26.796H112.139V23.534H113.539V26.796Z" fill="black"/>
<g clip-path="url(#clip0_2694_79457)">
<path fill-rule="evenodd" clip-rule="evenodd" d="M277.529 23.4452C277.716 23.6328 277.821 23.8871 277.821 24.1522C277.821 24.4174 277.716 24.6717 277.529 24.8592L271.872 30.5162C271.779 30.6118 271.669 30.6879 271.547 30.7403C271.425 30.7928 271.294 30.8203 271.161 30.8215C271.028 30.8226 270.897 30.7973 270.774 30.7471C270.651 30.6968 270.539 30.6225 270.445 30.5286C270.351 30.4347 270.277 30.3231 270.227 30.2002C270.177 30.0773 270.151 29.9456 270.152 29.8128C270.154 29.6801 270.181 29.5488 270.234 29.4268C270.286 29.3048 270.362 29.1945 270.458 29.1022L275.408 24.1522L270.458 19.2022C270.275 19.0136 270.175 18.761 270.177 18.4988C270.179 18.2366 270.284 17.9858 270.47 17.8004C270.655 17.615 270.906 17.5098 271.168 17.5076C271.43 17.5053 271.683 17.6061 271.872 17.7882L277.529 23.4452Z" fill="#93E54C"/>
</g>
<defs>
<clipPath id="clip0_2694_79457">
<rect width="24" height="24" fill="white" transform="translate(262 12)"/>
</clipPath>
</defs>
</svg>
