<svg width="302" height="48" viewBox="0 0 302 48" fill="none" xmlns="http://www.w3.org/2000/svg">
<rect width="302" height="48" rx="8" fill="#E9FADB"/>
<path fill-rule="evenodd" clip-rule="evenodd" d="M34 18C34 17.4477 33.5523 17 33 17H24C23.4477 17 23 17.4477 23 18C23 18.5523 23.4477 19 24 19H31C31.5523 19 32 19.4477 32 20V30C32 30.5523 32.4477 31 33 31C33.5523 31 34 30.5523 34 30V18Z" fill="#FF6699"/>
<path fill-rule="evenodd" clip-rule="evenodd" d="M37 15C37 14.4477 36.5523 14 36 14H27C26.4477 14 26 14.4477 26 15C26 15.5523 26.4477 16 27 16H34C34.5523 16 35 16.4477 35 17V27C35 27.5523 35.4477 28 36 28C36.5523 28 37 27.5523 37 27V15Z" fill="#FF6699"/>
<rect x="20" y="20" width="11" height="14" rx="1" fill="#FF6699"/>
<path d="M55.416 17.696C55.9013 17.696 56.3213 17.7753 56.676 17.934C57.0307 18.0833 57.3247 18.2933 57.558 18.564C57.7913 18.8253 57.964 19.1427 58.076 19.516C58.188 19.88 58.244 20.2767 58.244 20.706C58.244 21.1447 58.188 21.5507 58.076 21.924C57.964 22.288 57.7913 22.6053 57.558 22.876C57.3247 23.1373 57.0307 23.3473 56.676 23.506C56.3213 23.6553 55.9013 23.73 55.416 23.73C54.9307 23.73 54.5107 23.6553 54.156 23.506C53.8013 23.3473 53.5073 23.1373 53.274 22.876C53.0407 22.6053 52.868 22.288 52.756 21.924C52.644 21.5507 52.588 21.1447 52.588 20.706C52.588 20.2767 52.644 19.88 52.756 19.516C52.868 19.1427 53.0407 18.8253 53.274 18.564C53.5073 18.2933 53.8013 18.0833 54.156 17.934C54.5107 17.7753 54.9307 17.696 55.416 17.696ZM55.416 18.858C55.136 18.858 54.898 18.9093 54.702 19.012C54.506 19.1053 54.3473 19.236 54.226 19.404C54.1047 19.572 54.016 19.768 53.96 19.992C53.904 20.216 53.876 20.454 53.876 20.706C53.876 20.958 53.904 21.196 53.96 21.42C54.016 21.644 54.1047 21.84 54.226 22.008C54.3473 22.176 54.506 22.3113 54.702 22.414C54.898 22.5073 55.136 22.554 55.416 22.554C55.696 22.554 55.934 22.5073 56.13 22.414C56.326 22.3113 56.4847 22.176 56.606 22.008C56.7273 21.84 56.816 21.644 56.872 21.42C56.928 21.196 56.956 20.958 56.956 20.706C56.956 20.454 56.928 20.216 56.872 19.992C56.816 19.768 56.7273 19.572 56.606 19.404C56.4847 19.236 56.326 19.1053 56.13 19.012C55.934 18.9093 55.696 18.858 55.416 18.858ZM62.794 17.108C62.962 17.108 63.1113 17.1547 63.242 17.248C63.382 17.332 63.452 17.4673 63.452 17.654V23.492C63.452 23.6787 63.382 23.8187 63.242 23.912C63.1113 23.996 62.962 24.038 62.794 24.038C62.6353 24.038 62.486 23.996 62.346 23.912C62.2153 23.8187 62.15 23.6787 62.15 23.492V21.294H60.652V23.422C60.652 23.6087 60.582 23.7487 60.442 23.842C60.3113 23.926 60.162 23.968 59.994 23.968C59.8353 23.968 59.686 23.926 59.546 23.842C59.4153 23.7487 59.35 23.6087 59.35 23.422V17.724C59.35 17.5373 59.4153 17.402 59.546 17.318C59.686 17.2247 59.8353 17.178 59.994 17.178C60.162 17.178 60.3113 17.2247 60.442 17.318C60.582 17.402 60.652 17.5373 60.652 17.724V20.118H62.15V17.654C62.15 17.4673 62.2153 17.332 62.346 17.248C62.486 17.1547 62.6353 17.108 62.794 17.108ZM55.598 24.64C55.7753 24.64 55.934 24.6867 56.074 24.78C56.2233 24.8733 56.298 25.018 56.298 25.214V26.39H62.08V25.214C62.08 25.018 62.15 24.8733 62.29 24.78C62.43 24.6867 62.584 24.64 62.752 24.64C62.9387 24.64 63.102 24.6867 63.242 24.78C63.382 24.8733 63.452 25.018 63.452 25.214V28.896C63.452 29.2973 63.3727 29.5727 63.214 29.722C63.0647 29.8713 62.7847 29.946 62.374 29.946H56.004C55.5933 29.946 55.3087 29.8713 55.15 29.722C55.0007 29.5727 54.926 29.2973 54.926 28.896V25.214C54.926 25.018 54.996 24.8733 55.136 24.78C55.276 24.6867 55.43 24.64 55.598 24.64ZM56.298 28.504C56.298 28.6067 56.3167 28.6813 56.354 28.728C56.4007 28.7747 56.48 28.798 56.592 28.798H61.786C61.982 28.798 62.08 28.7 62.08 28.504V27.51H56.298V28.504ZM70.0902 17.934C70.2675 17.934 70.4262 17.9807 70.5662 18.074C70.7155 18.1673 70.7902 18.3167 70.7902 18.522V20.93H73.9962V18.522C73.9962 18.3167 74.0662 18.1673 74.2062 18.074C74.3462 17.9807 74.5049 17.934 74.6822 17.934C74.8595 17.934 75.0182 17.9807 75.1582 18.074C75.2982 18.1673 75.3682 18.3167 75.3682 18.522V24.948C75.3682 25.3493 75.2889 25.6247 75.1302 25.774C74.9809 25.9233 74.7009 25.998 74.2902 25.998H70.4822C70.0715 25.998 69.7869 25.9233 69.6282 25.774C69.4789 25.6247 69.4042 25.3493 69.4042 24.948V18.522C69.4042 18.3167 69.4742 18.1673 69.6142 18.074C69.7542 17.9807 69.9129 17.934 70.0902 17.934ZM70.7902 24.514C70.7902 24.626 70.8089 24.7053 70.8462 24.752C70.8929 24.7893 70.9722 24.808 71.0842 24.808H73.7022C73.8049 24.808 73.8795 24.7893 73.9262 24.752C73.9729 24.7053 73.9962 24.626 73.9962 24.514V22.12H70.7902V24.514ZM78.6722 17.108C78.8589 17.108 79.0222 17.1547 79.1622 17.248C79.3022 17.3413 79.3722 17.4907 79.3722 17.696V28.616C79.3722 28.8213 79.3022 28.9707 79.1622 29.064C79.0222 29.1573 78.8589 29.204 78.6722 29.204C78.4949 29.204 78.3362 29.1573 78.1962 29.064C78.0562 28.9707 77.9862 28.8213 77.9862 28.616V22.596H74.7242V21.406H77.9862V17.696C77.9862 17.4907 78.0562 17.3413 78.1962 17.248C78.3362 17.1547 78.4949 17.108 78.6722 17.108ZM88.4324 17.948C88.6004 17.948 88.7217 18.0087 88.7964 18.13C88.8804 18.2513 88.9224 18.3913 88.9224 18.55C88.9224 18.7087 88.8804 18.8487 88.7964 18.97C88.7217 19.0913 88.6004 19.152 88.4324 19.152H86.1924V20.034C86.1924 20.5007 86.267 20.902 86.4164 21.238C86.575 21.5647 86.8224 21.8727 87.1584 22.162C87.4664 22.4233 87.7604 22.666 88.0404 22.89C88.3297 23.114 88.5817 23.3053 88.7964 23.464C88.955 23.576 89.0344 23.7113 89.0344 23.87C89.0437 24.0287 88.997 24.178 88.8944 24.318C88.801 24.4393 88.6704 24.528 88.5024 24.584C88.3437 24.6307 88.185 24.5933 88.0264 24.472C87.8397 24.332 87.6204 24.164 87.3684 23.968C87.1164 23.7627 86.841 23.5387 86.5424 23.296C86.1877 23.0067 85.9357 22.7733 85.7864 22.596C85.6464 22.4093 85.5577 22.2367 85.5204 22.078H85.5064C85.469 22.246 85.371 22.4327 85.2124 22.638C85.063 22.834 84.811 23.0767 84.4564 23.366C84.1577 23.6087 83.8637 23.842 83.5744 24.066C83.285 24.29 83.005 24.5 82.7344 24.696C82.5757 24.8173 82.4124 24.8547 82.2444 24.808C82.0857 24.752 81.9644 24.6633 81.8804 24.542C81.7777 24.402 81.7264 24.248 81.7264 24.08C81.7264 23.912 81.8104 23.7673 81.9784 23.646C82.277 23.422 82.5804 23.1933 82.8884 22.96C83.2057 22.7173 83.5184 22.4607 83.8264 22.19C84.1624 21.9007 84.405 21.5927 84.5544 21.266C84.713 20.9393 84.7924 20.5427 84.7924 20.076V19.152H82.4544C82.277 19.152 82.1464 19.0913 82.0624 18.97C81.9877 18.8487 81.9504 18.7087 81.9504 18.55C81.9504 18.3913 81.9877 18.2513 82.0624 18.13C82.1464 18.0087 82.277 17.948 82.4544 17.948H88.4324ZM91.4284 17.108C91.6057 17.108 91.7644 17.1547 91.9044 17.248C92.0444 17.3413 92.1144 17.4907 92.1144 17.696V25.984C92.1144 26.1893 92.0444 26.3387 91.9044 26.432C91.7644 26.5253 91.6057 26.572 91.4284 26.572C91.2417 26.572 91.0784 26.5253 90.9384 26.432C90.7984 26.3387 90.7284 26.1893 90.7284 25.984V21.742H88.7124C88.535 21.742 88.4044 21.6813 88.3204 21.56C88.2457 21.4387 88.2084 21.2987 88.2084 21.14C88.2084 20.972 88.2457 20.832 88.3204 20.72C88.4044 20.5987 88.535 20.538 88.7124 20.538H90.7284V17.696C90.7284 17.4907 90.7984 17.3413 90.9384 17.248C91.0784 17.1547 91.2417 17.108 91.4284 17.108ZM84.5964 25.396C84.7737 25.396 84.9324 25.4427 85.0724 25.536C85.2217 25.6293 85.2964 25.7787 85.2964 25.984V28.35C85.2964 28.4527 85.315 28.5227 85.3524 28.56C85.399 28.6067 85.4784 28.63 85.5904 28.63H91.9464C92.1237 28.63 92.2497 28.6907 92.3244 28.812C92.4084 28.9333 92.4504 29.078 92.4504 29.246C92.4504 29.4047 92.4084 29.5447 92.3244 29.666C92.2497 29.7873 92.1237 29.848 91.9464 29.848H84.9604C84.5497 29.848 84.265 29.7733 84.1064 29.624C83.957 29.4747 83.8824 29.1993 83.8824 28.798V25.984C83.8824 25.7787 83.9524 25.6293 84.0924 25.536C84.2417 25.4427 84.4097 25.396 84.5964 25.396Z" fill="black"/>
<g clip-path="url(#clip0_2694_79456)">
<path fill-rule="evenodd" clip-rule="evenodd" d="M277.529 23.4452C277.716 23.6328 277.821 23.8871 277.821 24.1522C277.821 24.4174 277.716 24.6717 277.529 24.8592L271.872 30.5162C271.779 30.6118 271.669 30.6879 271.547 30.7403C271.425 30.7928 271.294 30.8203 271.161 30.8215C271.028 30.8226 270.897 30.7973 270.774 30.7471C270.651 30.6968 270.539 30.6225 270.445 30.5286C270.351 30.4347 270.277 30.3231 270.227 30.2002C270.177 30.0773 270.151 29.9456 270.152 29.8128C270.154 29.6801 270.181 29.5488 270.234 29.4268C270.286 29.3048 270.362 29.1945 270.458 29.1022L275.408 24.1522L270.458 19.2022C270.275 19.0136 270.175 18.761 270.177 18.4988C270.179 18.2366 270.284 17.9858 270.47 17.8004C270.655 17.615 270.906 17.5098 271.168 17.5076C271.43 17.5053 271.683 17.6061 271.872 17.7882L277.529 23.4452Z" fill="#93E54C"/>
</g>
<defs>
<clipPath id="clip0_2694_79456">
<rect width="24" height="24" fill="white" transform="translate(262 12)"/>
</clipPath>
</defs>
</svg>
