<svg width="302" height="48" viewBox="0 0 302 48" fill="none" xmlns="http://www.w3.org/2000/svg">
<rect width="302" height="48" rx="8" fill="#E9FADB"/>
<path fill-rule="evenodd" clip-rule="evenodd" d="M34 18C34 17.4477 33.5523 17 33 17H24C23.4477 17 23 17.4477 23 18C23 18.5523 23.4477 19 24 19H31C31.5523 19 32 19.4477 32 20V30C32 30.5523 32.4477 31 33 31C33.5523 31 34 30.5523 34 30V18Z" fill="#FF6699"/>
<path fill-rule="evenodd" clip-rule="evenodd" d="M37 15C37 14.4477 36.5523 14 36 14H27C26.4477 14 26 14.4477 26 15C26 15.5523 26.4477 16 27 16H34C34.5523 16 35 16.4477 35 17V27C35 27.5523 35.4477 28 36 28C36.5523 28 37 27.5523 37 27V15Z" fill="#FF6699"/>
<rect x="20" y="20" width="11" height="14" rx="1" fill="#FF6699"/>
<path d="M55.444 17.766C55.92 17.766 56.3307 17.8407 56.676 17.99C57.0213 18.1393 57.306 18.3493 57.53 18.62C57.754 18.8813 57.9173 19.1893 58.02 19.544C58.132 19.8987 58.188 20.286 58.188 20.706C58.188 21.1167 58.132 21.504 58.02 21.868C57.9173 22.2227 57.754 22.5307 57.53 22.792C57.306 23.0533 57.0213 23.2587 56.676 23.408C56.3307 23.5573 55.92 23.632 55.444 23.632C54.968 23.632 54.5573 23.5573 54.212 23.408C53.8667 23.2587 53.582 23.0533 53.358 22.792C53.134 22.5307 52.966 22.2227 52.854 21.868C52.7513 21.504 52.7 21.1167 52.7 20.706C52.7 20.286 52.7513 19.8987 52.854 19.544C52.966 19.1893 53.134 18.8813 53.358 18.62C53.582 18.3493 53.8667 18.1393 54.212 17.99C54.5573 17.8407 54.968 17.766 55.444 17.766ZM55.444 18.634C55.1173 18.634 54.842 18.69 54.618 18.802C54.394 18.914 54.212 19.0633 54.072 19.25C53.932 19.4367 53.8293 19.656 53.764 19.908C53.6987 20.16 53.666 20.426 53.666 20.706C53.666 20.986 53.6987 21.252 53.764 21.504C53.8293 21.7467 53.932 21.966 54.072 22.162C54.212 22.3487 54.394 22.498 54.618 22.61C54.842 22.7127 55.1173 22.764 55.444 22.764C55.7707 22.764 56.046 22.7127 56.27 22.61C56.494 22.498 56.676 22.3487 56.816 22.162C56.956 21.966 57.0587 21.7467 57.124 21.504C57.1893 21.252 57.222 20.986 57.222 20.706C57.222 20.426 57.1893 20.16 57.124 19.908C57.0587 19.656 56.956 19.4367 56.816 19.25C56.676 19.0633 56.494 18.914 56.27 18.802C56.046 18.69 55.7707 18.634 55.444 18.634ZM62.836 17.164C62.9667 17.164 63.0787 17.1967 63.172 17.262C63.2747 17.3273 63.326 17.43 63.326 17.57V23.618C63.326 23.758 63.2747 23.8607 63.172 23.926C63.0787 23.982 62.9667 24.01 62.836 24.01C62.7147 24.01 62.6027 23.982 62.5 23.926C62.4067 23.8607 62.36 23.758 62.36 23.618V21.14H60.498V23.548C60.498 23.688 60.4467 23.7907 60.344 23.856C60.2507 23.912 60.1387 23.94 60.008 23.94C59.8867 23.94 59.7747 23.912 59.672 23.856C59.5787 23.7907 59.532 23.688 59.532 23.548V17.64C59.532 17.5 59.5787 17.3973 59.672 17.332C59.7747 17.2667 59.8867 17.234 60.008 17.234C60.1387 17.234 60.2507 17.2667 60.344 17.332C60.4467 17.3973 60.498 17.5 60.498 17.64V20.258H62.36V17.57C62.36 17.43 62.4067 17.3273 62.5 17.262C62.6027 17.1967 62.7147 17.164 62.836 17.164ZM55.542 24.724C55.6727 24.724 55.7893 24.7567 55.892 24.822C55.9947 24.8873 56.046 24.99 56.046 25.13V26.544H62.318V25.13C62.318 24.99 62.3693 24.8873 62.472 24.822C62.5747 24.7567 62.6913 24.724 62.822 24.724C62.9527 24.724 63.0693 24.7567 63.172 24.822C63.2747 24.8873 63.326 24.99 63.326 25.13V28.924C63.326 29.2787 63.256 29.5213 63.116 29.652C62.976 29.792 62.724 29.862 62.36 29.862H56.004C55.64 29.862 55.388 29.792 55.248 29.652C55.108 29.5213 55.038 29.2787 55.038 28.924V25.13C55.038 24.99 55.0893 24.8873 55.192 24.822C55.2947 24.7567 55.4113 24.724 55.542 24.724ZM56.046 28.742C56.046 28.9193 56.1347 29.008 56.312 29.008H62.052C62.2293 29.008 62.318 28.9193 62.318 28.742V27.398H56.046V28.742ZM70.0202 18.018C70.1509 18.018 70.2675 18.0507 70.3702 18.116C70.4729 18.1813 70.5242 18.284 70.5242 18.424V21.084H74.2902V18.424C74.2902 18.284 74.3369 18.1813 74.4302 18.116C74.5329 18.0507 74.6495 18.018 74.7802 18.018C74.9109 18.018 75.0275 18.0507 75.1302 18.116C75.2422 18.1813 75.2982 18.284 75.2982 18.424V24.976C75.2982 25.3307 75.2282 25.578 75.0882 25.718C74.9482 25.8487 74.6962 25.914 74.3322 25.914H70.4822C70.1182 25.914 69.8662 25.8487 69.7262 25.718C69.5862 25.578 69.5162 25.3307 69.5162 24.976V18.424C69.5162 18.284 69.5675 18.1813 69.6702 18.116C69.7729 18.0507 69.8895 18.018 70.0202 18.018ZM70.5242 24.78C70.5242 24.8827 70.5429 24.9527 70.5802 24.99C70.6175 25.018 70.6875 25.032 70.7902 25.032H74.0242C74.1175 25.032 74.1829 25.018 74.2202 24.99C74.2669 24.9527 74.2902 24.8827 74.2902 24.78V21.966H70.5242V24.78ZM78.7422 17.164C78.8729 17.164 78.9895 17.1967 79.0922 17.262C79.1949 17.3273 79.2462 17.4347 79.2462 17.584V28.728C79.2462 28.8773 79.1949 28.9847 79.0922 29.05C78.9895 29.1153 78.8729 29.148 78.7422 29.148C78.6115 29.148 78.4949 29.1153 78.3922 29.05C78.2895 28.9847 78.2382 28.8773 78.2382 28.728V22.442H74.8222V21.56H78.2382V17.584C78.2382 17.4347 78.2895 17.3273 78.3922 17.262C78.4949 17.1967 78.6115 17.164 78.7422 17.164ZM88.5724 18.032C88.6937 18.032 88.7824 18.074 88.8384 18.158C88.8944 18.242 88.9224 18.3493 88.9224 18.48C88.9224 18.6013 88.8944 18.7087 88.8384 18.802C88.7824 18.886 88.6937 18.928 88.5724 18.928H86.0384V20.02C86.0384 20.524 86.1224 20.9533 86.2904 21.308C86.4584 21.6533 86.7244 21.9847 87.0884 22.302C87.4057 22.5633 87.7184 22.8153 88.0264 23.058C88.3344 23.2913 88.6004 23.4967 88.8244 23.674C88.9364 23.758 88.997 23.8607 89.0064 23.982C89.0157 24.094 88.983 24.206 88.9084 24.318C88.8337 24.4207 88.7357 24.486 88.6144 24.514C88.5024 24.5327 88.3857 24.5 88.2644 24.416C88.0497 24.248 87.807 24.0613 87.5364 23.856C87.275 23.6507 86.981 23.4173 86.6544 23.156C86.281 22.8573 86.0104 22.596 85.8424 22.372C85.6744 22.1387 85.5717 21.9427 85.5344 21.784H85.5204C85.483 21.952 85.3757 22.1527 85.1984 22.386C85.0304 22.6193 84.7597 22.8853 84.3864 23.184C84.069 23.4547 83.7564 23.7067 83.4484 23.94C83.1404 24.1733 82.8417 24.3973 82.5524 24.612C82.431 24.696 82.3144 24.724 82.2024 24.696C82.0904 24.6587 81.997 24.5933 81.9224 24.5C81.8477 24.3973 81.8104 24.2853 81.8104 24.164C81.8104 24.0427 81.871 23.9353 81.9924 23.842C82.3004 23.618 82.6224 23.3753 82.9584 23.114C83.3037 22.8527 83.635 22.5867 83.9524 22.316C84.3164 22.008 84.5824 21.6767 84.7504 21.322C84.9184 20.9673 85.0024 20.538 85.0024 20.034V18.928H82.3844C82.263 18.928 82.1744 18.886 82.1184 18.802C82.0624 18.7087 82.0344 18.6013 82.0344 18.48C82.0344 18.3493 82.0624 18.242 82.1184 18.158C82.1744 18.074 82.263 18.032 82.3844 18.032H88.5724ZM91.4844 17.164C91.615 17.164 91.7317 17.1967 91.8344 17.262C91.937 17.3273 91.9884 17.4347 91.9884 17.584V26.124C91.9884 26.2733 91.937 26.3807 91.8344 26.446C91.7317 26.5113 91.615 26.544 91.4844 26.544C91.3537 26.544 91.237 26.5113 91.1344 26.446C91.0317 26.3807 90.9804 26.2733 90.9804 26.124V21.588H88.5864C88.465 21.588 88.3764 21.546 88.3204 21.462C88.2644 21.378 88.2364 21.2707 88.2364 21.14C88.2364 21.0187 88.2644 20.916 88.3204 20.832C88.3764 20.7387 88.465 20.692 88.5864 20.692H90.9804V17.584C90.9804 17.4347 91.0317 17.3273 91.1344 17.262C91.237 17.1967 91.3537 17.164 91.4844 17.164ZM84.5124 25.452C84.643 25.452 84.7597 25.4847 84.8624 25.55C84.9744 25.6153 85.0304 25.7227 85.0304 25.872V28.616C85.0304 28.784 85.119 28.868 85.2964 28.868H91.9884C92.119 28.868 92.2124 28.91 92.2684 28.994C92.3244 29.0873 92.3524 29.1947 92.3524 29.316C92.3524 29.4373 92.3244 29.54 92.2684 29.624C92.2124 29.7173 92.119 29.764 91.9884 29.764H84.9604C84.5964 29.764 84.3444 29.694 84.2044 29.554C84.0644 29.4233 83.9944 29.1807 83.9944 28.826V25.872C83.9944 25.7227 84.0457 25.6153 84.1484 25.55C84.2604 25.4847 84.3817 25.452 84.5124 25.452Z" fill="black"/>
<path d="M279 17L286 24L279 31" stroke="black" stroke-linecap="round" stroke-linejoin="round"/>
</svg>
