<svg width="302" height="48" viewBox="0 0 302 48" fill="none" xmlns="http://www.w3.org/2000/svg">
<rect width="302" height="48" rx="8" fill="#E9FADB"/>
<path d="M36.6365 27.4989C36.5586 27.4052 36.4822 27.3114 36.4072 27.2209C35.376 25.9736 34.7521 25.2208 34.7521 21.6897C34.7521 19.8616 34.3147 18.3616 33.4527 17.2366C32.8171 16.4055 31.9579 15.775 30.8254 15.3091C30.8108 15.301 30.7978 15.2903 30.7869 15.2777C30.3796 13.9136 29.2649 13 28.0077 13C26.7505 13 25.6363 13.9136 25.229 15.2762C25.2181 15.2885 25.2053 15.2988 25.191 15.3067C22.5482 16.3947 21.2638 18.482 21.2638 21.6883C21.2638 25.2208 20.6408 25.9736 19.6086 27.2195C19.5336 27.31 19.4572 27.4019 19.3794 27.4975C19.1784 27.7399 19.0511 28.0348 19.0124 28.3473C18.9738 28.6598 19.0255 28.9769 19.1615 29.2609C19.4507 29.8703 20.0671 30.2486 20.7707 30.2486H35.2499C35.9502 30.2486 36.5624 29.8708 36.8526 29.2642C36.9891 28.9801 37.0413 28.6628 37.003 28.3499C36.9647 28.037 36.8375 27.7417 36.6365 27.4989ZM28.0077 34C28.6851 33.9995 29.3497 33.8156 29.931 33.4679C30.5123 33.1202 30.9887 32.6217 31.3096 32.0252C31.3247 31.9966 31.3322 31.9646 31.3313 31.9322C31.3304 31.8999 31.3211 31.8684 31.3044 31.8407C31.2877 31.813 31.2641 31.7901 31.2359 31.7742C31.2078 31.7583 31.176 31.75 31.1436 31.75H24.8727C24.8403 31.7499 24.8085 31.7582 24.7802 31.774C24.752 31.7899 24.7284 31.8128 24.7116 31.8405C24.6949 31.8682 24.6856 31.8997 24.6846 31.9321C24.6837 31.9645 24.6912 31.9965 24.7063 32.0252C25.0272 32.6216 25.5035 33.1201 26.0847 33.4678C26.6659 33.8155 27.3304 33.9994 28.0077 34Z" fill="#93E54C"/>
<path d="M55.948 17.486C56.48 17.486 56.9467 17.5607 57.348 17.71C57.7587 17.85 58.0993 18.0507 58.37 18.312C58.6407 18.564 58.846 18.8673 58.986 19.222C59.126 19.5673 59.196 19.9453 59.196 20.356C59.196 20.7667 59.126 21.1493 58.986 21.504C58.846 21.8587 58.6407 22.1667 58.37 22.428C58.0993 22.68 57.7587 22.8807 57.348 23.03C56.9467 23.17 56.48 23.24 55.948 23.24C55.416 23.24 54.9447 23.17 54.534 23.03C54.1327 22.8807 53.7967 22.68 53.526 22.428C53.2553 22.1667 53.05 21.8587 52.91 21.504C52.77 21.1493 52.7 20.7667 52.7 20.356C52.7 19.9453 52.77 19.5673 52.91 19.222C53.05 18.8673 53.2553 18.564 53.526 18.312C53.7967 18.0507 54.1327 17.85 54.534 17.71C54.9447 17.5607 55.416 17.486 55.948 17.486ZM55.948 18.634C55.612 18.634 55.3227 18.6807 55.08 18.774C54.8467 18.8673 54.6507 18.9933 54.492 19.152C54.3427 19.3107 54.2307 19.4927 54.156 19.698C54.0813 19.9033 54.044 20.1227 54.044 20.356C54.044 20.5893 54.0813 20.8133 54.156 21.028C54.2307 21.2333 54.3427 21.4153 54.492 21.574C54.6507 21.7327 54.8467 21.8587 55.08 21.952C55.3227 22.0453 55.612 22.092 55.948 22.092C56.284 22.092 56.5687 22.0453 56.802 21.952C57.0447 21.8587 57.2407 21.7327 57.39 21.574C57.5487 21.4153 57.6653 21.2333 57.74 21.028C57.8147 20.8133 57.852 20.5893 57.852 20.356C57.852 20.1227 57.8147 19.9033 57.74 19.698C57.6653 19.4927 57.5487 19.3107 57.39 19.152C57.2407 18.9933 57.0447 18.8673 56.802 18.774C56.5687 18.6807 56.284 18.634 55.948 18.634ZM61.744 17.108C61.9307 17.108 62.094 17.1547 62.234 17.248C62.374 17.3413 62.444 17.4907 62.444 17.696V19.754H63.984C64.1707 19.754 64.3013 19.8147 64.376 19.936C64.46 20.0573 64.502 20.1973 64.502 20.356C64.502 20.5333 64.46 20.6827 64.376 20.804C64.3013 20.916 64.1707 20.972 63.984 20.972H62.444V23.128C62.444 23.3333 62.374 23.4827 62.234 23.576C62.094 23.6693 61.9307 23.716 61.744 23.716C61.5573 23.716 61.394 23.6693 61.254 23.576C61.114 23.4827 61.044 23.3333 61.044 23.128V17.696C61.044 17.4907 61.114 17.3413 61.254 17.248C61.394 17.1547 61.5573 17.108 61.744 17.108ZM61.366 24.318C61.7767 24.318 62.0567 24.3927 62.206 24.542C62.3647 24.6913 62.444 24.9667 62.444 25.368V26.656C62.444 27.0573 62.3647 27.3327 62.206 27.482C62.0567 27.6313 61.7767 27.706 61.366 27.706H56.088C55.9853 27.706 55.9107 27.7293 55.864 27.776C55.8173 27.8133 55.794 27.888 55.794 28V28.602C55.794 28.798 55.892 28.896 56.088 28.896H62.29C62.4487 28.896 62.5653 28.952 62.64 29.064C62.7147 29.176 62.752 29.3067 62.752 29.456C62.752 29.6053 62.7147 29.736 62.64 29.848C62.5653 29.96 62.4487 30.016 62.29 30.016H55.514C55.1033 30.016 54.8187 29.9413 54.66 29.792C54.5107 29.6427 54.436 29.3673 54.436 28.966V27.678C54.436 27.2767 54.5107 27.0013 54.66 26.852C54.8187 26.7027 55.1033 26.628 55.514 26.628H60.778C60.89 26.628 60.9647 26.6093 61.002 26.572C61.0487 26.5253 61.072 26.446 61.072 26.334V25.732C61.072 25.6293 61.0487 25.5593 61.002 25.522C60.9647 25.4753 60.89 25.452 60.778 25.452H54.87C54.7113 25.452 54.5947 25.396 54.52 25.284C54.4453 25.172 54.408 25.0367 54.408 24.878C54.408 24.7287 54.4453 24.598 54.52 24.486C54.5947 24.374 54.7113 24.318 54.87 24.318H61.366ZM70.7062 17.738C71.1169 17.738 71.3969 17.8127 71.5462 17.962C71.7049 18.1113 71.7842 18.3867 71.7842 18.788V20.482C71.7842 20.8833 71.7049 21.1587 71.5462 21.308C71.3969 21.4573 71.1169 21.532 70.7062 21.532H67.6962C67.5935 21.532 67.5189 21.5553 67.4722 21.602C67.4255 21.6393 67.4022 21.714 67.4022 21.826V22.778C67.4022 22.9647 67.5002 23.058 67.6962 23.058C68.6762 23.058 69.5769 23.0347 70.3982 22.988C71.2195 22.9413 72.0082 22.8667 72.7642 22.764C72.9229 22.7453 73.0489 22.7827 73.1422 22.876C73.2449 22.9693 73.3055 23.0953 73.3242 23.254C73.3429 23.4127 73.3195 23.562 73.2542 23.702C73.1982 23.8327 73.0909 23.9073 72.9322 23.926C72.6055 23.9727 72.2509 24.0147 71.8682 24.052C71.4855 24.0893 71.0562 24.122 70.5802 24.15C70.1135 24.178 69.5909 24.2013 69.0122 24.22C68.4429 24.2293 67.8082 24.234 67.1082 24.234C66.6975 24.234 66.4129 24.1593 66.2542 24.01C66.1049 23.8607 66.0302 23.5853 66.0302 23.184V21.476C66.0302 21.0747 66.1049 20.7993 66.2542 20.65C66.4129 20.5007 66.6975 20.426 67.1082 20.426H70.1182C70.3142 20.426 70.4122 20.328 70.4122 20.132V19.208C70.4122 19.096 70.3889 19.0213 70.3422 18.984C70.2955 18.9373 70.2209 18.914 70.1182 18.914H66.4922C66.3335 18.914 66.2169 18.858 66.1422 18.746C66.0675 18.6247 66.0302 18.4847 66.0302 18.326C66.0302 18.1673 66.0675 18.032 66.1422 17.92C66.2169 17.7987 66.3335 17.738 66.4922 17.738H70.7062ZM75.0882 17.108C75.2749 17.108 75.4382 17.1547 75.5782 17.248C75.7182 17.3413 75.7882 17.4907 75.7882 17.696V24.234C75.7882 24.4393 75.7182 24.5887 75.5782 24.682C75.4382 24.7753 75.2749 24.822 75.0882 24.822C74.9015 24.822 74.7382 24.7753 74.5982 24.682C74.4582 24.5887 74.3882 24.4393 74.3882 24.234V17.696C74.3882 17.4907 74.4582 17.3413 74.5982 17.248C74.7382 17.1547 74.9015 17.108 75.0882 17.108ZM74.7102 25.424C75.1209 25.424 75.4009 25.4987 75.5502 25.648C75.7089 25.7973 75.7882 26.0727 75.7882 26.474V28.896C75.7882 29.2973 75.7089 29.5727 75.5502 29.722C75.4009 29.8713 75.1209 29.946 74.7102 29.946H68.6902C68.2795 29.946 67.9949 29.8713 67.8362 29.722C67.6869 29.5727 67.6122 29.2973 67.6122 28.896V26.474C67.6122 26.0727 67.6869 25.7973 67.8362 25.648C67.9949 25.4987 68.2795 25.424 68.6902 25.424H74.7102ZM69.2922 26.586C69.0962 26.586 68.9982 26.6793 68.9982 26.866V28.504C68.9982 28.6907 69.0962 28.784 69.2922 28.784H74.1082C74.3042 28.784 74.4022 28.6907 74.4022 28.504V26.866C74.4022 26.6793 74.3042 26.586 74.1082 26.586H69.2922ZM85.4504 17.388C85.637 17.388 85.8004 17.4347 85.9404 17.528C86.0897 17.6213 86.1644 17.7707 86.1644 17.976V19.194C86.1644 19.614 86.2344 19.9733 86.3744 20.272C86.5237 20.5613 86.7617 20.8273 87.0884 21.07C87.415 21.3127 87.7137 21.5273 87.9844 21.714C88.255 21.9007 88.5117 22.0733 88.7544 22.232C88.913 22.3347 88.997 22.47 89.0064 22.638C89.0157 22.806 88.969 22.9553 88.8664 23.086C88.7824 23.2167 88.661 23.31 88.5024 23.366C88.353 23.4127 88.199 23.3847 88.0404 23.282C87.835 23.1513 87.6017 22.9973 87.3404 22.82C87.079 22.6333 86.7897 22.4233 86.4724 22.19C86.127 21.938 85.8844 21.728 85.7444 21.56C85.6044 21.392 85.5157 21.2427 85.4784 21.112H85.4644C85.427 21.2613 85.3337 21.4247 85.1844 21.602C85.0444 21.7793 84.797 21.9987 84.4424 22.26C84.125 22.484 83.817 22.6987 83.5184 22.904C83.229 23.1093 82.935 23.31 82.6364 23.506C82.4777 23.6087 82.319 23.6273 82.1604 23.562C82.0017 23.4967 81.8804 23.3987 81.7964 23.268C81.7124 23.1373 81.6704 22.988 81.6704 22.82C81.6797 22.652 81.7637 22.5167 81.9224 22.414C82.2584 22.1993 82.5757 21.9893 82.8744 21.784C83.1824 21.5693 83.4997 21.3407 83.8264 21.098C84.153 20.8553 84.3864 20.5893 84.5264 20.3C84.6757 20.0013 84.7504 19.642 84.7504 19.222V17.976C84.7504 17.7707 84.8204 17.6213 84.9604 17.528C85.1004 17.4347 85.2637 17.388 85.4504 17.388ZM91.4284 17.108C91.6057 17.108 91.7644 17.1547 91.9044 17.248C92.0444 17.3413 92.1144 17.4907 92.1144 17.696V23.128C92.1144 23.3333 92.0444 23.4827 91.9044 23.576C91.7644 23.6693 91.6057 23.716 91.4284 23.716C91.2417 23.716 91.0784 23.6693 90.9384 23.576C90.7984 23.4827 90.7284 23.3333 90.7284 23.128V20.51H88.6004C88.423 20.51 88.2924 20.4493 88.2084 20.328C88.1337 20.2067 88.0964 20.0667 88.0964 19.908C88.0964 19.74 88.1337 19.6 88.2084 19.488C88.2924 19.3667 88.423 19.306 88.6004 19.306H90.7284V17.696C90.7284 17.4907 90.7984 17.3413 90.9384 17.248C91.0784 17.1547 91.2417 17.108 91.4284 17.108ZM91.0364 24.318C91.447 24.318 91.727 24.3927 91.8764 24.542C92.035 24.6913 92.1144 24.9667 92.1144 25.368V26.656C92.1144 27.0573 92.035 27.3327 91.8764 27.482C91.727 27.6313 91.447 27.706 91.0364 27.706H85.5624C85.4597 27.706 85.385 27.7293 85.3384 27.776C85.2917 27.8133 85.2684 27.888 85.2684 28V28.602C85.2684 28.798 85.3664 28.896 85.5624 28.896H91.9604C92.119 28.896 92.2357 28.952 92.3104 29.064C92.385 29.176 92.4224 29.3067 92.4224 29.456C92.4224 29.6053 92.385 29.736 92.3104 29.848C92.2357 29.96 92.119 30.016 91.9604 30.016H84.9884C84.5777 30.016 84.293 29.9413 84.1344 29.792C83.985 29.6427 83.9104 29.3673 83.9104 28.966V27.678C83.9104 27.2767 83.985 27.0013 84.1344 26.852C84.293 26.7027 84.5777 26.628 84.9884 26.628H90.4484C90.5604 26.628 90.635 26.6093 90.6724 26.572C90.719 26.5253 90.7424 26.446 90.7424 26.334V25.732C90.7424 25.6293 90.719 25.5593 90.6724 25.522C90.635 25.4753 90.5604 25.452 90.4484 25.452H84.3444C84.1857 25.452 84.069 25.396 83.9944 25.284C83.9197 25.172 83.8824 25.0367 83.8824 24.878C83.8824 24.7287 83.9197 24.598 83.9944 24.486C84.069 24.374 84.1857 24.318 84.3444 24.318H91.0364ZM101.175 17.836C101.343 17.836 101.464 17.8967 101.539 18.018C101.623 18.1393 101.665 18.2793 101.665 18.438C101.665 18.5967 101.623 18.7367 101.539 18.858C101.464 18.97 101.343 19.026 101.175 19.026H98.9346V19.782C98.9346 20.23 99.0046 20.608 99.1446 20.916C99.2846 21.224 99.5226 21.5133 99.8586 21.784C100.185 22.0547 100.489 22.2973 100.769 22.512C101.058 22.7267 101.31 22.9087 101.525 23.058C101.683 23.1793 101.767 23.3193 101.777 23.478C101.786 23.6273 101.739 23.772 101.637 23.912C101.543 24.024 101.417 24.1127 101.259 24.178C101.109 24.234 100.946 24.2013 100.769 24.08C100.61 23.968 100.395 23.814 100.125 23.618C99.8632 23.4127 99.5832 23.1887 99.2846 22.946C98.9299 22.666 98.6779 22.4373 98.5286 22.26C98.3886 22.0827 98.2999 21.924 98.2626 21.784H98.2486C98.2112 21.9427 98.1132 22.1153 97.9546 22.302C97.8052 22.4887 97.5532 22.7267 97.1986 23.016C96.8906 23.2587 96.5919 23.4873 96.3026 23.702C96.0132 23.9167 95.7332 24.1173 95.4626 24.304C95.3039 24.4253 95.1406 24.458 94.9726 24.402C94.8139 24.346 94.6926 24.2573 94.6086 24.136C94.5059 23.996 94.4592 23.8467 94.4686 23.688C94.4779 23.52 94.5619 23.3753 94.7206 23.254C95.0472 23.0207 95.3646 22.792 95.6726 22.568C95.9806 22.344 96.2979 22.0967 96.6246 21.826C96.9512 21.5553 97.1846 21.266 97.3246 20.958C97.4646 20.65 97.5346 20.2673 97.5346 19.81V19.026H95.1966C95.0192 19.026 94.8886 18.97 94.8046 18.858C94.7299 18.7367 94.6926 18.5967 94.6926 18.438C94.6926 18.2793 94.7299 18.1393 94.8046 18.018C94.8886 17.8967 95.0192 17.836 95.1966 17.836H101.175ZM104.171 17.108C104.348 17.108 104.507 17.1547 104.647 17.248C104.787 17.3413 104.857 17.4907 104.857 17.696V24.206C104.857 24.402 104.787 24.5467 104.647 24.64C104.507 24.7333 104.348 24.78 104.171 24.78C103.984 24.78 103.821 24.7333 103.681 24.64C103.541 24.5467 103.471 24.402 103.471 24.206V21.504H101.455C101.277 21.504 101.147 21.4433 101.063 21.322C100.988 21.2007 100.951 21.0607 100.951 20.902C100.951 20.734 100.988 20.594 101.063 20.482C101.147 20.3607 101.277 20.3 101.455 20.3H103.471V17.696C103.471 17.4907 103.541 17.3413 103.681 17.248C103.821 17.1547 103.984 17.108 104.171 17.108ZM100.825 24.906C102.131 24.906 103.139 25.13 103.849 25.578C104.567 26.0167 104.927 26.6747 104.927 27.552C104.927 28.4293 104.567 29.0873 103.849 29.526C103.139 29.974 102.131 30.198 100.825 30.198C99.5179 30.198 98.5052 29.974 97.7866 29.526C97.0772 29.0873 96.7226 28.4293 96.7226 27.552C96.7226 26.6747 97.0772 26.0167 97.7866 25.578C98.5052 25.13 99.5179 24.906 100.825 24.906ZM100.825 26.04C99.8726 26.04 99.1819 26.18 98.7526 26.46C98.3232 26.7307 98.1086 27.0947 98.1086 27.552C98.1086 28.0187 98.3232 28.3873 98.7526 28.658C99.1819 28.9287 99.8726 29.064 100.825 29.064C101.777 29.064 102.467 28.9287 102.897 28.658C103.326 28.3873 103.541 28.0187 103.541 27.552C103.541 27.0853 103.326 26.7167 102.897 26.446C102.467 26.1753 101.777 26.04 100.825 26.04Z" fill="black"/>
<g clip-path="url(#clip0_2694_79455)">
<path fill-rule="evenodd" clip-rule="evenodd" d="M277.529 23.4452C277.716 23.6328 277.821 23.8871 277.821 24.1522C277.821 24.4174 277.716 24.6717 277.529 24.8592L271.872 30.5162C271.779 30.6118 271.669 30.6879 271.547 30.7403C271.425 30.7928 271.294 30.8203 271.161 30.8215C271.028 30.8226 270.897 30.7973 270.774 30.7471C270.651 30.6968 270.539 30.6225 270.445 30.5286C270.351 30.4347 270.277 30.3231 270.227 30.2002C270.177 30.0773 270.151 29.9456 270.152 29.8128C270.154 29.6801 270.181 29.5488 270.234 29.4268C270.286 29.3048 270.362 29.1945 270.458 29.1022L275.408 24.1522L270.458 19.2022C270.275 19.0136 270.175 18.761 270.177 18.4988C270.179 18.2366 270.284 17.9858 270.47 17.8004C270.655 17.615 270.906 17.5098 271.168 17.5076C271.43 17.5053 271.683 17.6061 271.872 17.7882L277.529 23.4452Z" fill="#93E54C"/>
</g>
<defs>
<clipPath id="clip0_2694_79455">
<rect width="24" height="24" fill="white" transform="translate(262 12)"/>
</clipPath>
</defs>
</svg>
