<svg width="302" height="48" viewBox="0 0 302 48" fill="none" xmlns="http://www.w3.org/2000/svg">
<rect width="302" height="48" rx="8" fill="#E9FADB"/>
<path d="M36.6365 27.4989C36.5586 27.4052 36.4822 27.3114 36.4072 27.2209C35.376 25.9736 34.7521 25.2208 34.7521 21.6897C34.7521 19.8616 34.3147 18.3616 33.4527 17.2366C32.8171 16.4055 31.9579 15.775 30.8254 15.3091C30.8108 15.301 30.7978 15.2903 30.7869 15.2777C30.3796 13.9136 29.2649 13 28.0077 13C26.7505 13 25.6363 13.9136 25.229 15.2762C25.2181 15.2885 25.2053 15.2988 25.191 15.3067C22.5482 16.3947 21.2638 18.482 21.2638 21.6883C21.2638 25.2208 20.6408 25.9736 19.6086 27.2195C19.5336 27.31 19.4572 27.4019 19.3794 27.4975C19.1784 27.7399 19.0511 28.0348 19.0124 28.3473C18.9738 28.6598 19.0255 28.9769 19.1615 29.2609C19.4507 29.8703 20.0671 30.2486 20.7707 30.2486H35.2499C35.9502 30.2486 36.5624 29.8708 36.8526 29.2642C36.9891 28.9801 37.0413 28.6628 37.003 28.3499C36.9647 28.037 36.8375 27.7417 36.6365 27.4989ZM28.0077 34C28.6851 33.9995 29.3497 33.8156 29.931 33.4679C30.5123 33.1202 30.9887 32.6217 31.3096 32.0252C31.3247 31.9966 31.3322 31.9646 31.3313 31.9322C31.3304 31.8999 31.3211 31.8684 31.3044 31.8407C31.2877 31.813 31.2641 31.7901 31.2359 31.7742C31.2078 31.7583 31.176 31.75 31.1436 31.75H24.8727C24.8403 31.7499 24.8085 31.7582 24.7802 31.774C24.752 31.7899 24.7284 31.8128 24.7116 31.8405C24.6949 31.8682 24.6856 31.8997 24.6846 31.9321C24.6837 31.9645 24.6912 31.9965 24.7063 32.0252C25.0272 32.6216 25.5035 33.1201 26.0847 33.4678C26.6659 33.8155 27.3304 33.9994 28.0077 34Z" fill="#D9D9D9"/>
<path d="M55.962 17.556C56.4847 17.556 56.942 17.6307 57.334 17.78C57.7353 17.92 58.0667 18.116 58.328 18.368C58.5893 18.62 58.7853 18.9187 58.916 19.264C59.0467 19.6 59.112 19.964 59.112 20.356C59.112 20.748 59.0467 21.1167 58.916 21.462C58.7853 21.798 58.5893 22.092 58.328 22.344C58.0667 22.5867 57.7353 22.7827 57.334 22.932C56.942 23.072 56.4847 23.142 55.962 23.142C55.4393 23.142 54.9773 23.072 54.576 22.932C54.184 22.7827 53.8573 22.5867 53.596 22.344C53.3347 22.092 53.1387 21.798 53.008 21.462C52.8773 21.1167 52.812 20.748 52.812 20.356C52.812 19.964 52.8773 19.6 53.008 19.264C53.1387 18.9187 53.3347 18.62 53.596 18.368C53.8573 18.116 54.184 17.92 54.576 17.78C54.9773 17.6307 55.4393 17.556 55.962 17.556ZM55.962 18.41C55.5887 18.41 55.2667 18.4613 54.996 18.564C54.7253 18.6667 54.5013 18.8067 54.324 18.984C54.1467 19.1613 54.016 19.3713 53.932 19.614C53.848 19.8473 53.806 20.0947 53.806 20.356C53.806 20.6173 53.848 20.8647 53.932 21.098C54.016 21.3313 54.1467 21.5367 54.324 21.714C54.5013 21.8913 54.7253 22.0313 54.996 22.134C55.2667 22.2367 55.5887 22.288 55.962 22.288C56.3353 22.288 56.6573 22.2367 56.928 22.134C57.1987 22.0313 57.4227 21.8913 57.6 21.714C57.7773 21.5367 57.908 21.3313 57.992 21.098C58.076 20.8647 58.118 20.6173 58.118 20.356C58.118 20.0947 58.076 19.8473 57.992 19.614C57.908 19.3713 57.7773 19.1613 57.6 18.984C57.4227 18.8067 57.1987 18.6667 56.928 18.564C56.6573 18.4613 56.3353 18.41 55.962 18.41ZM61.8 17.164C61.9307 17.164 62.0473 17.1967 62.15 17.262C62.262 17.3273 62.318 17.4347 62.318 17.584V19.894H64.096C64.2267 19.894 64.32 19.9407 64.376 20.034C64.432 20.118 64.46 20.2253 64.46 20.356C64.46 20.4773 64.432 20.5847 64.376 20.678C64.32 20.762 64.2267 20.804 64.096 20.804H62.318V23.296C62.318 23.4453 62.262 23.5527 62.15 23.618C62.0473 23.6833 61.9307 23.716 61.8 23.716C61.6693 23.716 61.5527 23.6833 61.45 23.618C61.3473 23.5527 61.296 23.4453 61.296 23.296V17.584C61.296 17.4347 61.3473 17.3273 61.45 17.262C61.5527 17.1967 61.6693 17.164 61.8 17.164ZM61.352 24.416C61.716 24.416 61.968 24.486 62.108 24.626C62.248 24.7567 62.318 24.9993 62.318 25.354V26.642C62.318 26.9967 62.248 27.244 62.108 27.384C61.968 27.5147 61.716 27.58 61.352 27.58H55.808C55.7147 27.58 55.6447 27.5987 55.598 27.636C55.5607 27.664 55.542 27.7293 55.542 27.832V28.826C55.542 29.0033 55.6307 29.092 55.808 29.092H62.318C62.43 29.092 62.514 29.134 62.57 29.218C62.626 29.302 62.654 29.4 62.654 29.512C62.654 29.624 62.626 29.722 62.57 29.806C62.514 29.89 62.43 29.932 62.318 29.932H55.514C55.15 29.932 54.898 29.862 54.758 29.722C54.618 29.5913 54.548 29.3487 54.548 28.994V27.692C54.548 27.3373 54.618 27.0947 54.758 26.964C54.898 26.824 55.15 26.754 55.514 26.754H61.058C61.1607 26.754 61.2307 26.74 61.268 26.712C61.3053 26.6747 61.324 26.6047 61.324 26.502V25.508C61.324 25.34 61.2353 25.256 61.058 25.256H54.856C54.744 25.256 54.66 25.214 54.604 25.13C54.548 25.046 54.52 24.948 54.52 24.836C54.52 24.724 54.548 24.626 54.604 24.542C54.66 24.458 54.744 24.416 54.856 24.416H61.352ZM70.7202 17.822C71.0842 17.822 71.3362 17.892 71.4762 18.032C71.6162 18.1627 71.6862 18.4053 71.6862 18.76V20.412C71.6862 20.7667 71.6162 21.014 71.4762 21.154C71.3362 21.2847 71.0842 21.35 70.7202 21.35H67.4162C67.3135 21.35 67.2435 21.3687 67.2062 21.406C67.1689 21.434 67.1502 21.4993 67.1502 21.602V22.946C67.1502 23.114 67.2389 23.198 67.4162 23.198C68.4895 23.198 69.4695 23.1747 70.3562 23.128C71.2522 23.072 72.1202 22.9833 72.9602 22.862C73.0722 22.8433 73.1655 22.8713 73.2402 22.946C73.3149 23.0207 73.3615 23.1187 73.3802 23.24C73.3989 23.3613 73.3802 23.4733 73.3242 23.576C73.2775 23.6693 73.1982 23.7253 73.0862 23.744C72.3582 23.8467 71.5182 23.926 70.5662 23.982C69.6142 24.038 68.4615 24.066 67.1082 24.066C66.7442 24.066 66.4922 24.0007 66.3522 23.87C66.2122 23.73 66.1422 23.4827 66.1422 23.128V21.448C66.1422 21.0933 66.2122 20.8507 66.3522 20.72C66.4922 20.58 66.7442 20.51 67.1082 20.51H70.4262C70.5195 20.51 70.5849 20.496 70.6222 20.468C70.6689 20.4307 70.6922 20.3607 70.6922 20.258V18.942C70.6922 18.8393 70.6689 18.774 70.6222 18.746C70.5849 18.7087 70.5195 18.69 70.4262 18.69H66.4782C66.3569 18.69 66.2682 18.648 66.2122 18.564C66.1655 18.4707 66.1422 18.368 66.1422 18.256C66.1422 18.1347 66.1655 18.032 66.2122 17.948C66.2682 17.864 66.3569 17.822 66.4782 17.822H70.7202ZM75.1582 17.164C75.2889 17.164 75.4055 17.1967 75.5082 17.262C75.6109 17.3273 75.6622 17.4347 75.6622 17.584V24.374C75.6622 24.5233 75.6109 24.6307 75.5082 24.696C75.4055 24.7613 75.2889 24.794 75.1582 24.794C75.0275 24.794 74.9062 24.7613 74.7942 24.696C74.6915 24.6307 74.6402 24.5233 74.6402 24.374V17.584C74.6402 17.4347 74.6915 17.3273 74.7942 17.262C74.9062 17.1967 75.0275 17.164 75.1582 17.164ZM74.6962 25.508C75.0602 25.508 75.3122 25.578 75.4522 25.718C75.5922 25.8487 75.6622 26.0913 75.6622 26.446V28.924C75.6622 29.2787 75.5922 29.5213 75.4522 29.652C75.3122 29.792 75.0602 29.862 74.6962 29.862H68.6902C68.3262 29.862 68.0742 29.792 67.9342 29.652C67.7942 29.5213 67.7242 29.2787 67.7242 28.924V26.446C67.7242 26.0913 67.7942 25.8487 67.9342 25.718C68.0742 25.578 68.3262 25.508 68.6902 25.508H74.6962ZM69.0122 26.362C68.8349 26.362 68.7462 26.446 68.7462 26.614V28.756C68.7462 28.924 68.8349 29.008 69.0122 29.008H74.3882C74.5655 29.008 74.6542 28.924 74.6542 28.756V26.614C74.6542 26.446 74.5655 26.362 74.3882 26.362H69.0122ZM85.4924 17.444C85.623 17.444 85.7397 17.4767 85.8424 17.542C85.9544 17.6073 86.0104 17.7147 86.0104 17.864V19.208C86.0104 19.6747 86.0804 20.0573 86.2204 20.356C86.3697 20.6453 86.6217 20.9207 86.9764 21.182C87.331 21.4433 87.6484 21.6767 87.9284 21.882C88.2177 22.078 88.5024 22.2693 88.7824 22.456C88.9037 22.5307 88.969 22.6333 88.9784 22.764C88.9877 22.8853 88.9597 22.9973 88.8944 23.1C88.829 23.1933 88.7357 23.2587 88.6144 23.296C88.5024 23.324 88.3904 23.3007 88.2784 23.226C88.045 23.0673 87.7884 22.8947 87.5084 22.708C87.2284 22.512 86.9204 22.288 86.5844 22.036C86.211 21.7653 85.945 21.5367 85.7864 21.35C85.6277 21.1633 85.5344 21 85.5064 20.86H85.4924C85.4644 21.0093 85.3664 21.182 85.1984 21.378C85.0397 21.574 84.7737 21.8073 84.4004 22.078C84.0644 22.3207 83.733 22.5587 83.4064 22.792C83.0797 23.016 82.7624 23.226 82.4544 23.422C82.333 23.4967 82.2164 23.52 82.1044 23.492C81.9924 23.4547 81.899 23.3847 81.8244 23.282C81.759 23.1793 81.731 23.0673 81.7404 22.946C81.7497 22.8153 81.815 22.7127 81.9364 22.638C82.291 22.4047 82.6317 22.176 82.9584 21.952C83.2944 21.7187 83.6397 21.4713 83.9944 21.21C84.349 20.9393 84.601 20.6593 84.7504 20.37C84.8997 20.0713 84.9744 19.6933 84.9744 19.236V17.864C84.9744 17.7147 85.0257 17.6073 85.1284 17.542C85.231 17.4767 85.3524 17.444 85.4924 17.444ZM91.4844 17.164C91.615 17.164 91.7317 17.1967 91.8344 17.262C91.937 17.3273 91.9884 17.4347 91.9884 17.584V23.296C91.9884 23.4453 91.937 23.5527 91.8344 23.618C91.7317 23.6833 91.615 23.716 91.4844 23.716C91.3537 23.716 91.237 23.6833 91.1344 23.618C91.0317 23.5527 90.9804 23.4453 90.9804 23.296V20.356H88.4744C88.353 20.356 88.2644 20.314 88.2084 20.23C88.1524 20.146 88.1244 20.0387 88.1244 19.908C88.1244 19.7867 88.1524 19.684 88.2084 19.6C88.2644 19.5067 88.353 19.46 88.4744 19.46H90.9804V17.584C90.9804 17.4347 91.0317 17.3273 91.1344 17.262C91.237 17.1967 91.3537 17.164 91.4844 17.164ZM91.0224 24.416C91.3864 24.416 91.6384 24.486 91.7784 24.626C91.9184 24.7567 91.9884 24.9993 91.9884 25.354V26.642C91.9884 26.9967 91.9184 27.244 91.7784 27.384C91.6384 27.5147 91.3864 27.58 91.0224 27.58H85.2824C85.189 27.58 85.119 27.5987 85.0724 27.636C85.035 27.664 85.0164 27.7293 85.0164 27.832V28.826C85.0164 29.0033 85.105 29.092 85.2824 29.092H91.9884C92.1004 29.092 92.1844 29.134 92.2404 29.218C92.2964 29.302 92.3244 29.4 92.3244 29.512C92.3244 29.624 92.2964 29.722 92.2404 29.806C92.1844 29.89 92.1004 29.932 91.9884 29.932H84.9884C84.6244 29.932 84.3724 29.862 84.2324 29.722C84.0924 29.5913 84.0224 29.3487 84.0224 28.994V27.692C84.0224 27.3373 84.0924 27.0947 84.2324 26.964C84.3724 26.824 84.6244 26.754 84.9884 26.754H90.7284C90.831 26.754 90.901 26.74 90.9384 26.712C90.9757 26.6747 90.9944 26.6047 90.9944 26.502V25.508C90.9944 25.34 90.9057 25.256 90.7284 25.256H84.3304C84.2184 25.256 84.1344 25.214 84.0784 25.13C84.0224 25.046 83.9944 24.948 83.9944 24.836C83.9944 24.724 84.0224 24.626 84.0784 24.542C84.1344 24.458 84.2184 24.416 84.3304 24.416H91.0224ZM101.315 17.92C101.436 17.92 101.525 17.962 101.581 18.046C101.637 18.13 101.665 18.2327 101.665 18.354C101.665 18.4847 101.637 18.592 101.581 18.676C101.525 18.76 101.436 18.802 101.315 18.802H98.7806V19.796C98.7806 20.2813 98.8552 20.6873 99.0046 21.014C99.1539 21.3313 99.4059 21.6347 99.7606 21.924C100.115 22.1947 100.447 22.4467 100.755 22.68C101.072 22.9133 101.338 23.1093 101.553 23.268C101.674 23.3613 101.739 23.4687 101.749 23.59C101.758 23.702 101.725 23.8093 101.651 23.912C101.585 24.0053 101.497 24.0707 101.385 24.108C101.273 24.1453 101.151 24.1173 101.021 24.024C100.853 23.912 100.619 23.744 100.321 23.52C100.022 23.296 99.7092 23.058 99.3826 22.806C99.0186 22.5073 98.7526 22.26 98.5846 22.064C98.4166 21.8587 98.3139 21.6813 98.2766 21.532H98.2626C98.2252 21.6907 98.1226 21.8727 97.9546 22.078C97.7866 22.2833 97.5159 22.5353 97.1426 22.834C96.8159 23.0953 96.4892 23.3473 96.1626 23.59C95.8452 23.8233 95.5512 24.0333 95.2806 24.22C95.1592 24.304 95.0426 24.3273 94.9306 24.29C94.8186 24.2527 94.7252 24.1873 94.6506 24.094C94.5759 23.9913 94.5386 23.8793 94.5386 23.758C94.5479 23.6367 94.6179 23.534 94.7486 23.45C95.0846 23.2073 95.4159 22.9647 95.7426 22.722C96.0692 22.4793 96.4099 22.218 96.7646 21.938C97.1192 21.6487 97.3712 21.3453 97.5206 21.028C97.6699 20.7013 97.7446 20.3 97.7446 19.824V18.802H95.1266C95.0052 18.802 94.9166 18.76 94.8606 18.676C94.8046 18.592 94.7766 18.4847 94.7766 18.354C94.7766 18.2327 94.8046 18.13 94.8606 18.046C94.9166 17.962 95.0052 17.92 95.1266 17.92H101.315ZM104.227 17.164C104.357 17.164 104.474 17.1967 104.577 17.262C104.679 17.3273 104.731 17.4347 104.731 17.584V24.402C104.731 24.5513 104.679 24.6587 104.577 24.724C104.474 24.7893 104.357 24.822 104.227 24.822C104.096 24.822 103.979 24.7893 103.877 24.724C103.774 24.6587 103.723 24.5513 103.723 24.402V21.35H101.329C101.207 21.35 101.119 21.308 101.063 21.224C101.007 21.14 100.979 21.0327 100.979 20.902C100.979 20.7807 101.007 20.678 101.063 20.594C101.119 20.5007 101.207 20.454 101.329 20.454H103.723V17.584C103.723 17.4347 103.774 17.3273 103.877 17.262C103.979 17.1967 104.096 17.164 104.227 17.164ZM100.839 24.99C102.117 24.99 103.102 25.2093 103.793 25.648C104.483 26.0773 104.829 26.712 104.829 27.552C104.829 28.392 104.483 29.0267 103.793 29.456C103.102 29.8947 102.117 30.114 100.839 30.114C99.5599 30.114 98.5752 29.8947 97.8846 29.456C97.2032 29.0267 96.8626 28.392 96.8626 27.552C96.8626 26.712 97.2032 26.0773 97.8846 25.648C98.5752 25.2093 99.5599 24.99 100.839 24.99ZM100.839 25.83C99.8212 25.83 99.0699 25.984 98.5846 26.292C98.1086 26.6 97.8706 27.02 97.8706 27.552C97.8706 28.084 98.1086 28.504 98.5846 28.812C99.0699 29.12 99.8212 29.274 100.839 29.274C101.856 29.274 102.607 29.12 103.093 28.812C103.578 28.504 103.821 28.084 103.821 27.552C103.821 27.02 103.578 26.6 103.093 26.292C102.607 25.984 101.856 25.83 100.839 25.83Z" fill="black"/>
<path d="M279 17L286 24L279 31" stroke="black" stroke-linecap="round" stroke-linejoin="round"/>
</svg>
