<svg width="48" height="48" viewBox="0 0 48 48" fill="none" xmlns="http://www.w3.org/2000/svg">
<rect width="48" height="48" rx="12" fill="#93E54C"/>
<path d="M32 23.5C32.0005 23.722 31.9451 23.9403 31.8392 24.1338C31.7333 24.3273 31.5804 24.4893 31.3955 24.6041L19.9345 31.8075C19.7413 31.9291 19.52 31.9955 19.2935 31.9998C19.0669 32.0041 18.8434 31.9462 18.6459 31.8321C18.4503 31.7197 18.2874 31.5558 18.1739 31.3573C18.0603 31.1588 18.0003 30.9328 18 30.7026L18 16.2974C18.0003 16.0672 18.0603 15.8412 18.1739 15.6427C18.2874 15.4442 18.4503 15.2803 18.6459 15.1679C18.8434 15.0538 19.0669 14.9959 19.2935 15.0002C19.52 15.0045 19.7413 15.0709 19.9345 15.1925L31.3955 22.3959C31.5804 22.5107 31.7333 22.6727 31.8392 22.8662C31.9451 23.0597 32.0005 23.278 32 23.5Z" fill="white"/>
</svg>
