<svg width="48" height="48" viewBox="0 0 48 48" fill="none" xmlns="http://www.w3.org/2000/svg">
<rect width="48" height="48" rx="12" transform="matrix(-1 -1.74846e-07 -1.74846e-07 1 48 0)" fill="#93E54C"/>
<path d="M16 23.5C15.9995 23.722 16.0549 23.9403 16.1608 24.1338C16.2667 24.3273 16.4196 24.4893 16.6045 24.6041L28.0655 31.8075C28.2587 31.9291 28.48 31.9955 28.7065 31.9998C28.9331 32.0041 29.1566 31.9462 29.3541 31.8321C29.5497 31.7197 29.7126 31.5558 29.8261 31.3573C29.9397 31.1588 29.9997 30.9328 30 30.7026L30 16.2974C29.9997 16.0672 29.9397 15.8412 29.8261 15.6427C29.7126 15.4442 29.5497 15.2803 29.3541 15.1679C29.1566 15.0538 28.9331 14.9959 28.7065 15.0002C28.48 15.0045 28.2587 15.0709 28.0655 15.1925L16.6045 22.3959C16.4196 22.5107 16.2667 22.6727 16.1608 22.8662C16.0549 23.0597 15.9995 23.278 16 23.5Z" fill="white"/>
</svg>
